<?xml version="1.0" encoding="utf-8"?>
<!DOCTYPE svg PUBLIC "-//W3C//DTD SVG 1.0//EN" "http://www.w3.org/TR/2001/REC-SVG-20010904/DTD/svg10.dtd">
<svg version="1.0" xmlns="http://www.w3.org/2000/svg" width="20rem" height="10rem" viewBox="0 0 677 200" preserveAspectRatio="xMidYMid meet">
 <g fill="#000000">
  <path d="M 499.95 186.15 c -1.40 -0.35 -1.95 -2.50 -1.95 -7.35 0 -3.90 0.15 -4.85 1 -5.95 0.55 -0.70 1 -1.60 1 -2 0 -0.40 0.45 -1.30 1 -2 0.55 -0.70 1 -1.65 1 -2.10 0 -0.45 1.60 -2.50 3.60 -4.55 l 3.55 -3.70 -6.95 0 c -6.45 0 -6.85 0.05 -5.80 0.80 1 0.70 1.15 1.15 1 3.85 -0.15 3 -0.20 3.10 -1.60 3.25 -2.75 0.35 -4.50 -0.40 -6.15 -2.50 -1.55 -1.90 -1.65 -2.25 -1.65 -5.90 0 -3.20 0.20 -4.10 1.05 -5.20 l 1.05 -1.35 12.15 0.15 c 11.10 0.15 12.25 0.25 13.20 1.10 0.60 0.55 1.05 1.30 1.05 1.75 0 0.45 0.45 1.35 1 2.05 1.75 2.20 1.30 3.85 -1.80 6.80 -1.55 1.50 -3.35 2.85 -4 3 -0.65 0.20 -1.20 0.70 -1.20 1.15 0 0.45 -0.90 1.85 -2 3.05 -1.50 1.65 -2 2.65 -2 3.90 0 0.95 -0.45 2.25 -1 2.95 -0.55 0.70 -1 1.50 -1 1.70 0 0.25 5.55 0.50 12.40 0.55 l 12.35 0.15 0 3.25 0 3.25 -14.25 0.05 c -7.85 0.05 -14.60 0 -15.05 -0.15 z "/>
  <path d="M 184 159.60 c 0 -14.90 0.05 -15.50 1.05 -16.80 1.15 -1.45 3.60 -1.80 4.30 -0.60 0.20 0.40 1.10 0.80 1.90 0.90 1.35 0.15 1.50 0.30 1.30 1.65 -0.05 0.80 -0.60 2 -1.10 2.70 -0.90 1.15 -1 2.10 -0.95 14.25 l 0.05 13.05 -3.25 0.15 -3.30 0.15 0 -15.45 z "/>
  <path d="M 274.50 162.15 c -0.40 -0.15 -1.10 -0.55 -1.50 -0.90 -0.40 -0.35 -2.15 -0.75 -3.85 -0.85 -1.90 -0.15 -3.45 -0.55 -4 -1 -0.65 -0.60 -2.20 -0.85 -5.95 -1 -3.80 -0.10 -5.35 -0.35 -6 -0.95 -0.55 -0.45 -1.50 -1 -2.20 -1.20 -0.70 -0.20 -1.60 -0.65 -2 -1 -0.40 -0.35 -1.70 -0.75 -2.85 -0.90 -1.15 -0.15 -2.75 -0.70 -3.60 -1.30 -0.80 -0.60 -1.80 -1.05 -2.20 -1.05 -0.40 0 -1 -0.30 -1.30 -0.70 -0.30 -0.35 -1.60 -0.80 -2.85 -0.95 -1.20 -0.10 -2.65 -0.60 -3.10 -1 -0.45 -0.45 -1.45 -0.90 -2.20 -1.10 -0.75 -0.20 -1.60 -0.65 -1.95 -1.05 -0.30 -0.40 -1.20 -0.70 -2 -0.70 -0.90 0 -1.70 -0.40 -2.05 -1 -0.35 -0.55 -0.85 -1 -1.15 -1 -0.30 0 -1.35 -0.45 -2.40 -1 -1 -0.55 -2.50 -1 -3.30 -1 -1 0 -2.25 -0.65 -3.80 -2 -1.95 -1.70 -2.65 -2 -4.50 -2 -3.10 0 -4.75 -0.75 -5.40 -2.50 -0.40 -1.05 -0.90 -1.50 -1.70 -1.50 -0.65 0 -1.40 -0.45 -1.75 -1 -0.40 -0.60 -1.20 -1 -2 -1 -0.75 0 -1.65 -0.40 -2 -0.95 -0.40 -0.55 -1.30 -1.15 -2 -1.30 -0.70 -0.20 -2.05 -1.10 -2.95 -2.05 -1.30 -1.35 -2.05 -1.70 -3.55 -1.70 -2.05 0 -4.40 -1.70 -4.40 -3.25 0 -0.55 -0.50 -0.75 -1.95 -0.75 -1.60 0 -2.20 0.30 -3.55 1.80 -1.30 1.50 -2 1.90 -3.90 2.10 -1.85 0.20 -2.80 0.65 -4.45 2.15 -2.10 1.90 -2.20 1.95 -5.95 1.95 -3.05 0 -4.05 0.20 -5.05 1 -0.70 0.55 -1.60 1 -2 1 -0.40 0 -1.30 0.45 -2 1 -1.05 0.80 -2.05 1 -5 1 -3 0 -4 0.20 -5 1 -0.90 0.70 -2.05 1 -3.70 1 -1.55 0 -3 0.35 -4.05 1 -1.35 0.80 -2.55 1 -6.30 1 -3.95 0 -4.90 0.15 -5.95 1 -0.70 0.55 -2.05 1 -3 1 -0.90 0 -2.30 0.45 -3.05 1 -1.35 1 -1.95 1.05 -22.20 0.90 -18.30 -0.15 -20.90 -0.25 -21.70 -0.95 -0.55 -0.45 -1.90 -0.95 -3.10 -1.10 -1.20 -0.15 -2.55 -0.60 -3 -1 -0.50 -0.40 -2.20 -0.85 -3.90 -0.95 -2.75 -0.20 -3.30 -0.40 -5.45 -2.30 -1.30 -1.15 -2.75 -2.10 -3.25 -2.10 -1.05 0 -6.50 -5.65 -6.50 -6.75 0 -0.45 -0.45 -1.40 -1 -2.10 -0.90 -1.20 -1 -2.05 -1 -10.40 0 -8.45 0.05 -9.15 1 -10 0.55 -0.50 1 -1.40 1 -2 0 -0.60 0.45 -1.50 1 -2 0.55 -0.50 1 -1.40 1 -2 0 -1.25 1.20 -2.45 2.90 -2.95 0.60 -0.20 1.10 -0.75 1.10 -1.30 0 -1.20 5.25 -6.35 6.95 -6.75 0.70 -0.15 2.10 -1.10 3.10 -2.05 1.35 -1.30 2.40 -1.85 4 -2.05 1.20 -0.15 2.55 -0.55 2.95 -0.90 0.40 -0.35 1.30 -0.80 2 -1 0.70 -0.20 1.65 -0.75 2.20 -1.20 0.80 -0.70 3.50 -0.80 24 -0.95 22.60 -0.15 23.10 -0.10 24.15 0.90 0.85 0.75 1.80 1 4.05 1 2.30 0 3.15 0.20 3.85 1 0.70 0.80 1.55 1 4 1 2.45 0 3.30 0.20 4 1 0.50 0.55 1.40 1 2 1 0.60 0 1.55 0.45 2.15 1 0.60 0.55 1.50 1 2.05 1 0.55 0 1.90 0.90 3 2 1.10 1.10 2.45 2 3 2 0.55 0 1.95 0.90 3.10 2 1.15 1.10 2.50 2 3 2 0.50 0 2.70 1.80 4.90 4 2.30 2.25 4.45 4 5 4 0.55 0 1.90 0.90 3 2 1.10 1.10 2.45 2 2.95 2 1.20 0 3.10 1.80 3.10 3 0 0.50 0.25 1.10 0.50 1.25 0.75 0.45 1.40 -1.75 1.10 -3.90 -0.25 -2.20 0.70 -3.55 2.80 -4.10 0.75 -0.15 2.15 -1.10 3.15 -2.05 1.35 -1.30 2.40 -1.85 4 -2.05 1.20 -0.15 2.55 -0.55 2.95 -0.90 0.40 -0.30 1.50 -0.85 2.40 -1.25 0.85 -0.35 1.60 -0.80 1.60 -1 0 -0.25 0.75 -0.60 1.65 -0.75 0.85 -0.20 1.95 -0.65 2.35 -1 0.40 -0.35 1.30 -0.80 2 -1 0.70 -0.20 1.65 -0.70 2.10 -1.10 0.50 -0.45 2.35 -0.95 4.15 -1.10 1.85 -0.20 3.50 -0.60 3.65 -0.90 0.45 -0.65 3.75 -2.30 6.25 -3.10 1 -0.35 1.85 -0.80 1.85 -1 0 -0.20 0.90 -0.65 2 -1 1.10 -0.30 2 -0.80 2 -1.05 0 -0.20 0.75 -0.60 1.65 -0.75 0.85 -0.20 1.95 -0.65 2.35 -1 0.40 -0.35 1.30 -0.80 2 -1 0.70 -0.20 1.60 -0.65 2 -1 0.40 -0.35 1.25 -0.80 1.90 -0.95 0.60 -0.20 1.10 -0.75 1.10 -1.25 0 -0.50 0.45 -1.30 1 -1.80 1 -0.90 2.50 -1.15 9.30 -1.40 3.60 -0.15 4.20 -0.30 5.50 -1.55 1.90 -1.80 3.25 -2.30 6.05 -2.30 1.40 0 2.65 -0.30 3.20 -0.80 0.50 -0.45 1.85 -0.90 3.05 -1.05 1.20 -0.15 2.55 -0.65 3.10 -1.10 0.80 -0.70 3.25 -0.80 19.95 -0.95 17.20 -0.10 19.15 -0.20 20 -1 0.90 -0.80 3.50 -0.85 32.05 -1 30.60 -0.10 31.10 -0.10 32.15 0.90 1.05 0.95 1.75 1 13.05 1 11.30 0 12 0.05 12.85 1 0.75 0.85 1.55 1 5 1 3.35 0 4.25 0.15 5.15 1 0.95 0.90 1.75 1 7 1 5.20 0 6.05 0.10 7 1 0.60 0.55 1.50 1 2 1 0.50 0 1.40 0.45 2 1 0.90 0.85 1.75 1 6 1 4.20 0 5.05 0.15 6 1 0.60 0.55 1.50 1 2 1 0.50 0 1.40 0.45 2 1 0.90 0.85 1.75 1 6 1 4.20 0 5.05 0.15 6 1 0.60 0.55 1.50 1 2 1 0.50 0 1.35 0.45 1.85 1 0.50 0.55 1.20 1 1.60 1 0.45 0 0.65 0.75 0.65 2.55 l 0 2.55 1.90 -1.45 c 4.95 -3.80 11.95 -7 18.30 -8.40 5.60 -1.25 15.50 -1.15 22.10 0.20 6.10 1.25 11.15 3.20 13.85 5.40 1.80 1.45 2.15 1.45 2.55 -0.10 0.20 -0.70 0.55 -1.25 0.85 -1.25 0.40 0 0.40 -0.25 -0.05 -0.75 -1.50 -1.80 1.60 -6.85 4.65 -7.55 0.75 -0.15 2.25 -1.15 3.35 -2.25 1.80 -1.85 2.10 -1.95 4.95 -1.95 2.40 0 3.25 -0.20 4.05 -1 0.80 -0.80 1.65 -1 4 -1 2.35 0 3.20 -0.20 4 -1 0.80 -0.80 1.65 -1 4 -1 2.35 0 3.20 -0.20 4 -1 0.90 -0.90 1.65 -1 6.80 -1 5.05 0 6 -0.15 7.25 -1 1.35 -1 1.95 -1.05 14.05 -0.85 17.65 0.35 23.90 0.90 25.65 2.25 0.75 0.60 1.70 1.10 2.10 1.10 0.40 0 1.30 0.45 2 1 0.70 0.55 1.65 1 2.10 1 0.45 0.05 1.60 0.70 2.55 1.50 0.95 0.85 2.05 1.50 2.50 1.50 0.40 0 1.30 0.45 2 1 0.70 0.55 1.65 1 2.10 1 0.45 0 1.15 0.40 1.50 0.90 0.35 0.50 1.45 1.50 2.50 2.25 1 0.80 1.95 2 2.15 2.75 0.20 0.75 0.60 1.70 1 2.10 0.35 0.40 0.80 1.30 1 2 0.20 0.70 0.75 1.65 1.20 2.20 0.65 0.75 0.80 2.50 0.95 10.90 0.15 9.05 0.05 10.30 -0.90 13.30 -0.60 1.85 -1.45 3.90 -1.95 4.60 -0.50 0.70 -1.05 1.80 -1.20 2.50 -0.15 0.70 -2.55 3.45 -5.25 6.15 -4.50 4.40 -5.15 4.85 -6.85 4.85 -1.35 0 -2.35 0.40 -3.60 1.50 -0.90 0.85 -2.05 1.50 -2.50 1.50 -0.45 0 -1.75 0.90 -2.95 2 l -2.20 2 -5.75 0 c -5.05 0 -5.95 0.15 -7.20 1 -1.30 1 -1.90 1.05 -14.35 0.85 -12.60 -0.20 -18.05 -0.75 -18.80 -2 -0.15 -0.30 -1.95 -0.70 -3.90 -0.90 -2.10 -0.25 -3.85 -0.70 -4.20 -1.10 -0.30 -0.40 -1.65 -0.85 -3 -1.05 -1.35 -0.15 -2.70 -0.60 -3 -1 -0.30 -0.35 -1.65 -0.80 -3.05 -1 -1.35 -0.15 -2.65 -0.65 -2.85 -1 -0.25 -0.40 -1.15 -0.90 -2 -1.10 -0.90 -0.15 -1.85 -0.65 -2.15 -1.05 -0.25 -0.35 -1.30 -0.80 -2.30 -0.95 -1.70 -0.30 -1.85 -0.20 -3.30 2.10 -0.85 1.35 -3.40 4.40 -5.75 6.85 -3.60 3.75 -4.65 4.55 -7.45 5.55 -1.75 0.65 -4.20 1.65 -5.45 2.20 -5.95 2.75 -16.05 4.05 -24.50 3.20 -7.40 -0.80 -8.10 -1 -14.60 -3.70 l -4.85 -2.05 -1.80 1.60 c -1.35 1.15 -2.25 1.55 -3.75 1.55 -2.55 0 -4.10 0.60 -5.95 2.45 -0.90 0.85 -1.95 1.55 -2.35 1.55 -0.40 0 -1 0.65 -1.25 1.45 -0.65 1.90 -2.30 2.55 -6.30 2.55 -2.40 0 -3.70 0.25 -4.90 1 -1.30 0.80 -2.55 1 -7.10 1.05 -4.50 0.05 -5.75 0.20 -6.95 1 -0.95 0.60 -2.35 0.95 -3.95 0.95 -1.65 0 -3 0.35 -4 1 -1 0.65 -2.35 1 -4 1 -1.65 0 -3 0.35 -4 1 -1.30 0.85 -2.35 1 -7.85 1 -5.50 0 -6.60 0.15 -8 1 -1.45 0.85 -2.55 1 -8.15 1 -5.65 0 -6.70 0.15 -8 1 -1.45 1 -2.40 1 -51.75 0.95 -27.65 0 -50.60 -0.15 -51 -0.30 z  m 128.50 -13.60 c 0.45 -0.85 1.20 -1 7 -1.15 4.80 -0.10 6.65 -0.35 6.95 -0.85 0.25 -0.35 1.90 -0.80 3.85 -1.05 1.90 -0.20 4.15 -0.75 4.95 -1.20 0.95 -0.50 2.75 -0.80 4.95 -0.80 2.40 0 3.75 -0.25 4.30 -0.75 0.45 -0.40 1.90 -0.95 3.25 -1.20 1.30 -0.25 2.55 -0.70 2.75 -1 0.15 -0.35 1.50 -0.75 2.95 -1 1.90 -0.30 3.05 -0.85 4.20 -1.95 1 -0.95 2.50 -1.75 4 -2.10 1.35 -0.30 3 -1.05 3.75 -1.75 l 1.30 -1.20 -1.25 -1.40 c -8.25 -9.05 -9.95 -21.75 -4.40 -32.80 0.60 -1.15 1.40 -2.45 1.80 -2.90 0.65 -0.75 0.35 -0.85 -3.30 -1 -3.85 -0.20 -4.10 -0.30 -5.90 -2.05 -1.80 -1.75 -2.05 -1.80 -5.95 -2 -2.90 -0.10 -4.35 -0.40 -5 -0.95 -0.55 -0.45 -1.50 -1 -2.20 -1.20 -0.70 -0.20 -1.60 -0.65 -2 -1 -0.45 -0.40 -2.50 -0.70 -4.80 -0.85 -2.90 -0.10 -4.40 -0.40 -5 -0.95 -0.55 -0.45 -1.50 -1 -2.20 -1.20 -0.70 -0.20 -1.60 -0.65 -2 -1 -0.45 -0.40 -2.65 -0.70 -5.80 -0.85 -3.80 -0.10 -5.35 -0.35 -6 -0.95 -0.55 -0.45 -1.90 -0.95 -3.10 -1.10 -1.20 -0.15 -2.55 -0.60 -3 -1 -0.65 -0.55 -2.40 -0.80 -6.90 -0.95 -4.80 -0.10 -6.30 -0.35 -7 -0.95 -0.70 -0.60 -2.15 -0.90 -5 -1.05 -3 -0.10 -4.35 -0.40 -5.05 -1.05 -0.90 -0.80 -4 -0.85 -48.85 -0.85 -47.15 0 -47.90 0 -49.15 1 -0.95 0.70 -2.05 1 -4 1 -2 0 -3.10 0.30 -4 1 -0.95 0.70 -2.05 1 -4 1 -2 0 -3.10 0.30 -4 1 -0.70 0.55 -1.60 1 -2 1 -0.40 0 -1.30 0.45 -2 1 -0.70 0.55 -2 1 -2.85 1 -0.85 0 -2.20 0.45 -3.05 1 -0.80 0.55 -1.80 1 -2.10 1 -0.35 0 -1.10 0.45 -1.65 1 -0.70 0.70 -1.65 1 -3.20 1 -1.25 0 -2.35 0.20 -2.55 0.50 -0.50 0.85 -6.25 3.50 -7.55 3.50 -0.70 0 -1.85 0.45 -2.55 1 -0.70 0.55 -1.60 1 -2 1 -0.40 0 -1.30 0.45 -2 1 -0.70 0.55 -1.70 1 -2.25 1 -0.55 0 -1.30 0.35 -1.75 0.75 -0.40 0.45 -1.40 0.95 -2.20 1.10 -0.80 0.15 -1.45 0.45 -1.45 0.65 0 0.55 -2.40 1.50 -3.75 1.50 -0.70 0 -1.95 0.45 -2.85 1 -0.90 0.55 -1.95 1 -2.30 1 -0.40 0 -1.25 0.45 -1.95 1 -0.70 0.55 -1.95 1 -2.75 1 -1 0 -2.35 0.70 -4 2 -1.65 1.30 -3.05 2 -4 2 -1.05 0 -1.55 0.30 -1.90 1.20 -0.50 1.40 -2.70 3.05 -3.40 2.60 -0.25 -0.15 -0.50 0.55 -0.50 1.60 0 1.05 -0.10 2.20 -0.20 2.60 -0.10 0.35 0.35 0.80 0.95 0.95 1.65 0.45 3.15 1.90 3.15 3.05 0 0.65 0.35 1 0.95 1 0.50 0 2.35 1.35 4.10 3 1.75 1.65 3.65 3 4.25 3 0.55 0 1.45 0.45 1.95 1 0.50 0.55 1.40 1 2 1 0.60 0 1.50 0.45 2 1 0.50 0.55 1.30 1 1.75 1 0.45 0 1.30 0.45 1.90 1 0.70 0.70 1.75 1 3.25 1 1.85 0 2.40 0.25 4.10 2 1.25 1.30 2.40 2 3.25 2 0.70 0 1.50 0.40 1.90 1 0.35 0.55 1.15 1 1.80 1 0.60 0 1.55 0.45 2.05 1 0.80 0.85 1.55 1 5.75 1 4.10 0 4.95 0.15 5.90 1 0.80 0.75 1.75 1 4 1 2.20 0 3.15 0.25 4 1 0.70 0.65 1.75 1 3.05 1 1.65 0 2.40 0.35 4.10 2 l 2.10 2 12.80 0 c 11.95 0 12.90 0.10 14.05 1 1.20 0.95 2.45 1 59.10 1 56.55 0 57.90 0 58.40 -0.95 z  m -287.95 -13.85 c 0.50 -0.45 1.85 -0.90 3.05 -1.05 1.20 -0.15 2.55 -0.65 3.10 -1.10 0.70 -0.60 2.25 -0.85 7 -0.95 4.50 -0.15 6.25 -0.40 6.90 -0.95 0.45 -0.40 1.80 -0.85 3 -1 1.20 -0.15 2.55 -0.65 3.10 -1.10 0.60 -0.55 2.15 -0.85 5 -0.95 2.30 -0.15 4.35 -0.45 4.80 -0.85 0.40 -0.35 1.30 -0.80 2 -1 0.70 -0.20 1.65 -0.75 2.20 -1.20 0.65 -0.55 2.10 -0.85 5 -0.95 3.85 -0.20 4.15 -0.30 5.90 -1.95 1.35 -1.35 2.35 -1.80 4.10 -2 1.25 -0.15 2.50 -0.55 2.80 -0.85 0.65 -0.85 -0.95 -4.20 -2.25 -4.60 -0.55 -0.20 -2.40 -1.65 -4.15 -3.25 -1.70 -1.65 -3.50 -2.95 -4 -2.95 -0.45 0 -2.05 -1.20 -3.60 -2.70 -1.50 -1.45 -3.40 -2.90 -4.25 -3.15 -0.95 -0.30 -1.80 -1.05 -2.25 -2.05 -0.40 -0.85 -1.20 -1.75 -1.75 -1.90 -0.55 -0.20 -1.35 -0.60 -1.75 -0.95 -0.40 -0.35 -1.30 -0.80 -2 -1 -0.70 -0.20 -1.60 -0.65 -2 -1 -0.40 -0.35 -1.30 -0.80 -2 -1 -0.70 -0.20 -1.60 -0.65 -2 -1 -0.40 -0.35 -1.30 -0.80 -2 -1 -0.70 -0.20 -1.60 -0.65 -2 -1 -0.40 -0.35 -2.15 -0.75 -3.85 -0.85 -1.85 -0.10 -3.50 -0.55 -4 -1 -0.55 -0.45 -2.15 -0.85 -4 -1 -1.95 -0.15 -3.45 -0.50 -4.05 -1.05 -0.85 -0.75 -2.80 -0.85 -19.80 -0.85 -18.15 0 -18.95 0.05 -20.15 1 -0.70 0.55 -1.60 1 -2 1 -0.40 0 -1.30 0.45 -2 1 -0.75 0.60 -2.05 1 -3.15 1 -1.55 0 -2.20 0.35 -3.40 1.75 -0.85 0.95 -2.15 1.85 -2.95 2.05 -0.75 0.20 -1.95 0.75 -2.60 1.30 -0.65 0.50 -1.50 0.90 -1.85 0.90 -0.40 0 -0.70 0.45 -0.70 1.05 0 0.55 -0.90 1.95 -2 3.05 -1.10 1.15 -2 2.40 -2 2.80 0 0.35 -0.45 1.25 -1 1.95 -0.55 0.70 -1 1.60 -1 2 0 0.40 -0.45 1.30 -1 2 -0.85 1.10 -1 2.05 -1 6 0 3.65 0.15 4.75 0.75 4.95 0.65 0.25 1.40 1.75 1.45 2.95 0.10 0.95 5.75 6.25 6.70 6.25 0.50 0 1.35 0.45 1.85 1 0.70 0.80 1.55 1 4 1 2.35 0 3.30 0.20 4.15 1 0.60 0.55 1.50 1 2 1 0.50 0 1.35 0.45 1.90 0.95 0.90 0.95 1.80 1 18.90 1 15.75 0.05 18.10 -0.05 18.85 -0.75 z  m 472.65 -9 c 0.40 -0.55 1.70 -0.90 4.10 -1.10 2 -0.15 3.65 -0.55 3.95 -0.90 0.30 -0.40 1.65 -0.85 3 -1.05 1.40 -0.15 2.75 -0.60 3 -1 0.30 -0.35 1.65 -0.80 3 -0.95 1.40 -0.20 2.65 -0.65 2.90 -1 0.20 -0.35 1.20 -0.75 2.30 -0.95 1.30 -0.20 2.25 -0.75 3 -1.80 0.60 -0.80 1.50 -1.45 2.05 -1.45 0.55 0 1 -0.30 1 -0.70 0 -1.10 2 -3.30 3.05 -3.30 0.50 0 0.95 -0.35 0.95 -0.75 0 -0.45 0.55 -1.35 1.25 -2 0.65 -0.70 1.35 -2.05 1.55 -3 0.15 -0.95 0.50 -1.90 0.75 -2.05 0.25 -0.15 0.45 -3.10 0.45 -6.60 0 -5.55 -0.15 -6.50 -1 -7.60 -0.55 -0.70 -1 -1.60 -1 -2 0 -0.40 -0.45 -1.30 -1 -2 -0.55 -0.70 -1 -1.60 -1 -2.05 0 -0.50 -0.55 -1 -1.25 -1.15 -0.70 -0.20 -1.90 -1 -2.70 -1.80 -0.85 -0.90 -2.70 -1.95 -4.45 -2.55 -1.65 -0.55 -3.30 -1.35 -3.65 -1.75 -0.30 -0.40 -0.95 -0.70 -1.45 -0.70 -0.45 0 -1.45 -0.45 -2.15 -1 -0.70 -0.55 -2 -1 -3 -1 -0.95 0 -2.25 -0.45 -2.90 -0.95 -1.50 -1.15 -4.65 -1.50 -16.85 -1.85 -8.65 -0.25 -9.20 -0.20 -10.40 0.75 -0.75 0.60 -2.05 1.05 -3.05 1.05 -1 0 -2.30 0.45 -3 1 -0.95 0.75 -2.05 1 -4.05 1 -1.90 0 -3.05 0.25 -3.70 0.85 -0.50 0.45 -1.35 0.85 -1.85 0.90 -0.50 0 -1.55 0.55 -2.35 1.20 -0.95 0.75 -1.95 1.05 -3 0.95 -1.30 -0.10 -2.05 0.30 -3.95 2.05 -1.90 1.75 -2.60 2.10 -4 2 -1.35 -0.15 -2.05 0.20 -3.95 1.95 -1.80 1.65 -2.65 2.10 -4.10 2.10 -1.45 0 -2.30 0.45 -4.05 2.05 -2 1.85 -2.45 2.05 -4.40 1.85 l -2.15 -0.15 2.05 2.25 c 1.15 1.25 2.20 2.35 2.40 2.50 1.25 0.95 4.15 9.15 4.65 13.05 0.20 1.90 0.65 2.75 2.50 4.55 2.90 2.95 4.45 3.90 6.20 3.90 0.80 0 2.05 0.45 2.75 1 0.90 0.70 2 1 4 1 1.95 0 3.05 0.30 4 1 0.70 0.55 1.60 1 2 1 0.40 0 1.30 0.45 2 1 0.90 0.70 2 1 4 1 1.95 0 3.05 0.30 4 1 0.90 0.70 2 1 4 1 2 0 3.05 0.25 3.90 1 1.05 0.85 2 0.95 8.15 1 5.80 0 7.05 -0.15 7.50 -0.80 z "/>
  <path d="M 647.90 118 c -0.80 -0.50 -3.90 -6.15 -3.90 -7.15 0 -0.25 -0.45 -1 -1 -1.70 -0.55 -0.75 -1 -2.05 -1 -3 0 -1 -0.45 -2.30 -1 -3 -0.60 -0.75 -1 -2.05 -1 -3.15 0 -1.10 0.40 -2.40 1 -3.15 0.55 -0.70 1 -1.60 1 -2 0 -0.40 0.45 -1.30 1 -2 0.90 -1.15 1 -2 1 -9 0 -6.95 0.10 -7.85 1 -9 0.55 -0.70 1 -1.60 1 -2 0 -0.40 0.45 -1.30 1 -2 0.60 -0.75 1 -2 1 -3.10 0 -2 1.80 -4.25 3.40 -4.25 0.50 0 1.35 -0.45 1.90 -1.05 0.85 -0.95 1.35 -1.05 5.10 -0.85 4 0.20 4.20 0.30 6.10 2.15 l 2 1.95 0 10.30 0 10.25 -4 4.20 c -2.20 2.30 -4 4.35 -4 4.55 0 0.20 1.35 0.50 3.05 0.65 3.25 0.30 4.80 1.20 5.05 3 0.10 0.60 0.60 1.15 1.15 1.25 2.45 0.45 2.75 1.35 2.75 8.10 l 0 6.35 -2.25 2.10 -2.25 2.05 -8.60 0 c -4.75 0 -9.05 -0.25 -9.50 -0.50 z  m 15.20 -7.35 c 0.55 -0.50 0.90 -1.50 0.90 -2.65 0 -1.45 -0.40 -2.20 -1.90 -3.65 l -1.90 -1.85 -5.85 0.05 c -3.20 0.05 -5.85 0.25 -5.85 0.45 0 0.20 0.45 0.95 1 1.60 0.55 0.70 1 2.05 1.10 2.95 0.05 0.95 0.40 2.20 0.80 2.85 0.65 1 1.05 1.10 5.75 1.10 3.95 0 5.20 -0.15 5.95 -0.85 z  m -11.05 -19.85 c 0.50 -1.80 1.85 -3.30 3.05 -3.30 0.50 0 0.90 -0.35 0.90 -0.75 0 -0.45 0.90 -1.75 2 -2.95 l 2 -2.15 0 -5.65 c 0 -4.55 -0.15 -5.85 -0.80 -6.55 -0.80 -0.90 -0.90 -0.90 -2.10 0.05 -0.65 0.55 -1.55 1 -1.90 1 -0.40 0 -0.70 0.40 -0.70 0.95 0 0.50 -0.45 1.50 -1 2.20 -0.55 0.70 -1 1.55 -1 1.95 0 0.35 -0.45 1.35 -1 2.15 -0.85 1.30 -1 2.35 -1 8.15 0 4.95 0.15 6.65 0.60 6.50 0.35 -0.15 0.75 -0.85 0.95 -1.60 z "/>
  <path d="M 16.85 112.20 c -0.15 -0.20 -2.15 -0.50 -4.45 -0.75 l -4.15 -0.40 -3.60 -3.90 -3.65 -3.90 -0.05 -6.75 c -0.10 -7.85 -0.05 -8 0.80 -9 0.35 -0.40 0.75 -1.70 0.90 -2.90 0.15 -1.20 0.60 -2.55 1 -3 0.40 -0.45 0.90 -1.40 1.10 -2.05 0.20 -0.65 4.60 -5.45 9.80 -10.75 5.20 -5.25 9.45 -9.90 9.45 -10.35 0 -0.95 1.35 -2.20 2.90 -2.65 0.60 -0.20 1.10 -0.75 1.10 -1.25 0 -0.50 0.45 -1.30 1.05 -1.85 0.95 -0.85 2.05 -0.95 10.15 -1.10 8.60 -0.15 9.10 -0.10 10.15 0.90 0.65 0.55 1.15 1.40 1.15 1.80 0 0.40 0.45 1.40 1.05 2.15 0.95 1.30 1.05 2.05 1 7.60 -0.10 4.90 -0.30 6.45 -0.95 7.45 -0.45 0.70 -0.95 2.15 -1.10 3.25 -0.20 1.55 -0.60 2.20 -1.95 3.10 -0.95 0.65 -1.95 1.65 -2.25 2.30 -0.30 0.60 -1.35 1.50 -2.30 1.95 -2.20 1.10 -8.10 6.80 -7.70 7.45 0.50 0.85 0.30 10.35 -0.25 11.40 -0.30 0.55 -0.55 1.70 -0.55 2.55 0 1.85 -3.90 6.35 -5.95 6.85 -0.70 0.15 -1.85 0.70 -2.50 1.25 -0.95 0.70 -2.05 0.90 -5.55 0.90 -2.40 0 -4.45 -0.15 -4.65 -0.30 z  m 2.95 -8.70 c 0.30 -0.30 1.70 -0.65 3.10 -0.85 1.45 -0.15 2.60 -0.50 2.60 -0.75 0 -0.25 0.55 -0.65 1.20 -0.90 1.45 -0.55 2.15 -3.90 1 -4.80 -0.40 -0.30 -0.70 -0.80 -0.70 -1.15 0 -0.35 -1.80 -0.55 -5.75 -0.55 -4.80 0 -5.75 -0.15 -5.75 -0.75 0 -0.50 -0.55 -0.75 -1.75 -0.75 -1.65 0 -1.75 -0.10 -1.75 -1.60 0 -1.75 1.20 -3.40 2.50 -3.40 0.45 0 1.45 -0.65 2.20 -1.45 0.75 -0.80 2.05 -1.60 2.90 -1.75 0.85 -0.15 1.80 -0.65 2.15 -1.10 0.35 -0.55 1.65 -0.90 4.05 -1.05 2.15 -0.20 3.60 -0.55 3.85 -0.95 0.20 -0.40 0.95 -0.70 1.60 -0.70 0.80 0 2.70 -1.55 6.45 -5.25 l 5.25 -5.25 -0.20 -3.85 c -0.20 -3.50 -0.40 -4 -1.85 -5.50 -0.90 -0.90 -1.95 -1.65 -2.40 -1.65 -1.75 0 -6.75 3.20 -9.75 6.25 -1.80 1.80 -3.45 3.25 -3.75 3.25 -0.30 0 -1.20 1.10 -2 2.40 -0.80 1.35 -2.05 2.70 -2.75 3.10 -0.75 0.40 -1.35 1.25 -1.55 2.30 -0.15 0.85 -1.15 2.55 -2.25 3.70 -1.05 1.15 -1.95 2.40 -1.95 2.85 0 0.40 -0.45 1.30 -1 2 -0.55 0.70 -1 1.60 -1 2 0 0.40 -0.45 1.30 -1 2 -0.85 1.10 -1 2.05 -1 6.40 0 6.70 0.60 7.60 5.15 7.90 1.70 0.10 3.20 0.20 3.40 0.25 0.15 0.05 0.50 -0.15 0.75 -0.40 z "/>
  <path d="M 178.05 82.90 c -4.65 -4.45 -6.60 -6.75 -6.75 -7.95 -0.10 -0.60 -3.50 -3.70 -4.60 -4.20 -1.25 -0.55 -10.70 -9.65 -11.85 -11.40 -0.45 -0.70 -0.55 -1.60 -0.35 -2.40 0.45 -1.55 11.10 -12.45 12.20 -12.45 0.45 0 1.25 -0.70 1.90 -1.50 0.60 -0.85 1.35 -1.50 1.70 -1.50 0.35 0 0.85 -0.70 1.15 -1.60 0.30 -0.90 2.90 -3.90 6.05 -7 7.30 -7.15 6.85 -7.15 14.35 0.25 3.65 3.55 5.80 6.10 6 6.95 0.15 0.75 0.70 1.50 1.25 1.70 0.50 0.15 1.20 0.85 1.50 1.50 0.30 0.65 1 1.20 1.50 1.20 0.55 0 2.40 1.35 4.15 3.05 1.75 1.65 3.80 3.20 4.55 3.40 0.80 0.20 1.70 0.90 2.05 1.60 0.30 0.65 0.95 2 1.45 3 0.75 1.55 0.75 2.05 0.25 3.35 -0.90 2.15 -11.15 12.10 -12.50 12.10 -0.65 0 -1.30 0.45 -1.60 1.20 -0.30 0.65 -1.15 1.45 -1.80 1.75 -0.70 0.35 -1.15 0.70 -1 0.90 0.65 0.65 -1.30 3.15 -6.30 8.05 -4.05 4 -5.50 5.10 -6.60 5.10 -1.05 0 -2.55 -1.15 -6.70 -5.10 z "/>
  <path d="M 332.25 46.05 c -0.55 -0.25 -2.20 -1.70 -3.60 -3.20 -2.65 -2.75 -2.65 -2.80 -2.65 -6 0 -2.55 0.20 -3.35 1 -4.10 0.85 -0.75 1 -1.55 1 -4.95 l 0 -4.05 4 -4 4 -4 4.15 -0.15 c 3.60 -0.15 4.25 -0.05 5.20 0.85 0.75 0.70 1.75 1.05 3.05 1.05 1.20 0 2.30 0.35 3 1 0.70 0.65 1.75 1 3 1 1.70 0 2.40 0.40 5.55 3.35 2 1.85 3.85 3.80 4.15 4.35 0.30 0.55 0.50 2.70 0.45 4.75 -0.10 3.25 0.05 3.90 0.95 4.65 0.55 0.50 1 1.35 1 1.90 0 0.60 0.35 1 0.90 1 1.40 0.05 2.65 1.30 3.10 3.20 0.45 2.05 0.30 2.30 -1.55 2.30 -0.75 0 -1.60 0.35 -1.85 0.80 -0.85 1.50 -3.30 0.35 -6.80 -3.20 -1.80 -1.85 -3.60 -3.80 -4 -4.35 -0.70 -0.85 -0.85 -0.90 -1.30 -0.25 -0.25 0.40 -0.50 1.15 -0.50 1.60 0 1.25 -2.40 2.90 -4.20 2.90 -1.10 0 -2.30 0.60 -4 2 l -2.40 2 -5.35 -0.05 c -2.90 0 -5.75 -0.20 -6.30 -0.40 z  M349.45 30.95 C 349.45 26.50 345.85 22.85 341.35 22.85 336.90 22.85 333.25 26.50 333.25 30.95 333.25 35.45 336.90 39.05 341.35 39.05 345.85 39.05 349.45 35.45 349.45 30.95 Z M340.95 38.80 "/>
 </g>
 <g fill="#ffffff">
  <path d="M 0 100 l 0 -100 338.50 0 338.50 0 0 100 0 100 -338.50 0 -338.50 0 0 -100 z  m 529.25 83 l 0 -3.25 -12.35 -0.15 c -6.85 -0.05 -12.40 -0.30 -12.40 -0.55 0 -0.20 0.45 -1 1 -1.70 0.55 -0.70 1 -2 1 -2.95 0 -1.25 0.50 -2.25 2 -3.90 1.10 -1.20 2 -2.60 2 -3.05 0 -0.45 0.55 -0.95 1.20 -1.15 0.65 -0.15 2.45 -1.50 4 -3 3.10 -2.95 3.55 -4.60 1.80 -6.80 -0.55 -0.70 -1 -1.60 -1 -2.05 0 -0.45 -0.45 -1.20 -1.05 -1.75 -0.95 -0.85 -2.10 -0.95 -13.20 -1.10 l -12.15 -0.15 -1.05 1.35 c -0.85 1.10 -1.05 2 -1.05 5.20 0 3.65 0.10 4 1.65 5.90 1.65 2.10 3.40 2.85 6.15 2.50 1.40 -0.15 1.45 -0.25 1.60 -3.25 0.15 -2.70 0 -3.15 -1 -3.85 -1.05 -0.75 -0.65 -0.80 5.80 -0.80 l 6.95 0 -3.55 3.70 c -2 2.05 -3.60 4.10 -3.60 4.55 0 0.45 -0.45 1.40 -1 2.10 -0.55 0.70 -1 1.60 -1 2 0 0.40 -0.45 1.30 -1 2 -0.85 1.10 -1 2.05 -1 5.95 0 4.85 0.55 7 1.95 7.35 0.45 0.15 7.20 0.20 15.05 0.15 l 14.25 -0.05 0 -3.25 z  m -338.75 -21.30 c -0.05 -12.15 0.05 -13.10 0.95 -14.25 0.50 -0.70 1.05 -1.90 1.10 -2.70 0.20 -1.35 0.05 -1.50 -1.30 -1.65 -0.80 -0.10 -1.70 -0.50 -1.90 -0.90 -0.70 -1.20 -3.15 -0.85 -4.30 0.60 -1 1.30 -1.05 1.90 -1.05 16.80 l 0 15.45 3.30 -0.15 3.25 -0.15 -0.05 -13.05 z  m 186.75 -0.20 c 1.30 -0.85 2.35 -1 8 -1 5.60 0 6.70 -0.15 8.15 -1 1.40 -0.85 2.50 -1 8 -1 5.50 0 6.55 -0.15 7.85 -1 1 -0.65 2.35 -1 4 -1 1.65 0 3 -0.35 4 -1 1 -0.65 2.35 -1 4 -1 1.60 0 3 -0.35 3.95 -0.95 1.20 -0.80 2.45 -0.95 6.95 -1 4.55 -0.05 5.80 -0.25 7.10 -1.05 1.20 -0.75 2.50 -1 4.90 -1 4 0 5.65 -0.65 6.30 -2.55 0.25 -0.80 0.85 -1.45 1.25 -1.45 0.40 0 1.45 -0.70 2.35 -1.55 1.85 -1.85 3.40 -2.45 5.95 -2.45 1.50 0 2.40 -0.40 3.75 -1.55 l 1.80 -1.60 4.85 2.05 c 6.50 2.70 7.20 2.90 14.60 3.70 8.45 0.85 18.55 -0.45 24.50 -3.20 1.25 -0.55 3.70 -1.55 5.45 -2.20 2.80 -1 3.85 -1.80 7.45 -5.55 2.35 -2.45 4.90 -5.50 5.75 -6.85 1.45 -2.30 1.60 -2.40 3.30 -2.10 1 0.15 2.05 0.60 2.30 0.95 0.30 0.40 1.25 0.90 2.15 1.05 0.85 0.20 1.75 0.70 2 1.10 0.20 0.35 1.50 0.85 2.85 1 1.40 0.20 2.75 0.65 3.05 1 0.30 0.40 1.65 0.85 3 1 1.35 0.20 2.70 0.65 3 1.05 0.35 0.40 2.10 0.85 4.20 1.10 1.95 0.20 3.75 0.60 3.90 0.90 0.75 1.25 6.20 1.80 18.80 2 12.45 0.20 13.05 0.15 14.35 -0.85 1.25 -0.85 2.15 -1 7.20 -1 l 5.75 0 2.20 -2 c 1.20 -1.10 2.50 -2 2.95 -2 0.45 0 1.60 -0.65 2.50 -1.50 1.25 -1.10 2.25 -1.50 3.60 -1.50 1.70 0 2.35 -0.45 6.85 -4.85 2.70 -2.70 5.10 -5.45 5.25 -6.15 0.15 -0.70 0.70 -1.80 1.20 -2.50 0.50 -0.70 1.35 -2.75 1.95 -4.60 0.95 -3 1.05 -4.25 0.90 -13.30 -0.15 -8.40 -0.30 -10.15 -0.95 -10.90 -0.45 -0.55 -1 -1.50 -1.20 -2.20 -0.20 -0.70 -0.65 -1.60 -1 -2 -0.40 -0.40 -0.80 -1.35 -1 -2.10 -0.20 -0.75 -1.15 -1.95 -2.15 -2.75 -1.05 -0.75 -2.15 -1.75 -2.50 -2.25 -0.35 -0.50 -1.05 -0.90 -1.50 -0.90 -0.45 0 -1.40 -0.45 -2.10 -1 -0.70 -0.55 -1.60 -1 -2 -1 -0.45 0 -1.55 -0.65 -2.50 -1.50 -0.95 -0.80 -2.10 -1.45 -2.55 -1.50 -0.45 0 -1.40 -0.45 -2.10 -1 -0.70 -0.55 -1.60 -1 -2 -1 -0.40 0 -1.35 -0.50 -2.10 -1.10 -1.75 -1.35 -8 -1.90 -25.65 -2.25 -12.10 -0.20 -12.70 -0.15 -14.05 0.85 -1.25 0.85 -2.20 1 -7.25 1 -5.15 0 -5.90 0.10 -6.80 1 -0.80 0.80 -1.65 1 -4 1 -2.35 0 -3.20 0.20 -4 1 -0.80 0.80 -1.65 1 -4 1 -2.35 0 -3.20 0.20 -4 1 -0.80 0.80 -1.65 1 -4.05 1 -2.85 0 -3.15 0.10 -4.95 1.95 -1.10 1.10 -2.60 2.10 -3.35 2.25 -3.05 0.70 -6.15 5.75 -4.65 7.55 0.45 0.50 0.45 0.75 0.05 0.75 -0.30 0 -0.65 0.55 -0.85 1.25 -0.40 1.55 -0.75 1.55 -2.55 0.10 -2.70 -2.20 -7.75 -4.15 -13.85 -5.40 -6.60 -1.35 -16.50 -1.45 -22.10 -0.20 -6.35 1.40 -13.35 4.60 -18.30 8.40 l -1.90 1.45 0 -2.55 c 0 -1.80 -0.20 -2.55 -0.65 -2.55 -0.40 0 -1.10 -0.45 -1.60 -1 -0.50 -0.55 -1.35 -1 -1.85 -1 -0.50 0 -1.40 -0.45 -2 -1 -0.95 -0.85 -1.80 -1 -6 -1 -4.25 0 -5.10 -0.15 -6 -1 -0.60 -0.55 -1.50 -1 -2 -1 -0.50 0 -1.40 -0.45 -2 -1 -0.95 -0.85 -1.80 -1 -6 -1 -4.25 0 -5.10 -0.15 -6 -1 -0.60 -0.55 -1.50 -1 -2 -1 -0.50 0 -1.40 -0.45 -2 -1 -0.95 -0.90 -1.80 -1 -7 -1 -5.25 0 -6.05 -0.10 -7 -1 -0.90 -0.85 -1.80 -1 -5.15 -1 -3.45 0 -4.25 -0.15 -5 -1 -0.85 -0.95 -1.55 -1 -12.85 -1 -11.30 0 -12 -0.05 -13.05 -1 -1.05 -1 -1.55 -1 -32.15 -0.90 -28.55 0.15 -31.15 0.20 -32.05 1 -0.85 0.80 -2.80 0.90 -20 1 -16.70 0.15 -19.15 0.25 -19.95 0.95 -0.55 0.45 -1.90 0.95 -3.10 1.10 -1.20 0.15 -2.55 0.60 -3.05 1.05 -0.55 0.50 -1.80 0.80 -3.20 0.80 -2.80 0 -4.15 0.50 -6.05 2.30 -1.30 1.25 -1.90 1.40 -5.50 1.55 -6.80 0.25 -8.30 0.50 -9.30 1.40 -0.55 0.50 -1 1.30 -1 1.80 0 0.50 -0.50 1.05 -1.10 1.25 -0.65 0.15 -1.50 0.60 -1.90 0.95 -0.40 0.35 -1.30 0.80 -2 1 -0.70 0.20 -1.60 0.65 -2 1 -0.40 0.35 -1.50 0.80 -2.35 1 -0.90 0.15 -1.65 0.55 -1.65 0.75 0 0.25 -0.90 0.75 -2 1.05 -1.10 0.35 -2 0.80 -2 1 0 0.20 -0.85 0.65 -1.85 1 -2.50 0.80 -5.80 2.45 -6.25 3.10 -0.15 0.30 -1.80 0.70 -3.65 0.90 -1.80 0.15 -3.65 0.65 -4.15 1.10 -0.45 0.40 -1.40 0.90 -2.10 1.10 -0.70 0.20 -1.60 0.65 -2 1 -0.40 0.35 -1.50 0.80 -2.35 1 -0.90 0.15 -1.65 0.50 -1.65 0.75 0 0.20 -0.75 0.65 -1.60 1 -0.90 0.40 -2 0.95 -2.40 1.25 -0.40 0.35 -1.75 0.75 -2.95 0.90 -1.60 0.20 -2.65 0.75 -4 2.05 -1 0.95 -2.40 1.90 -3.15 2.05 -2.10 0.55 -3.05 1.90 -2.80 4.10 0.30 2.15 -0.35 4.35 -1.10 3.90 -0.25 -0.15 -0.50 -0.75 -0.50 -1.25 0 -1.20 -1.90 -3 -3.10 -3 -0.50 0 -1.85 -0.90 -2.95 -2 -1.10 -1.10 -2.45 -2 -3 -2 -0.55 0 -2.70 -1.75 -5 -4 -2.20 -2.20 -4.40 -4 -4.90 -4 -0.50 0 -1.85 -0.90 -3 -2 -1.15 -1.10 -2.55 -2 -3.10 -2 -0.55 0 -1.90 -0.90 -3 -2 -1.10 -1.10 -2.45 -2 -3 -2 -0.55 0 -1.45 -0.45 -2.05 -1 -0.60 -0.55 -1.55 -1 -2.15 -1 -0.60 0 -1.50 -0.45 -2 -1 -0.70 -0.80 -1.55 -1 -4 -1 -2.45 0 -3.30 -0.20 -4 -1 -0.70 -0.80 -1.55 -1 -3.85 -1 -2.25 0 -3.20 -0.25 -4.05 -1 -1.05 -1 -1.55 -1.05 -24.15 -0.90 -20.50 0.15 -23.20 0.25 -24 0.95 -0.55 0.45 -1.50 1 -2.20 1.20 -0.70 0.20 -1.60 0.65 -2 1 -0.40 0.35 -1.75 0.75 -2.95 0.90 -1.60 0.20 -2.65 0.75 -4 2.05 -1 0.95 -2.40 1.90 -3.10 2.05 -1.70 0.40 -6.95 5.55 -6.95 6.75 0 0.55 -0.50 1.10 -1.10 1.30 -1.70 0.50 -2.90 1.70 -2.90 2.95 0 0.60 -0.45 1.50 -1 2 -0.55 0.50 -1 1.40 -1 2 0 0.60 -0.45 1.50 -1 2 -0.95 0.85 -1 1.55 -1 10 0 8.35 0.10 9.20 1 10.40 0.55 0.70 1 1.65 1 2.10 0 1.10 5.45 6.75 6.50 6.75 0.50 0 1.95 0.95 3.25 2.10 2.15 1.90 2.70 2.10 5.45 2.30 1.70 0.10 3.40 0.55 3.90 0.95 0.45 0.40 1.80 0.85 3 1 1.20 0.15 2.55 0.65 3.10 1.10 0.80 0.70 3.40 0.80 21.70 0.95 20.25 0.15 20.85 0.10 22.20 -0.90 0.75 -0.55 2.15 -1 3.05 -1 0.95 0 2.30 -0.45 3 -1 1.05 -0.85 2 -1 5.95 -1 3.75 0 4.95 -0.20 6.30 -1 1.05 -0.65 2.50 -1 4.05 -1 1.65 0 2.80 -0.30 3.70 -1 1 -0.80 2 -1 5 -1 2.95 0 3.95 -0.20 5 -1 0.70 -0.55 1.60 -1 2 -1 0.40 0 1.30 -0.45 2 -1 1 -0.80 2 -1 5.05 -1 3.75 0 3.85 -0.05 5.95 -1.95 1.65 -1.50 2.60 -1.95 4.45 -2.15 1.90 -0.20 2.60 -0.60 3.90 -2.10 1.35 -1.50 1.95 -1.80 3.55 -1.80 1.45 0 1.95 0.20 1.95 0.75 0 1.55 2.35 3.25 4.40 3.25 1.50 0 2.25 0.35 3.55 1.70 0.90 0.95 2.25 1.85 2.95 2.05 0.70 0.15 1.60 0.75 2 1.30 0.35 0.55 1.25 0.95 2 0.95 0.80 0 1.60 0.40 2 1 0.35 0.55 1.10 1 1.75 1 0.80 0 1.30 0.45 1.70 1.50 0.65 1.75 2.30 2.50 5.40 2.50 1.85 0 2.55 0.30 4.50 2 1.55 1.35 2.80 2 3.80 2 0.80 0 2.30 0.45 3.30 1 1.05 0.55 2.10 1 2.40 1 0.30 0 0.80 0.45 1.15 1 0.35 0.60 1.15 1 2.05 1 0.80 0 1.70 0.30 2 0.70 0.35 0.40 1.20 0.85 1.95 1.05 0.75 0.20 1.75 0.65 2.20 1.10 0.45 0.40 1.90 0.90 3.10 1 1.25 0.15 2.55 0.60 2.85 0.95 0.30 0.40 0.90 0.70 1.30 0.70 0.40 0 1.40 0.45 2.20 1.05 0.85 0.60 2.45 1.15 3.60 1.30 1.15 0.15 2.45 0.55 2.85 0.90 0.40 0.35 1.30 0.80 2 1 0.70 0.20 1.65 0.75 2.20 1.20 0.65 0.60 2.20 0.85 6 0.95 3.75 0.15 5.30 0.40 5.95 1 0.55 0.45 2.10 0.85 4 1 1.70 0.10 3.45 0.50 3.85 0.85 0.40 0.35 1.10 0.75 1.50 0.90 0.40 0.15 23.35 0.30 51 0.30 49.35 0.05 50.30 0.05 51.75 -0.95 z  m 291 -45.05 l 2.25 -2.10 0 -6.35 c 0 -6.75 -0.30 -7.65 -2.75 -8.10 -0.55 -0.10 -1.05 -0.65 -1.15 -1.25 -0.25 -1.80 -1.80 -2.70 -5.05 -3 -1.70 -0.15 -3.05 -0.45 -3.05 -0.65 0 -0.20 1.80 -2.25 4 -4.55 l 4 -4.20 0 -10.25 0 -10.30 -2 -1.95 c -1.90 -1.85 -2.10 -1.95 -6.10 -2.15 -3.75 -0.20 -4.25 -0.10 -5.10 0.85 -0.55 0.60 -1.40 1.05 -1.90 1.05 -1.60 0 -3.40 2.25 -3.40 4.25 0 1.10 -0.40 2.35 -1 3.10 -0.55 0.70 -1 1.60 -1 2 0 0.40 -0.45 1.30 -1 2 -0.90 1.15 -1 2.05 -1 9 0 7 -0.10 7.85 -1 9 -0.55 0.70 -1 1.60 -1 2 0 0.40 -0.45 1.30 -1 2 -0.60 0.75 -1 2.05 -1 3.15 0 1.10 0.40 2.40 1 3.15 0.55 0.70 1 2 1 3 0 0.95 0.45 2.25 1 3 0.55 0.70 1 1.45 1 1.70 0 1 3.10 6.65 3.90 7.15 0.45 0.25 4.75 0.50 9.50 0.50 l 8.60 0 2.25 -2.05 z  m -641.20 -4.85 c 0.65 -0.55 1.80 -1.10 2.50 -1.25 2.05 -0.50 5.95 -5 5.95 -6.85 0 -0.85 0.25 -2 0.55 -2.55 0.55 -1.05 0.75 -10.55 0.25 -11.40 -0.40 -0.65 5.50 -6.35 7.70 -7.45 0.95 -0.45 2 -1.35 2.30 -1.95 0.30 -0.65 1.30 -1.65 2.25 -2.30 1.35 -0.90 1.75 -1.55 1.95 -3.10 0.15 -1.10 0.65 -2.55 1.10 -3.25 0.65 -1 0.85 -2.55 0.95 -7.45 0.05 -5.55 -0.05 -6.30 -1 -7.60 -0.60 -0.75 -1.05 -1.75 -1.05 -2.15 0 -0.40 -0.50 -1.25 -1.15 -1.80 -1.05 -1 -1.55 -1.05 -10.15 -0.90 -8.10 0.15 -9.20 0.25 -10.15 1.10 -0.60 0.55 -1.05 1.35 -1.05 1.85 0 0.50 -0.50 1.05 -1.10 1.25 -1.55 0.45 -2.90 1.70 -2.90 2.65 0 0.45 -4.25 5.10 -9.45 10.35 -5.20 5.30 -9.60 10.10 -9.80 10.75 -0.20 0.65 -0.70 1.60 -1.10 2.05 -0.40 0.45 -0.85 1.80 -1 3 -0.15 1.20 -0.55 2.50 -0.90 2.90 -0.85 1 -0.90 1.15 -0.80 9 l 0.05 6.75 3.65 3.90 3.60 3.90 4.15 0.40 c 2.30 0.25 4.30 0.55 4.45 0.75 0.20 0.15 2.25 0.30 4.65 0.30 3.50 0 4.60 -0.20 5.55 -0.90 z  m 164.30 -28.70 c 5 -4.90 6.95 -7.40 6.30 -8.05 -0.15 -0.20 0.30 -0.55 1 -0.90 0.65 -0.30 1.50 -1.10 1.80 -1.75 0.30 -0.75 0.95 -1.20 1.60 -1.20 1.35 0 11.60 -9.95 12.50 -12.10 0.50 -1.30 0.50 -1.80 -0.25 -3.35 -0.50 -1 -1.15 -2.35 -1.45 -3 -0.35 -0.70 -1.25 -1.40 -2.05 -1.60 -0.75 -0.20 -2.80 -1.75 -4.55 -3.40 -1.75 -1.70 -3.60 -3.05 -4.15 -3.05 -0.50 0 -1.20 -0.55 -1.50 -1.20 -0.30 -0.65 -1 -1.35 -1.50 -1.50 -0.55 -0.20 -1.10 -0.95 -1.25 -1.70 -0.20 -0.85 -2.35 -3.40 -6 -6.95 -7.50 -7.40 -7.05 -7.40 -14.35 -0.25 -3.15 3.10 -5.75 6.10 -6.05 7 -0.30 0.90 -0.80 1.60 -1.15 1.60 -0.35 0 -1.10 0.65 -1.70 1.50 -0.65 0.80 -1.45 1.50 -1.90 1.50 -1.10 0 -11.75 10.90 -12.20 12.45 -0.20 0.80 -0.10 1.70 0.35 2.40 1.15 1.75 10.60 10.85 11.85 11.40 1.10 0.50 4.50 3.60 4.60 4.20 0.15 1.20 2.10 3.50 6.75 7.95 4.15 3.95 5.65 5.10 6.70 5.10 1.10 0 2.55 -1.10 6.60 -5.10 z  m 154.95 -38.40 c 1.70 -1.40 2.90 -2 4 -2 1.80 0 4.20 -1.65 4.20 -2.90 0 -0.45 0.25 -1.20 0.50 -1.60 0.45 -0.65 0.60 -0.60 1.30 0.25 0.40 0.55 2.20 2.50 4 4.35 3.50 3.55 5.95 4.70 6.80 3.20 0.25 -0.45 1.10 -0.80 1.85 -0.80 1.85 0 2 -0.25 1.55 -2.30 -0.45 -1.90 -1.70 -3.15 -3.10 -3.20 -0.55 0 -0.90 -0.40 -0.90 -1 0 -0.55 -0.45 -1.40 -1 -1.90 -0.90 -0.75 -1.05 -1.40 -0.95 -4.65 0.05 -2.05 -0.15 -4.20 -0.45 -4.75 -0.30 -0.55 -2.15 -2.50 -4.15 -4.35 -3.15 -2.95 -3.85 -3.35 -5.55 -3.35 -1.25 0 -2.30 -0.35 -3 -1 -0.70 -0.65 -1.80 -1 -3 -1 -1.30 0 -2.30 -0.35 -3.05 -1.05 -0.95 -0.90 -1.60 -1 -5.20 -0.85 l -4.15 0.15 -4 4 -4 4 0 4.05 c 0 3.40 -0.15 4.20 -1 4.95 -0.80 0.75 -1 1.55 -1 4.10 0 3.20 0 3.25 2.65 6 1.40 1.50 3.05 2.95 3.60 3.20 0.55 0.20 3.40 0.40 6.30 0.40 l 5.35 0.05 2.40 -2 z "/>
  <path d="M 285.50 148.50 c -1.15 -0.90 -2.10 -1 -14.05 -1 l -12.80 0 -2.10 -2 c -1.70 -1.65 -2.45 -2 -4.10 -2 -1.30 0 -2.35 -0.35 -3.05 -1 -0.85 -0.75 -1.80 -1 -4 -1 -2.25 0 -3.20 -0.25 -4 -1 -0.95 -0.85 -1.80 -1 -5.90 -1 -4.20 0 -4.95 -0.15 -5.75 -1 -0.50 -0.55 -1.45 -1 -2.05 -1 -0.65 0 -1.45 -0.45 -1.80 -1 -0.40 -0.60 -1.20 -1 -1.90 -1 -0.85 0 -2 -0.70 -3.25 -2 -1.70 -1.75 -2.25 -2 -4.10 -2 -1.50 0 -2.55 -0.30 -3.25 -1 -0.60 -0.55 -1.45 -1 -1.90 -1 -0.45 0 -1.25 -0.45 -1.75 -1 -0.50 -0.55 -1.40 -1 -2 -1 -0.60 0 -1.50 -0.45 -2 -1 -0.50 -0.55 -1.40 -1 -1.95 -1 -0.60 0 -2.50 -1.35 -4.25 -3 -1.75 -1.65 -3.60 -3 -4.10 -3 -0.60 0 -0.95 -0.35 -0.95 -1 0 -1.15 -1.50 -2.60 -3.15 -3.05 -0.60 -0.15 -1.05 -0.60 -0.95 -0.95 0.10 -0.40 0.20 -1.55 0.20 -2.60 0 -1.05 0.25 -1.75 0.50 -1.60 0.70 0.45 2.90 -1.20 3.40 -2.60 0.35 -0.90 0.85 -1.20 1.90 -1.20 0.95 0 2.35 -0.70 4 -2 1.65 -1.30 3 -2 4 -2 0.80 0 2.05 -0.45 2.75 -1 0.70 -0.55 1.55 -1 1.95 -1 0.35 0 1.40 -0.45 2.30 -1 0.90 -0.55 2.15 -1 2.85 -1 1.35 0 3.75 -0.95 3.75 -1.50 0 -0.20 0.65 -0.50 1.45 -0.65 0.80 -0.15 1.80 -0.65 2.20 -1.10 0.45 -0.40 1.20 -0.75 1.75 -0.75 0.55 0 1.55 -0.45 2.25 -1 0.70 -0.55 1.60 -1 2 -1 0.40 0 1.30 -0.45 2 -1 0.70 -0.55 1.85 -1 2.55 -1 1.30 0 7.05 -2.65 7.55 -3.50 0.20 -0.30 1.30 -0.50 2.55 -0.50 1.55 0 2.50 -0.30 3.20 -1 0.55 -0.55 1.30 -1 1.65 -1 0.30 0 1.30 -0.45 2.10 -1 0.85 -0.55 2.20 -1 3.05 -1 0.85 0 2.15 -0.45 2.85 -1 0.70 -0.55 1.60 -1 2 -1 0.40 0 1.30 -0.45 2 -1 0.90 -0.70 2 -1 4 -1 1.95 0 3.05 -0.30 4 -1 0.90 -0.70 2 -1 4 -1 1.95 0 3.05 -0.30 4 -1 1.25 -1 2 -1 49.15 -1 44.85 0 47.95 0.05 48.85 0.85 0.70 0.65 2.05 0.95 5.05 1.05 2.85 0.15 4.30 0.45 5 1.05 0.70 0.60 2.20 0.85 7 0.95 4.50 0.15 6.25 0.40 6.90 0.95 0.45 0.40 1.80 0.85 3 1 1.20 0.15 2.55 0.65 3.10 1.10 0.65 0.60 2.20 0.85 6 0.95 3.15 0.15 5.35 0.45 5.80 0.85 0.40 0.35 1.30 0.80 2 1 0.70 0.20 1.65 0.75 2.20 1.20 0.60 0.55 2.10 0.85 5 0.95 2.30 0.15 4.35 0.45 4.80 0.85 0.40 0.35 1.30 0.80 2 1 0.70 0.20 1.65 0.75 2.20 1.20 0.65 0.55 2.10 0.85 5 0.95 3.90 0.20 4.15 0.25 5.95 2 1.80 1.75 2.05 1.85 5.90 2.05 3.65 0.15 3.95 0.25 3.30 1 -0.40 0.45 -1.20 1.75 -1.80 2.90 -5.55 11.05 -3.85 23.75 4.40 32.80 l 1.25 1.40 -1.30 1.20 c -0.75 0.70 -2.40 1.45 -3.75 1.75 -1.50 0.35 -3 1.15 -4 2.10 -1.15 1.10 -2.30 1.65 -4.20 1.95 -1.45 0.25 -2.80 0.65 -2.95 1 -0.20 0.30 -1.45 0.75 -2.75 1 -1.35 0.25 -2.80 0.80 -3.25 1.20 -0.55 0.50 -1.90 0.75 -4.30 0.75 -2.20 0 -4 0.30 -4.95 0.80 -0.80 0.45 -3.05 1 -4.95 1.20 -1.95 0.25 -3.60 0.70 -3.85 1.05 -0.30 0.50 -2.15 0.75 -6.95 0.85 -5.80 0.15 -6.55 0.30 -7 1.15 -0.50 0.95 -1.85 0.95 -58.40 0.95 -56.65 0 -57.90 -0.05 -59.10 -1 z "/>
  <path d="M 77.30 134.45 c -0.55 -0.50 -1.40 -0.95 -1.90 -0.95 -0.50 0 -1.40 -0.45 -2 -1 -0.85 -0.80 -1.80 -1 -4.15 -1 -2.45 0 -3.30 -0.20 -4 -1 -0.50 -0.55 -1.35 -1 -1.85 -1 -0.95 0 -6.60 -5.30 -6.70 -6.25 -0.05 -1.20 -0.80 -2.70 -1.45 -2.95 -0.60 -0.20 -0.75 -1.30 -0.75 -4.95 0 -3.95 0.15 -4.90 1 -6 0.55 -0.70 1 -1.60 1 -2 0 -0.40 0.45 -1.30 1 -2 0.55 -0.70 1 -1.60 1 -1.95 0 -0.40 0.90 -1.65 2 -2.80 1.10 -1.10 2 -2.50 2 -3.05 0 -0.60 0.30 -1.05 0.70 -1.05 0.35 0 1.20 -0.40 1.85 -0.90 0.65 -0.55 1.85 -1.10 2.60 -1.30 0.80 -0.20 2.10 -1.10 2.95 -2.05 1.20 -1.40 1.85 -1.75 3.40 -1.75 1.10 0 2.40 -0.40 3.15 -1 0.70 -0.55 1.60 -1 2 -1 0.40 0 1.30 -0.45 2 -1 1.20 -0.95 2 -1 20.15 -1 17 0 18.95 0.10 19.80 0.85 0.60 0.55 2.10 0.90 4.05 1.05 1.85 0.15 3.45 0.55 4 1 0.50 0.45 2.15 0.90 4 1 1.70 0.10 3.45 0.50 3.85 0.85 0.40 0.35 1.30 0.80 2 1 0.70 0.20 1.60 0.65 2 1 0.40 0.35 1.30 0.80 2 1 0.70 0.20 1.60 0.65 2 1 0.40 0.35 1.30 0.80 2 1 0.70 0.20 1.60 0.65 2 1 0.40 0.35 1.20 0.75 1.75 0.95 0.55 0.15 1.35 1.05 1.75 1.90 0.45 1 1.30 1.75 2.25 2.05 0.85 0.25 2.75 1.70 4.25 3.15 1.55 1.50 3.15 2.70 3.60 2.70 0.50 0 2.30 1.30 4 2.95 1.75 1.60 3.60 3.05 4.15 3.25 1.30 0.40 2.90 3.75 2.25 4.60 -0.30 0.30 -1.55 0.70 -2.80 0.85 -1.75 0.20 -2.75 0.65 -4.10 2 -1.75 1.65 -2.05 1.75 -5.90 1.95 -2.90 0.10 -4.35 0.40 -5 0.95 -0.55 0.45 -1.50 1 -2.20 1.20 -0.70 0.20 -1.60 0.65 -2 1 -0.45 0.40 -2.50 0.70 -4.80 0.85 -2.85 0.10 -4.40 0.40 -5 0.95 -0.55 0.45 -1.90 0.95 -3.10 1.10 -1.20 0.15 -2.55 0.60 -3 1 -0.65 0.55 -2.40 0.80 -6.90 0.95 -4.75 0.10 -6.30 0.35 -7 0.95 -0.55 0.45 -1.90 0.95 -3.10 1.10 -1.20 0.15 -2.55 0.60 -3.05 1.05 -0.75 0.70 -3.10 0.80 -18.85 0.75 -17.10 0 -18 -0.05 -18.90 -1 z "/>
  <path d="M 572.05 125.50 c -0.85 -0.75 -1.90 -1 -3.90 -1 -2 0 -3.10 -0.30 -4 -1 -0.95 -0.70 -2.05 -1 -4 -1 -2 0 -3.10 -0.30 -4 -1 -0.70 -0.55 -1.60 -1 -2 -1 -0.40 0 -1.30 -0.45 -2 -1 -0.95 -0.70 -2.05 -1 -4 -1 -2 0 -3.10 -0.30 -4 -1 -0.70 -0.55 -1.95 -1 -2.75 -1 -1.75 0 -3.30 -0.95 -6.20 -3.90 -1.85 -1.80 -2.30 -2.65 -2.50 -4.55 -0.50 -3.90 -3.40 -12.10 -4.65 -13.05 -0.20 -0.15 -1.25 -1.25 -2.40 -2.50 l -2.05 -2.25 2.15 0.15 c 1.95 0.20 2.40 0 4.40 -1.85 1.75 -1.60 2.60 -2.05 4.05 -2.05 1.45 0 2.30 -0.45 4.10 -2.10 1.90 -1.75 2.60 -2.10 3.95 -1.95 1.40 0.10 2.10 -0.25 4 -2 1.90 -1.75 2.65 -2.15 3.95 -2.05 1.05 0.10 2.05 -0.20 3 -0.95 0.80 -0.65 1.85 -1.20 2.35 -1.20 0.50 -0.05 1.35 -0.45 1.85 -0.90 0.65 -0.60 1.80 -0.85 3.70 -0.85 2 0 3.10 -0.25 4.05 -1 0.70 -0.55 2 -1 3 -1 1 0 2.30 -0.45 3.05 -1.05 1.20 -0.95 1.75 -1 10.40 -0.75 12.20 0.35 15.35 0.70 16.85 1.85 0.65 0.50 1.95 0.95 2.90 0.95 1 0 2.30 0.45 3 1 0.70 0.55 1.70 1 2.15 1 0.50 0 1.15 0.30 1.45 0.70 0.35 0.40 2 1.20 3.65 1.75 1.75 0.60 3.60 1.65 4.45 2.55 0.80 0.80 2 1.60 2.70 1.80 0.70 0.15 1.25 0.65 1.25 1.15 0 0.45 0.45 1.35 1 2.05 0.55 0.70 1 1.60 1 2 0 0.40 0.45 1.30 1 2 0.85 1.10 1 2.05 1 7.60 0 3.50 -0.20 6.45 -0.45 6.60 -0.25 0.15 -0.60 1.10 -0.75 2.05 -0.20 0.95 -0.90 2.30 -1.55 3 -0.70 0.65 -1.25 1.55 -1.25 2 0 0.40 -0.45 0.75 -0.95 0.75 -1.05 0 -3.05 2.20 -3.05 3.30 0 0.40 -0.45 0.70 -1 0.70 -0.55 0 -1.45 0.65 -2.05 1.45 -0.75 1.05 -1.70 1.60 -3 1.80 -1.10 0.20 -2.10 0.60 -2.30 0.95 -0.25 0.35 -1.50 0.80 -2.90 1 -1.35 0.15 -2.70 0.60 -3 0.95 -0.25 0.40 -1.60 0.85 -3 1 -1.35 0.20 -2.70 0.65 -3 1.05 -0.30 0.35 -1.95 0.75 -3.95 0.90 -2.40 0.20 -3.70 0.55 -4.10 1.10 -0.45 0.65 -1.70 0.80 -7.50 0.80 -6.15 -0.05 -7.10 -0.15 -8.15 -1 z "/>
  <path d="M 651.40 110.40 c -0.40 -0.65 -0.75 -1.90 -0.80 -2.85 -0.10 -0.90 -0.55 -2.25 -1.10 -2.95 -0.55 -0.65 -1 -1.40 -1 -1.60 0 -0.20 2.65 -0.40 5.85 -0.45 l 5.85 -0.05 1.90 1.85 c 1.50 1.45 1.90 2.20 1.90 3.65 0 3 -1 3.50 -6.85 3.50 -4.70 0 -5.10 -0.10 -5.75 -1.10 z "/>
  <path d="M 650.50 85.90 c 0 -5.80 0.15 -6.85 1 -8.15 0.55 -0.80 1 -1.80 1 -2.15 0 -0.40 0.45 -1.25 1 -1.95 0.55 -0.70 1 -1.70 1 -2.20 0 -0.55 0.30 -0.95 0.70 -0.95 0.35 0 1.25 -0.45 1.90 -1 1.20 -0.95 1.30 -0.95 2.10 -0.05 0.65 0.70 0.80 2 0.80 6.55 l 0 5.65 -2 2.15 c -1.10 1.20 -2 2.50 -2 2.95 0 0.40 -0.40 0.75 -0.90 0.75 -1.20 0 -2.55 1.50 -3.05 3.30 -0.20 0.75 -0.60 1.45 -0.95 1.60 -0.45 0.15 -0.60 -1.55 -0.60 -6.50 z "/>
  <path d="M 15.65 103.65 c -4.55 -0.30 -5.15 -1.20 -5.15 -7.90 0 -4.35 0.15 -5.30 1 -6.40 0.55 -0.70 1 -1.60 1 -2 0 -0.40 0.45 -1.30 1 -2 0.55 -0.70 1 -1.60 1 -2 0 -0.45 0.90 -1.70 1.95 -2.85 1.10 -1.15 2.10 -2.85 2.25 -3.70 0.20 -1.05 0.80 -1.90 1.55 -2.30 0.70 -0.40 1.95 -1.75 2.75 -3.10 0.80 -1.30 1.70 -2.40 2 -2.40 0.30 0 1.95 -1.45 3.75 -3.25 3 -3.05 8 -6.25 9.75 -6.25 0.45 0 1.50 0.75 2.40 1.65 1.45 1.50 1.65 2 1.85 5.50 l 0.20 3.85 -5.25 5.25 c -3.75 3.70 -5.65 5.25 -6.45 5.25 -0.65 0 -1.40 0.30 -1.60 0.70 -0.25 0.40 -1.70 0.75 -3.85 0.95 -2.40 0.15 -3.70 0.50 -4.05 1.05 -0.35 0.45 -1.30 0.95 -2.15 1.10 -0.85 0.15 -2.15 0.95 -2.90 1.75 -0.75 0.80 -1.75 1.45 -2.20 1.45 -1.30 0 -2.50 1.65 -2.50 3.40 0 1.50 0.10 1.60 1.75 1.60 1.20 0 1.75 0.25 1.75 0.75 0 0.60 0.95 0.75 5.75 0.75 3.95 0 5.75 0.20 5.75 0.55 0 0.35 0.30 0.85 0.70 1.15 1.15 0.90 0.45 4.25 -1 4.80 -0.65 0.25 -1.20 0.65 -1.20 0.90 0 0.25 -1.15 0.60 -2.60 0.75 -1.40 0.20 -2.80 0.55 -3.10 0.85 -0.25 0.25 -0.60 0.45 -0.75 0.40 -0.20 -0.05 -1.70 -0.15 -3.40 -0.25 z "/>
  <path d="M349.45 31.05 C 349.45 35.55 345.80 39.20 341.25 39.20 336.75 39.20 333.10 35.55 333.10 31.05 333.10 26.50 336.75 22.85 341.25 22.85 345.80 22.85 349.45 26.50 349.45 31.05 Z M335.25 38.35 "/>
 </g>
</svg>