<?xml version="1.0" encoding="utf-8"?>
<!DOCTYPE svg PUBLIC "-//W3C//DTD SVG 1.0//EN" "http://www.w3.org/TR/2001/REC-SVG-20010904/DTD/svg10.dtd">
<svg version="1.0" xmlns="http://www.w3.org/2000/svg" width="620px" height="281px" viewBox="0 0 620 281" preserveAspectRatio="xMidYMid meet">
 <g fill="#000000">
  <path d="M 303.50 260.15 c -2.50 -0.30 -8.40 -2.10 -8.75 -2.65 -0.15 -0.30 -0.65 -0.50 -1.10 -0.50 -0.40 0 -1.80 -0.75 -3.10 -1.70 -1.30 -0.95 -3 -1.90 -3.80 -2.10 -2.10 -0.50 -2.80 -1.20 -2.45 -2.30 0.20 -0.60 -0.25 -1.50 -1.25 -2.70 -1.75 -1.95 -3.15 -4.55 -4.40 -8.05 -1.65 -4.75 -0.75 -16.50 1.50 -19.50 0.25 -0.35 1.20 -1.90 2.15 -3.45 1.50 -2.50 1.65 -2.95 1 -3.65 -0.35 -0.45 -0.80 -1.25 -1 -1.80 -0.55 -1.90 -6.65 -7.40 -9.90 -9 -2.30 -1.10 -3.20 -1.80 -3.30 -2.65 -0.10 -0.60 -0.40 -1.10 -0.75 -1.10 -0.75 0 -4.80 -2 -5.15 -2.55 -0.15 -0.25 -0.60 -0.45 -1.05 -0.45 -0.40 0 -1.55 -0.65 -2.50 -1.50 -0.90 -0.80 -2.20 -1.50 -2.80 -1.50 -1.15 0 -4.30 -1.40 -5.60 -2.50 -0.35 -0.30 -1.90 -0.50 -3.40 -0.45 -1.85 0.10 -3.05 -0.15 -3.90 -0.70 -1.60 -1.15 -6.85 -1.15 -7.65 -0.05 -0.50 0.65 -1.80 0.80 -8.45 0.75 l -7.80 -0.10 -2.90 1.60 c -2.30 1.20 -3.45 1.55 -5.50 1.50 -2.25 -0.05 -2.85 0.15 -4.40 1.50 -1.45 1.30 -2.20 1.60 -3.75 1.55 -1.55 -0.05 -2.35 0.25 -3.70 1.40 -0.90 0.85 -2.20 1.50 -2.85 1.50 -0.65 0 -2.20 0.70 -3.40 1.50 -1.20 0.85 -2.60 1.50 -3.10 1.50 -0.50 0 -1.70 0.70 -2.60 1.50 -0.95 0.85 -2 1.50 -2.25 1.50 -0.30 0 -1.30 0.65 -2.20 1.40 -0.90 0.80 -2.05 1.60 -2.55 1.75 -0.45 0.20 -1 0.70 -1.20 1.15 -0.15 0.45 -1.50 2.05 -3 3.55 -1.45 1.50 -2.65 3.10 -2.65 3.55 0 0.50 -0.40 1.25 -0.85 1.70 -2 1.95 -2.65 2.75 -2.65 3.50 0 0.40 -0.55 1.25 -1.25 1.90 -0.70 0.65 -1.25 1.45 -1.25 1.80 0 0.35 -0.65 1.45 -1.50 2.35 -1.10 1.25 -1.50 2.25 -1.50 3.55 0 1.25 -0.25 1.80 -0.75 1.85 -3.10 0.25 -3 0.35 -3.15 -2.40 -0.15 -2.20 0.05 -2.80 1.25 -4.25 0.80 -0.90 1.95 -2.70 2.55 -4 0.65 -1.35 1.40 -2.40 1.65 -2.40 0.25 0 0.45 -0.55 0.45 -1.25 0 -0.75 0.60 -1.75 1.50 -2.60 0.85 -0.70 1.50 -1.70 1.50 -2.15 0 -0.45 1.40 -2.15 3.15 -3.80 1.75 -1.60 3.30 -3.35 3.50 -3.85 0.20 -0.50 1.15 -1.25 2.15 -1.65 1 -0.40 2.35 -1.30 3 -2 0.70 -0.65 1.55 -1.20 1.90 -1.20 0.35 0 1.15 -0.55 1.80 -1.25 0.65 -0.70 2.15 -1.55 3.30 -1.80 1.60 -0.40 2.20 -0.85 2.40 -1.75 0.20 -0.65 0.70 -1.20 1.20 -1.25 3.35 -0.20 4.25 -0.50 5.60 -1.65 0.90 -0.70 1.95 -1.30 2.40 -1.35 3.40 -0.25 4.15 -0.45 5.35 -1.65 1.30 -1.30 1.55 -1.40 4.75 -1.40 2 0 4.25 -1 4.90 -2.20 0.35 -0.65 1.65 -0.80 8.60 -0.75 6.45 0.05 8.35 -0.05 9.25 -0.65 1.70 -1.15 10.80 -1.20 12.50 -0.10 0.80 0.55 2.35 0.80 4.75 0.80 1.90 0 3.50 0.20 3.50 0.45 0 0.25 0.70 0.60 1.55 0.80 0.85 0.20 1.65 0.65 1.80 1.05 0.15 0.40 0.60 0.70 1.05 0.70 1.15 0 5.10 2 5.10 2.60 0 0.30 0.35 0.40 0.75 0.20 0.40 -0.15 1.05 0.05 1.45 0.45 0.35 0.40 1.30 0.85 2.05 1.05 0.70 0.20 1.45 0.65 1.60 1 0.15 0.40 0.75 0.70 1.40 0.70 1.35 0 2.45 1.20 2.05 2.25 -0.20 0.55 0.05 0.75 0.85 0.75 0.65 0 1.90 0.75 2.90 1.80 0.90 1 2.50 2.15 3.45 2.60 1 0.50 1.75 1.25 1.75 1.70 0 0.45 1.05 1.90 2.40 3.15 1.30 1.30 2.35 2.55 2.35 2.80 0 0.85 1.60 0.45 3.45 -0.90 2.05 -1.60 5.25 -3.25 8.55 -4.40 2.95 -1.10 15.10 -1.60 17.60 -0.80 0.95 0.30 2.25 0.70 2.90 0.80 1.15 0.20 5.35 2.25 9.40 4.50 2.20 1.20 7.20 7 8.85 10.20 2.05 4.05 2.75 7.15 2.75 12.30 0 8.10 -2.55 13.90 -8.55 19.45 -7.50 6.90 -16.70 9.70 -27.95 8.45 z "/>
  <path d="M 136.50 223.90 c -4.05 -4.05 -5.05 -5.30 -4.85 -6.20 0.15 -0.95 -0.05 -1.20 -1.25 -1.45 -1.10 -0.25 -1.50 -0.70 -1.75 -1.80 -0.20 -1.20 -0.50 -1.40 -1.25 -1.15 -0.75 0.20 -2.10 -0.85 -5.95 -4.65 -2.80 -2.70 -5.25 -5.30 -5.55 -5.80 -0.40 -0.75 0.35 -1.75 4.45 -5.95 5 -5.10 6.45 -6.15 7.45 -5.35 0.40 0.30 0.65 0 0.90 -1.05 0.20 -1.20 0.60 -1.60 1.80 -1.80 1.25 -0.30 1.45 -0.50 1.20 -1.50 -0.25 -1.05 0.45 -2 4.55 -6.15 2.65 -2.75 5.30 -5.05 5.80 -5.20 0.70 -0.20 2.35 1.05 6.20 4.85 5.10 4.90 6.25 6.80 4.65 7.45 -0.35 0.15 0.75 0.30 2.50 0.30 2.75 0.05 3.20 0.20 3.55 1.20 0.25 0.60 0.35 1.25 0.25 1.45 -0.15 0.20 2.15 2.70 5.05 5.60 4.35 4.35 5.20 5.45 4.80 6.20 -0.25 0.45 -2.70 3.05 -5.45 5.80 -3.80 3.75 -5.20 4.85 -5.95 4.60 -0.70 -0.25 -1.05 0.05 -1.50 1.15 -0.35 0.95 -0.95 1.50 -1.70 1.65 -0.95 0.10 -1.15 0.40 -1.05 1.35 0.10 0.90 -0.55 1.95 -2.40 3.80 -1.70 1.70 -2.45 2.85 -2.25 3.35 0.35 0.90 -1.45 2.40 -2.80 2.40 -0.45 0 -1.20 0.45 -1.70 1 -0.50 0.55 -1.30 1 -1.80 1 -0.45 0 -3.15 -2.30 -5.95 -5.10 z "/>
  <path d="M 50.60 223.90 c -0.35 -0.35 -1.80 -0.75 -3.25 -0.90 -2.20 -0.20 -2.70 -0.45 -3.25 -1.60 -0.40 -0.80 -1.05 -1.40 -1.60 -1.40 -0.65 0 -1.10 -0.45 -1.30 -1.35 -0.20 -0.75 -0.65 -1.70 -1.05 -2.05 -0.95 -1 -0.90 -10.05 0.10 -11.40 0.40 -0.50 0.75 -2 0.75 -3.30 0 -2.35 0.10 -2.45 5.05 -7.35 l 5 -5 5.80 -0.15 c 4.95 -0.15 6 0 6.95 0.75 0.60 0.45 1.45 0.85 1.85 0.85 0.40 0 1 0.35 1.35 0.75 0.35 0.45 0.75 0.65 0.90 0.55 0.30 -0.30 3.10 1.30 3.10 1.75 0 0.20 0.90 1.25 2 2.40 1.85 1.90 2 2.25 2 4.95 0.05 1.70 0.30 3.25 0.75 3.80 0.40 0.55 0.75 1.40 0.75 1.95 0 0.50 0.25 0.75 0.50 0.60 0.30 -0.15 0.50 0.05 0.50 0.55 0 0.45 0.45 1.60 1.05 2.50 0.55 0.95 0.90 1.90 0.70 2.20 -0.15 0.25 0.05 0.50 0.45 0.50 0.50 0 0.85 0.65 1.05 1.90 0.20 1 0.70 2.55 1.15 3.45 0.90 1.80 0.80 2 -1.20 2.60 -2.40 0.70 -3.70 -0.10 -3.70 -2.20 0 -1 -0.35 -2.15 -0.75 -2.55 -0.40 -0.45 -0.75 -1.30 -0.75 -1.95 0 -0.60 -0.35 -1.25 -0.75 -1.45 -0.40 -0.15 -0.75 -0.65 -0.75 -1.05 0 -0.45 -0.35 -1.15 -0.75 -1.55 -0.40 -0.45 -0.75 -1.20 -0.75 -1.75 0 -0.60 -0.35 -0.95 -1 -0.95 -0.55 0 -1 0.30 -1 0.65 0 0.35 -0.35 1.15 -0.85 1.80 -0.45 0.65 -0.85 2.25 -0.85 3.50 -0.05 2.10 -0.20 2.35 -1.70 3.05 -0.90 0.45 -1.50 0.95 -1.30 1.15 0.50 0.50 -3.55 4.30 -5.75 5.45 -2.10 1.05 -8.50 1.25 -9.45 0.30 z  M68.85 206.75 C 68.85 199.60 63 193.75 55.85 193.75 48.65 193.75 42.85 199.60 42.85 206.75 42.85 213.95 48.65 219.75 55.85 219.75 63 219.75 68.85 213.95 68.85 206.75 Z M58.15 219.35 "/>
  <path d="M 224.20 170.25 c -0.50 -0.40 -1.55 -0.75 -2.25 -0.75 -0.75 0 -1.60 -0.35 -1.95 -0.75 -0.35 -0.40 -1.05 -0.75 -1.55 -0.75 -2.05 0 -2.45 -1.20 -2.45 -8 0 -5.05 0.15 -6.60 0.75 -7.20 0.40 -0.40 0.75 -1.10 0.75 -1.60 0 -0.45 1.05 -1.85 2.35 -3.05 l 2.30 -2.20 5.05 0.15 c 4.80 0.20 6.75 0.60 9.95 2.20 0.80 0.40 1.75 0.70 2.15 0.70 0.40 0 1 0.60 1.35 1.40 0.30 0.75 0.80 1.50 1.05 1.70 0.25 0.15 0.55 1.60 0.70 3.25 0.15 1.60 0.40 3 0.55 3.15 0.20 0.15 1.10 1.75 2 3.55 0.90 1.85 2.40 4.05 3.35 4.90 2.35 2.15 2.25 3.35 -0.25 3.80 -1.80 0.30 -2.15 0.20 -3.50 -1.35 -0.85 -0.90 -1.55 -1.85 -1.55 -2.15 0 -0.25 -0.70 -1.25 -1.50 -2.20 -0.85 -0.90 -1.50 -2.15 -1.50 -2.70 0 -1.05 0 -1.05 -1 0.05 -0.55 0.60 -1 1.75 -1 2.55 0 1.50 -1.10 3.05 -2.20 3.05 -0.30 0 -0.85 0.70 -1.15 1.50 l -0.55 1.50 -4.45 0 c -3.15 0 -4.75 -0.20 -5.45 -0.75 z  M236.60 158.10 C 236.60 153.35 232.80 149.55 228.10 149.55 223.40 149.55 219.55 153.35 219.55 158.10 219.55 162.80 223.40 166.60 228.10 166.60 232.80 166.60 236.60 162.80 236.60 158.10 Z M231.35 165.50 "/>
  <path d="M 464.40 131.50 c -8.55 -0.20 -12.05 -0.45 -12.50 -0.85 -0.35 -0.40 -2 -0.65 -4.15 -0.65 -2 0 -3.80 -0.25 -4.10 -0.55 -0.35 -0.35 -1.45 -0.65 -2.50 -0.75 -1 -0.05 -1.95 -0.35 -2.05 -0.65 -0.10 -0.30 -0.50 -0.55 -0.85 -0.55 -0.35 0 -1.80 -1.05 -3.20 -2.35 l -2.55 -2.35 0 -8.85 c 0 -7.25 0.15 -8.95 0.75 -9.45 0.40 -0.35 0.75 -1 0.75 -1.45 0 -0.50 0.35 -1.30 0.75 -1.85 0.40 -0.50 0.75 -1.90 0.75 -3.05 0 -1.60 0.30 -2.40 1.40 -3.50 0.80 -0.75 1.60 -2 1.75 -2.75 0.20 -0.75 0.90 -1.75 1.60 -2.20 0.70 -0.45 1.25 -1.20 1.25 -1.65 0 -0.50 0.70 -1.65 1.50 -2.55 0.85 -0.90 1.50 -1.90 1.50 -2.15 0 -0.25 0.70 -1.10 1.50 -1.95 0.85 -0.80 1.50 -1.85 1.50 -2.35 0 -1 0.95 -2.05 1.85 -2.05 0.65 0 2.70 -1.80 7.35 -6.35 1.70 -1.65 3.10 -2.60 4.10 -2.75 1.25 -0.15 1.45 -0.40 1.60 -1.80 0.15 -1.30 -0.15 -1.95 -1.10 -2.85 -0.70 -0.65 -1.30 -1.50 -1.30 -1.85 0 -0.80 -1.75 -2.40 -3.60 -3.35 -1.55 -0.80 -5.45 -4.75 -6.35 -6.45 -0.40 -0.70 -0.40 -1.40 -0.10 -2 0.65 -1.20 6.85 -7.10 7.50 -7.10 0.75 0 2.55 -1.85 2.55 -2.65 0 -0.35 1.70 -2.30 3.75 -4.35 3.40 -3.40 3.80 -3.65 4.85 -3.10 2 1.05 3.15 1.85 3.60 2.55 0.25 0.35 1.20 1.55 2.10 2.55 0.95 1.05 1.70 2.15 1.70 2.45 0 0.70 1.80 2.55 2.50 2.55 0.30 0 1.50 0.90 2.65 1.95 2.45 2.30 3.55 2.30 7.50 -0.05 1.30 -0.75 2.55 -1.40 2.70 -1.40 0.75 0 4.65 -2.15 4.65 -2.55 0 -0.25 0.90 -0.45 1.95 -0.45 1.10 0 2.10 -0.20 2.25 -0.45 0.70 -1.05 4.50 -2.55 6.60 -2.55 1.20 0 3 -0.35 4 -0.75 0.95 -0.40 2.65 -0.85 3.80 -0.95 1.15 -0.15 2.20 -0.50 2.40 -0.75 0.20 -0.35 5.20 -0.55 13.50 -0.55 11.45 -0.05 13.25 0.05 13.60 0.70 0.30 0.55 1.20 0.80 2.85 0.80 1.70 0 2.55 0.25 2.75 0.75 0.20 0.55 1.05 0.75 3.25 0.75 2.40 0 3.05 0.15 3.25 0.90 0.15 0.45 0.70 1.10 1.20 1.45 0.85 0.50 1.15 0.25 2.75 -2.25 4.05 -6.35 10.55 -10.50 18.50 -11.90 7.75 -1.40 15.65 0.20 21.60 4.30 11.20 7.80 14.40 21.05 7.55 31.70 -7.20 11.30 -23.35 15.65 -36.25 9.75 -5 -2.30 -8.25 -5 -11.20 -9.30 -2.65 -3.95 -3.55 -7.10 -3.60 -12.90 0 -4.45 -0.15 -5 -0.95 -5.15 -0.55 -0.10 -1.50 -0.85 -2.15 -1.65 -1.05 -1.25 -1.60 -1.45 -3.65 -1.45 -1.55 0 -2.60 -0.25 -3 -0.75 -0.45 -0.55 -1.35 -0.75 -2.80 -0.70 -1.45 0.10 -2.45 -0.15 -3.10 -0.70 -0.80 -0.75 -2.25 -0.85 -11.15 -0.85 -8.70 0 -10.40 0.10 -11.40 0.85 -0.65 0.45 -2 0.80 -3 0.75 -0.95 -0.05 -2.25 0.25 -2.90 0.65 -0.65 0.45 -2.30 0.75 -3.85 0.75 -2.35 0 -3 0.20 -4.50 1.55 -1.10 0.95 -2.35 1.55 -3.30 1.55 -0.90 0.05 -1.70 0.35 -1.85 0.75 -0.15 0.35 -0.70 0.65 -1.20 0.65 -0.55 0 -1.65 0.50 -2.40 1.05 -0.80 0.60 -1.70 0.90 -2 0.75 -0.70 -0.45 -3.35 0.95 -3.70 1.95 -0.20 0.40 -0.75 0.75 -1.30 0.75 -0.60 0 -1.05 0.45 -1.25 1.25 -0.15 0.65 -0.95 1.55 -1.70 1.95 -0.75 0.40 -2.45 1.85 -3.85 3.25 -1.35 1.40 -2.75 2.55 -3.05 2.55 -0.35 0 -1.15 0.70 -1.80 1.55 -0.65 0.85 -2.65 3.20 -4.50 5.15 -3.80 4.05 -4.40 5.80 -2 5.80 1.05 0 1.60 0.35 2 1.20 0.30 0.70 1.15 1.35 2 1.55 0.80 0.15 2.05 0.95 2.80 1.80 0.80 0.85 1.80 1.45 2.55 1.45 1.15 0 1.55 0.60 1.30 2.10 0 0.15 0.65 0.45 1.45 0.65 1.35 0.30 1.75 0.95 1.55 2.35 0 0.15 0.65 0.45 1.45 0.65 1.20 0.25 1.55 0.65 1.80 2.05 0.20 1 0.60 1.70 1 1.70 0.40 0 1 0.55 1.30 1.25 0.30 0.65 1 1.35 1.55 1.55 0.50 0.15 1.40 1.25 1.90 2.35 0.55 1.15 1.15 2.45 1.40 2.85 2 3.60 2.05 3.90 2.05 10.60 0 4.80 -0.20 6.95 -0.70 7.65 -0.35 0.55 -0.80 1.85 -1 2.90 -0.20 1 -0.55 1.85 -0.75 1.85 -0.25 0 -0.55 0.70 -0.75 1.55 -0.15 0.85 -0.85 2 -1.55 2.55 -0.70 0.55 -1.25 1.30 -1.25 1.70 0 0.95 -1.90 2.80 -2.50 2.45 -0.30 -0.20 -0.50 0.05 -0.50 0.45 0 1.55 -1.80 2.75 -3.65 2.45 -1.15 -0.15 -1.90 0 -2.50 0.55 -0.40 0.45 -1.25 0.80 -1.80 0.80 -0.55 0 -1.15 0.20 -1.30 0.50 -0.70 1.10 -2.50 1.25 -13.85 1 z  m 10.80 -4.25 c 0.55 -0.40 1.35 -0.75 1.75 -0.75 0.45 0 1.45 -0.35 2.25 -0.75 0.75 -0.40 1.95 -0.75 2.65 -0.75 0.90 0 1.35 -0.40 1.70 -1.50 0.35 -0.95 0.90 -1.50 1.50 -1.50 0.50 0 1.25 -0.65 1.65 -1.45 0.45 -0.80 1.20 -1.55 1.80 -1.70 0.75 -0.20 1 -0.65 1 -1.80 0 -0.95 0.30 -1.70 0.75 -1.85 0.50 -0.20 0.75 -1 0.75 -2.20 0 -1.05 0.35 -2.15 0.75 -2.50 0.55 -0.50 0.75 -1.75 0.75 -5.50 0 -3.75 -0.20 -5 -0.75 -5.50 -0.40 -0.35 -0.75 -1 -0.75 -1.50 0 -0.50 -0.35 -1.15 -0.75 -1.50 -0.40 -0.35 -0.75 -1.20 -0.75 -1.95 0 -0.90 -0.45 -1.55 -1.50 -2.15 -0.85 -0.45 -1.50 -1.15 -1.50 -1.50 0 -0.35 -0.70 -1.05 -1.50 -1.50 -0.90 -0.50 -1.50 -1.25 -1.50 -1.90 0 -0.65 -0.35 -1 -0.90 -1 -1.15 0 -2.10 -0.95 -2.10 -2.10 0 -0.55 -0.35 -0.90 -0.90 -0.90 -1.15 0 -2.10 -0.95 -2.10 -2.15 0 -0.55 -0.25 -0.85 -0.60 -0.70 -0.35 0.10 -1.50 -0.55 -2.55 -1.45 -1 -0.95 -2.15 -1.70 -2.50 -1.70 -0.35 0 -1.30 -0.70 -2.10 -1.50 -0.80 -0.85 -1.80 -1.50 -2.25 -1.50 -1.05 0 -2 -0.95 -2 -2 0 -0.60 -0.50 -0.85 -1.75 -0.90 -1.50 -0.05 -2.15 0.35 -4.75 2.90 -1.60 1.65 -3.30 3 -3.75 3 -0.40 0 -0.75 0.35 -0.75 0.75 0 1 -1.90 2.85 -2.50 2.50 -0.30 -0.20 -0.50 0.05 -0.50 0.45 0 0.45 -0.85 1.65 -1.95 2.75 -1.05 1.05 -2.60 3.40 -3.50 5.25 -1.40 2.95 -1.95 3.55 -3.15 3.35 -0.25 0 -0.40 0.45 -0.40 1.05 0 2.05 -0.55 3.25 -1.80 3.90 -0.90 0.50 -1.20 1.10 -1.20 2.25 0 0.85 -0.35 2 -0.75 2.55 -0.40 0.50 -0.75 1.65 -0.75 2.50 0 0.85 -0.35 1.85 -0.75 2.20 -0.60 0.50 -0.75 1.95 -0.75 7.25 0 6.50 0 6.60 1.25 7.25 0.70 0.35 1.25 0.95 1.25 1.30 0 0.90 2.95 2.20 4.90 2.10 0.85 -0.05 2 0.30 2.50 0.75 0.65 0.60 1.85 0.85 3.90 0.85 1.80 0.05 3.35 0.30 3.90 0.75 1.45 1.10 19.60 1.05 21 0 z  m 104.75 -58.55 c -0.55 -0.50 -1.45 -0.70 -2.75 -0.60 l -1.95 0.20 1.75 0.55 c 0.95 0.30 2.20 0.60 2.75 0.60 0.85 0.05 0.90 0 0.20 -0.75 z  m -110.95 -29.30 c 0 -0.30 -0.35 -0.25 -0.75 0.10 -0.40 0.35 -0.75 0.85 -0.75 1.10 0 0.30 0.35 0.25 0.75 -0.10 0.40 -0.35 0.75 -0.85 0.75 -1.10 z "/>
  <path d="M371.05 83.70 C 371.05 97.15 360.15 108 346.75 108 333.35 108 322.45 97.15 322.45 83.70 322.45 70.30 333.35 59.45 346.75 59.45 360.15 59.45 371.05 70.30 371.05 83.70 Z M341.20 108.55  m 10.50 -5.05 c 8.15 -4.15 12.45 -16.55 9.10 -26.50 -0.65 -1.95 -1.60 -4.15 -2.05 -4.85 -1.05 -1.55 0.45 -3.05 -13 13.10 -5.70 6.90 -10.75 12.90 -11.15 13.40 -0.70 0.80 -0.65 1 0.65 2.35 0.80 0.85 1.75 1.50 2.10 1.50 0.35 0 0.65 0.20 0.65 0.45 0 0.20 1.05 0.75 2.40 1.20 3.35 1.20 8.20 0.90 11.30 -0.65 z  m -10.40 -18.95 c 4.90 -5.85 10.05 -12 11.45 -13.65 l 2.45 -3 -1.35 -1.10 c -1.90 -1.55 -5.70 -2.80 -8.25 -2.80 -7.70 0 -13.85 5.45 -16.10 14.25 -1.15 4.45 -1.25 7.50 -0.45 11.35 0.70 3.15 2.35 6.70 2.90 6.10 0.20 -0.25 4.40 -5.25 9.35 -11.15 z "/>
  <path d="M 147 107.55 c -7.95 -2.25 -11.75 -4.35 -16.45 -9.30 -4.25 -4.40 -5.60 -7.55 -5.65 -13.30 0 -2.45 0.20 -4.70 0.45 -5.05 0.30 -0.35 0.80 -1.45 1.10 -2.45 0.30 -1 1.80 -3.20 3.30 -4.85 1.50 -1.65 2.75 -3.10 2.75 -3.25 0 -0.75 4.20 -4.35 5.05 -4.35 0.55 0 1.60 -0.30 2.35 -0.70 1.35 -0.70 9.45 -2.05 14.75 -2.50 11.90 -0.95 25.10 4.30 31 12.30 2.55 3.45 3.45 6.30 3.50 10.80 0 6 -1.40 9.25 -5.90 13.80 -3.85 3.90 -8.15 6.45 -14 8.30 -4.95 1.60 -17.45 1.90 -22.25 0.55 z "/>
  <path d="M 38.05 105.55 l -1.20 -0.90 6.95 -10.20 c 3.80 -5.60 8.30 -12.20 9.90 -14.60 l 3 -4.40 -0.95 -1.60 c -0.50 -0.85 -3.50 -5.70 -6.60 -10.75 -3.15 -5.05 -5.80 -9.45 -5.95 -9.75 -0.10 -0.35 0.50 -1.05 1.35 -1.55 1.30 -0.75 1.65 -0.80 2 -0.25 0.25 0.40 3.10 5 6.30 10.30 4.60 7.40 6.30 9.80 7.75 10.70 1.95 1.25 2.25 1.65 1.40 2.20 -0.80 0.50 -0.65 0.85 1.70 4.55 6.45 10.30 13.80 22.35 13.70 22.45 -1.45 1 -2.70 1.75 -2.95 1.75 -0.20 0 -3.70 -5.40 -7.80 -12 -4.05 -6.60 -7.55 -11.95 -7.75 -11.90 -0.35 0.15 -5.15 7.10 -15.60 22.55 -1.65 2.40 -3.20 4.35 -3.50 4.35 -0.30 0 -1.10 -0.45 -1.75 -0.95 z "/>
  <path d="M 119.90 59.50 c -2.15 -2.20 -3.85 -4.20 -3.75 -4.40 0.15 -0.45 -2 -2.60 -2.65 -2.60 -0.70 0 -8 -7.20 -8 -7.90 0 -1.85 3.45 -6.55 4.80 -6.60 0.30 0 0.95 -0.45 1.45 -1 0.50 -0.55 1.20 -1 1.55 -1 0.30 0 1.25 -0.80 2.05 -1.80 2.90 -3.65 7.80 -8.70 8.80 -9 0.75 -0.25 1.85 0.55 4.90 3.60 2.20 2.15 3.95 4.15 3.95 4.45 0 0.30 0.45 0.90 1 1.40 0.60 0.50 0.90 1.10 0.75 1.35 -0.15 0.25 0.05 0.35 0.45 0.20 0.50 -0.20 1.80 0.70 3.65 2.40 3.90 3.60 4.60 4.50 4.65 5.65 0 1.20 -17.90 19.25 -19.05 19.25 -0.40 -0.05 -2.45 -1.85 -4.55 -4 z "/>
  <path d="M 493.55 20.90 l -3.05 -3.15 0 -3.60 c 0 -4.25 0.60 -6.15 1.95 -6.15 0.60 0 1.15 -0.55 1.50 -1.50 l 0.50 -1.50 6.65 0 6.65 0.05 1.65 1.45 c 1.10 1.05 1.60 1.95 1.60 2.95 0 1.45 1.15 4.10 2.40 5.45 0.30 0.35 0.60 1 0.60 1.40 0 0.40 0.35 1.25 0.75 1.90 0.95 1.45 0.50 4.30 -0.70 4.30 -1.05 -0.05 -4.05 -2.75 -4.05 -3.70 0 -0.35 -0.45 -1.20 -1 -1.85 l -0.95 -1.20 -0.05 1.95 c 0 1.60 -0.35 2.25 -2.25 4.10 -2.20 2.15 -2.25 2.20 -5.65 2.20 l -3.50 0 -3.05 -3.10 z  M505.75 13.95 C 505.75 10.90 503.30 8.45 500.25 8.45 497.15 8.45 494.70 10.90 494.70 13.95 494.70 17.05 497.15 19.50 500.25 19.50 503.30 19.50 505.75 17.05 505.75 13.95 Z M503.15 18.10 "/>
 </g>
 <g fill="#ffffff">
  <path d="M 0 140.50 l 0 -140.50 310 0 310 0 0 140.50 0 140.50 -310 0 -310 0 0 -140.50 z  m 317.15 119 c 10.30 -2.60 18.65 -10 21.90 -19.45 0.70 -1.95 0.95 -4.10 0.95 -7.80 0 -5.15 -0.70 -8.25 -2.75 -12.30 -1.65 -3.20 -6.65 -9 -8.85 -10.20 -4.05 -2.25 -8.25 -4.30 -9.40 -4.50 -0.65 -0.10 -1.95 -0.50 -2.90 -0.80 -2.50 -0.80 -14.65 -0.30 -17.60 0.80 -3.30 1.15 -6.50 2.80 -8.55 4.40 -1.85 1.35 -3.45 1.75 -3.45 0.90 0 -0.25 -1.05 -1.50 -2.35 -2.80 -1.35 -1.25 -2.40 -2.70 -2.40 -3.15 0 -0.45 -0.75 -1.20 -1.75 -1.70 -0.95 -0.45 -2.55 -1.60 -3.45 -2.60 -1 -1.05 -2.25 -1.80 -2.90 -1.80 -0.80 0 -1.05 -0.20 -0.85 -0.75 0.40 -1.05 -0.70 -2.25 -2.05 -2.25 -0.65 0 -1.25 -0.30 -1.40 -0.70 -0.15 -0.35 -0.90 -0.80 -1.60 -1 -0.75 -0.20 -1.70 -0.65 -2.05 -1.05 -0.40 -0.40 -1.05 -0.60 -1.45 -0.45 -0.40 0.20 -0.75 0.10 -0.75 -0.20 0 -0.60 -3.95 -2.60 -5.10 -2.60 -0.45 0 -0.90 -0.30 -1.05 -0.70 -0.15 -0.40 -0.95 -0.85 -1.80 -1.05 -0.85 -0.20 -1.55 -0.55 -1.55 -0.80 0 -0.25 -1.60 -0.45 -3.50 -0.45 -2.40 0 -3.95 -0.25 -4.75 -0.80 -1.70 -1.10 -10.80 -1.05 -12.50 0.10 -0.90 0.60 -2.80 0.70 -9.25 0.65 -6.95 -0.05 -8.25 0.10 -8.60 0.75 -0.65 1.20 -2.90 2.20 -4.90 2.20 -3.20 0 -3.45 0.10 -4.75 1.40 -1.20 1.20 -1.95 1.40 -5.35 1.65 -0.45 0.05 -1.50 0.65 -2.40 1.35 -1.35 1.15 -2.25 1.45 -5.60 1.65 -0.50 0.05 -1 0.60 -1.20 1.25 -0.20 0.90 -0.80 1.35 -2.40 1.75 -1.15 0.25 -2.65 1.10 -3.30 1.80 -0.65 0.70 -1.45 1.25 -1.80 1.25 -0.35 0 -1.20 0.55 -1.90 1.20 -0.65 0.70 -2 1.60 -3 2 -1 0.40 -1.95 1.15 -2.15 1.65 -0.20 0.50 -1.75 2.25 -3.50 3.85 -1.75 1.65 -3.15 3.35 -3.15 3.80 0 0.45 -0.65 1.45 -1.50 2.15 -0.90 0.85 -1.50 1.85 -1.50 2.60 0 0.70 -0.20 1.25 -0.45 1.25 -0.25 0 -1 1.05 -1.65 2.40 -0.60 1.30 -1.75 3.10 -2.55 4 -1.20 1.45 -1.40 2.05 -1.25 4.25 0.15 2.75 0.05 2.65 3.15 2.40 0.50 -0.05 0.75 -0.60 0.75 -1.85 0 -1.30 0.40 -2.30 1.50 -3.55 0.85 -0.90 1.50 -2 1.50 -2.35 0 -0.35 0.55 -1.15 1.25 -1.80 0.70 -0.65 1.25 -1.50 1.25 -1.90 0 -0.75 0.65 -1.55 2.65 -3.50 0.45 -0.45 0.85 -1.20 0.85 -1.70 0 -0.45 1.20 -2.05 2.65 -3.55 1.50 -1.50 2.85 -3.10 3 -3.55 0.20 -0.45 0.75 -0.95 1.20 -1.15 0.50 -0.15 1.65 -0.95 2.55 -1.75 0.90 -0.75 1.90 -1.40 2.20 -1.40 0.25 0 1.30 -0.65 2.25 -1.50 0.90 -0.80 2.10 -1.50 2.60 -1.50 0.50 0 1.90 -0.65 3.10 -1.50 1.20 -0.80 2.75 -1.50 3.40 -1.50 0.65 0 1.95 -0.65 2.85 -1.50 1.35 -1.15 2.15 -1.45 3.70 -1.40 1.55 0.05 2.30 -0.25 3.75 -1.55 1.55 -1.35 2.15 -1.55 4.40 -1.50 2.05 0.05 3.20 -0.30 5.50 -1.50 l 2.90 -1.60 7.80 0.10 c 6.65 0.05 7.95 -0.10 8.45 -0.75 0.80 -1.10 6.05 -1.10 7.65 0.05 0.85 0.55 2.05 0.80 3.90 0.70 1.50 -0.05 3.05 0.15 3.40 0.45 1.30 1.10 4.45 2.50 5.60 2.50 0.60 0 1.90 0.70 2.80 1.50 0.95 0.85 2.10 1.50 2.50 1.50 0.45 0 0.90 0.20 1.05 0.45 0.35 0.55 4.40 2.55 5.15 2.55 0.35 0 0.65 0.50 0.75 1.10 0.10 0.85 1 1.55 3.30 2.65 3.25 1.60 9.35 7.10 9.90 9 0.20 0.55 0.65 1.35 1 1.80 0.65 0.70 0.50 1.15 -1 3.65 -0.95 1.55 -1.90 3.10 -2.15 3.45 -2.25 3 -3.15 14.75 -1.50 19.50 1.25 3.50 2.65 6.10 4.40 8.05 1 1.20 1.45 2.10 1.25 2.70 -0.35 1.10 0.35 1.80 2.45 2.30 0.80 0.20 2.50 1.15 3.80 2.10 1.30 0.95 2.70 1.70 3.10 1.70 0.45 0 0.95 0.20 1.10 0.50 0.35 0.55 6.25 2.35 8.75 2.65 4.70 0.55 9.95 0.30 13.65 -0.65 z  m -172.90 -31.50 c 0.50 -0.55 1.25 -1 1.70 -1 1.35 0 3.15 -1.50 2.80 -2.40 -0.20 -0.50 0.55 -1.65 2.25 -3.35 1.85 -1.85 2.50 -2.90 2.40 -3.80 -0.10 -0.95 0.10 -1.25 1.05 -1.35 0.75 -0.15 1.35 -0.70 1.70 -1.65 0.45 -1.10 0.80 -1.40 1.50 -1.15 0.75 0.25 2.15 -0.85 5.95 -4.60 2.75 -2.75 5.20 -5.35 5.45 -5.80 0.40 -0.75 -0.45 -1.85 -4.80 -6.20 -2.90 -2.90 -5.20 -5.40 -5.05 -5.60 0.10 -0.20 0 -0.85 -0.25 -1.45 -0.35 -1 -0.80 -1.15 -3.55 -1.20 -1.75 0 -2.85 -0.15 -2.50 -0.30 1.60 -0.65 0.45 -2.55 -4.65 -7.45 -3.85 -3.80 -5.50 -5.05 -6.20 -4.85 -0.50 0.15 -3.15 2.45 -5.80 5.20 -4.10 4.15 -4.80 5.10 -4.55 6.15 0.25 1 0.05 1.20 -1.20 1.50 -1.20 0.20 -1.60 0.60 -1.80 1.80 -0.25 1.05 -0.50 1.35 -0.90 1.05 -1 -0.80 -2.45 0.25 -7.45 5.35 -4.10 4.20 -4.85 5.20 -4.45 5.95 0.30 0.50 2.75 3.10 5.55 5.80 3.85 3.80 5.20 4.85 5.95 4.65 0.75 -0.25 1.05 -0.05 1.25 1.15 0.25 1.10 0.65 1.55 1.75 1.80 1.20 0.25 1.40 0.50 1.25 1.45 -0.20 0.90 0.80 2.15 4.85 6.20 2.80 2.80 5.50 5.10 5.95 5.10 0.50 0 1.30 -0.45 1.80 -1 z  m -84.20 -4.40 c 2.20 -1.15 6.25 -4.95 5.75 -5.45 -0.20 -0.20 0.40 -0.70 1.30 -1.15 1.50 -0.70 1.65 -0.95 1.70 -3.05 0 -1.25 0.40 -2.85 0.85 -3.50 0.50 -0.65 0.85 -1.45 0.85 -1.80 0 -0.35 0.45 -0.65 1 -0.65 0.65 0 1 0.35 1 0.95 0 0.55 0.35 1.30 0.75 1.75 0.40 0.40 0.75 1.10 0.75 1.55 0 0.40 0.35 0.90 0.75 1.05 0.40 0.20 0.75 0.85 0.75 1.45 0 0.65 0.35 1.50 0.75 1.95 0.40 0.40 0.75 1.55 0.75 2.55 0 2.10 1.30 2.90 3.70 2.20 2 -0.60 2.10 -0.80 1.20 -2.60 -0.45 -0.90 -0.95 -2.45 -1.15 -3.45 -0.20 -1.25 -0.55 -1.90 -1.05 -1.90 -0.40 0 -0.60 -0.25 -0.45 -0.50 0.20 -0.30 -0.15 -1.25 -0.70 -2.20 -0.60 -0.90 -1.05 -2.05 -1.05 -2.50 0 -0.50 -0.20 -0.70 -0.50 -0.55 -0.25 0.15 -0.50 -0.10 -0.50 -0.60 0 -0.55 -0.35 -1.40 -0.75 -1.95 -0.45 -0.55 -0.70 -2.10 -0.75 -3.80 0 -2.70 -0.15 -3.05 -2 -4.95 -1.10 -1.15 -2 -2.20 -2 -2.40 0 -0.45 -2.80 -2.05 -3.10 -1.75 -0.15 0.10 -0.55 -0.10 -0.90 -0.55 -0.35 -0.40 -0.95 -0.75 -1.35 -0.75 -0.40 0 -1.25 -0.40 -1.85 -0.85 -0.95 -0.75 -2 -0.90 -6.95 -0.75 l -5.80 0.15 -5 5 c -4.95 4.90 -5.05 5 -5.05 7.35 0 1.30 -0.35 2.80 -0.75 3.30 -1 1.35 -1.05 10.40 -0.10 11.40 0.40 0.35 0.85 1.30 1.05 2.05 0.20 0.90 0.65 1.35 1.30 1.35 0.55 0 1.20 0.60 1.60 1.40 0.55 1.15 1.05 1.40 3.25 1.60 1.45 0.15 2.90 0.55 3.25 0.90 0.95 0.95 7.35 0.75 9.45 -0.30 z  m 174.60 -54.10 c 0.30 -0.80 0.85 -1.50 1.15 -1.50 1.10 0 2.20 -1.55 2.20 -3.05 0 -0.80 0.45 -1.95 1 -2.55 1 -1.10 1 -1.10 1 -0.05 0 0.55 0.65 1.80 1.50 2.70 0.80 0.95 1.50 1.95 1.50 2.20 0 0.30 0.70 1.25 1.55 2.15 1.35 1.55 1.70 1.65 3.50 1.35 2.50 -0.45 2.60 -1.65 0.25 -3.80 -0.95 -0.85 -2.45 -3.05 -3.35 -4.90 -0.90 -1.80 -1.80 -3.40 -2 -3.55 -0.15 -0.15 -0.40 -1.55 -0.55 -3.15 -0.15 -1.65 -0.45 -3.10 -0.70 -3.25 -0.25 -0.20 -0.75 -0.95 -1.05 -1.70 -0.35 -0.80 -0.95 -1.40 -1.35 -1.40 -0.40 0 -1.35 -0.30 -2.15 -0.70 -3.20 -1.60 -5.15 -2 -9.95 -2.20 l -5.05 -0.15 -2.30 2.20 c -1.30 1.20 -2.35 2.60 -2.35 3.05 0 0.50 -0.35 1.20 -0.75 1.60 -0.60 0.60 -0.75 2.15 -0.75 7.20 0 6.80 0.40 8 2.45 8 0.50 0 1.20 0.35 1.55 0.75 0.35 0.40 1.20 0.75 1.95 0.75 0.70 0 1.75 0.35 2.25 0.75 0.70 0.55 2.30 0.75 5.45 0.75 l 4.45 0 0.55 -1.50 z  m 243.60 -39 c 0.15 -0.30 0.75 -0.50 1.30 -0.50 0.55 0 1.40 -0.35 1.80 -0.80 0.60 -0.55 1.35 -0.70 2.50 -0.55 1.85 0.30 3.65 -0.90 3.65 -2.45 0 -0.40 0.20 -0.65 0.50 -0.45 0.60 0.35 2.50 -1.50 2.50 -2.45 0 -0.40 0.55 -1.15 1.25 -1.70 0.70 -0.55 1.40 -1.70 1.55 -2.55 0.20 -0.85 0.50 -1.55 0.75 -1.55 0.20 0 0.55 -0.85 0.75 -1.85 0.20 -1.05 0.65 -2.35 1 -2.90 0.50 -0.70 0.70 -2.85 0.70 -7.65 0 -6.70 -0.05 -7 -2.05 -10.60 -0.25 -0.40 -0.85 -1.70 -1.40 -2.85 -0.50 -1.10 -1.40 -2.20 -1.90 -2.35 -0.55 -0.20 -1.25 -0.90 -1.55 -1.55 -0.30 -0.70 -0.90 -1.25 -1.30 -1.25 -0.40 0 -0.80 -0.70 -1 -1.70 -0.25 -1.40 -0.60 -1.80 -1.80 -2.05 -0.80 -0.20 -1.45 -0.50 -1.45 -0.65 0.20 -1.40 -0.20 -2.05 -1.55 -2.35 -0.80 -0.20 -1.45 -0.50 -1.45 -0.65 0.25 -1.50 -0.15 -2.10 -1.30 -2.10 -0.75 0 -1.75 -0.60 -2.55 -1.45 -0.75 -0.85 -2 -1.65 -2.80 -1.80 -0.85 -0.20 -1.70 -0.85 -2 -1.55 -0.40 -0.85 -0.95 -1.20 -2 -1.20 -2.40 0 -1.80 -1.75 2 -5.80 1.85 -1.95 3.85 -4.30 4.50 -5.15 0.65 -0.85 1.45 -1.55 1.80 -1.55 0.30 0 1.70 -1.15 3.05 -2.55 1.40 -1.40 3.10 -2.85 3.85 -3.25 0.75 -0.40 1.55 -1.30 1.70 -1.95 0.20 -0.80 0.65 -1.25 1.25 -1.25 0.55 0 1.10 -0.35 1.30 -0.75 0.35 -1 3 -2.40 3.70 -1.95 0.30 0.15 1.20 -0.15 2 -0.75 0.75 -0.55 1.85 -1.05 2.40 -1.05 0.50 0 1.05 -0.30 1.20 -0.65 0.15 -0.40 0.95 -0.70 1.85 -0.75 0.95 0 2.20 -0.60 3.30 -1.55 1.50 -1.35 2.15 -1.55 4.50 -1.55 1.55 0 3.20 -0.30 3.85 -0.75 0.65 -0.40 1.95 -0.70 2.90 -0.65 1 0.05 2.35 -0.30 3 -0.75 1 -0.75 2.70 -0.85 11.40 -0.85 8.90 0 10.35 0.10 11.15 0.85 0.65 0.55 1.65 0.80 3.10 0.70 1.45 -0.05 2.35 0.15 2.80 0.70 0.40 0.50 1.45 0.75 3 0.75 2.05 0 2.60 0.20 3.65 1.45 0.65 0.80 1.60 1.55 2.15 1.65 0.80 0.15 0.95 0.70 0.95 5.15 0.05 5.80 0.95 8.95 3.60 12.90 2.95 4.30 6.20 7 11.20 9.30 10.50 4.80 23.35 2.95 31.65 -4.50 6.50 -5.85 9.25 -13.40 7.85 -21.25 -1.65 -8.95 -10 -17.35 -19.55 -19.60 -12.45 -2.95 -25.05 1.65 -31.35 11.50 -1.60 2.50 -1.90 2.75 -2.75 2.25 -0.50 -0.35 -1.05 -1 -1.20 -1.45 -0.20 -0.75 -0.85 -0.90 -3.25 -0.90 -2.20 0 -3.05 -0.20 -3.25 -0.75 -0.20 -0.50 -1.05 -0.75 -2.75 -0.75 -1.65 0 -2.55 -0.25 -2.85 -0.80 -0.35 -0.65 -2.15 -0.75 -13.60 -0.70 -8.30 0 -13.30 0.20 -13.50 0.55 -0.20 0.25 -1.25 0.60 -2.40 0.75 -1.15 0.10 -2.85 0.55 -3.80 0.95 -1 0.40 -2.80 0.75 -4 0.75 -2.10 0 -5.90 1.50 -6.60 2.55 -0.15 0.25 -1.15 0.45 -2.25 0.45 -1.05 0 -1.95 0.20 -1.95 0.45 0 0.40 -3.90 2.55 -4.65 2.55 -0.15 0 -1.40 0.65 -2.70 1.40 -3.95 2.35 -5.05 2.35 -7.50 0.05 -1.15 -1.05 -2.35 -1.95 -2.65 -1.95 -0.70 0 -2.50 -1.85 -2.50 -2.55 0 -0.30 -0.75 -1.40 -1.70 -2.45 -0.90 -1 -1.85 -2.20 -2.10 -2.55 -0.45 -0.70 -1.60 -1.50 -3.60 -2.55 -1.05 -0.55 -1.45 -0.30 -4.85 3.10 -2.05 2.05 -3.75 4 -3.75 4.35 0 0.80 -1.80 2.65 -2.55 2.65 -0.65 0 -6.85 5.90 -7.50 7.10 -0.30 0.60 -0.30 1.30 0.10 2 0.90 1.70 4.80 5.65 6.35 6.45 1.85 0.95 3.60 2.55 3.60 3.35 0 0.35 0.60 1.20 1.30 1.85 0.95 0.90 1.25 1.55 1.10 2.85 -0.15 1.40 -0.35 1.65 -1.60 1.80 -1 0.15 -2.40 1.10 -4.10 2.75 -4.65 4.55 -6.70 6.35 -7.35 6.35 -0.90 0 -1.85 1.05 -1.85 2.05 0 0.50 -0.65 1.55 -1.50 2.35 -0.80 0.85 -1.50 1.70 -1.50 1.95 0 0.25 -0.65 1.25 -1.50 2.15 -0.80 0.90 -1.50 2.05 -1.50 2.55 0 0.45 -0.55 1.20 -1.25 1.65 -0.70 0.45 -1.40 1.45 -1.60 2.20 -0.15 0.75 -0.95 2 -1.75 2.75 -1.10 1.10 -1.40 1.90 -1.40 3.50 0 1.15 -0.35 2.55 -0.75 3.05 -0.40 0.55 -0.75 1.35 -0.75 1.85 0 0.45 -0.35 1.10 -0.75 1.45 -0.60 0.50 -0.75 2.20 -0.75 9.45 l 0 8.85 2.55 2.35 c 1.40 1.30 2.85 2.35 3.20 2.35 0.35 0 0.75 0.25 0.85 0.55 0.10 0.30 1.05 0.60 2.05 0.65 1.05 0.10 2.15 0.40 2.50 0.75 0.30 0.30 2.10 0.55 4.10 0.55 2.15 0 3.80 0.25 4.15 0.65 0.45 0.40 3.95 0.65 12.50 0.85 11.35 0.25 13.15 0.10 13.85 -1 z  M370.70 83.55 C 370.70 70.20 359.90 59.40 346.55 59.40 333.20 59.40 322.35 70.20 322.35 83.55 322.35 96.90 333.20 107.75 346.55 107.75 359.90 107.75 370.70 96.90 370.70 83.55 Z M352.55 107.40  m -183.30 -0.40 c 5.85 -1.85 10.15 -4.40 14 -8.30 4.50 -4.55 5.90 -7.80 5.90 -13.80 -0.05 -6.65 -2.45 -11.05 -8.70 -15.90 -6.45 -5 -16.90 -7.90 -25.80 -7.20 -5.30 0.45 -13.40 1.80 -14.75 2.50 -0.75 0.40 -1.80 0.70 -2.35 0.70 -0.85 0 -5.05 3.60 -5.05 4.35 0 0.15 -1.25 1.60 -2.75 3.25 -1.50 1.65 -3 3.85 -3.30 4.85 -0.30 1 -0.80 2.10 -1.10 2.45 -0.25 0.35 -0.45 2.60 -0.45 5.05 0.05 5.75 1.40 8.90 5.65 13.30 4.70 4.95 8.50 7.05 16.45 9.30 4.80 1.35 17.30 1.05 22.25 -0.55 z  m -125.95 -4.85 c 10.45 -15.45 15.25 -22.40 15.60 -22.55 0.20 -0.05 3.70 5.30 7.75 11.90 4.10 6.60 7.60 12 7.80 12 0.25 0 1.50 -0.75 2.95 -1.75 0.10 -0.10 -7.25 -12.15 -13.70 -22.45 -2.35 -3.70 -2.50 -4.05 -1.70 -4.55 0.85 -0.55 0.55 -0.95 -1.35 -2.20 -1.50 -0.90 -3.20 -3.30 -7.80 -10.70 -3.20 -5.30 -6.05 -9.90 -6.30 -10.30 -0.35 -0.55 -0.70 -0.50 -2 0.25 -0.85 0.50 -1.45 1.20 -1.35 1.55 0.15 0.30 2.80 4.70 5.95 9.75 3.10 5.05 6.10 9.90 6.60 10.75 l 0.95 1.60 -3 4.40 c -1.60 2.40 -6.10 9 -9.90 14.60 l -6.95 10.20 1.20 0.90 c 0.65 0.50 1.45 0.95 1.75 0.95 0.30 0 1.85 -1.95 3.50 -4.35 z  m 91.05 -47.75 c 5.95 -5.95 9.15 -9.50 9.15 -10.15 -0.05 -1.15 -0.75 -2.05 -4.65 -5.65 -1.85 -1.70 -3.15 -2.60 -3.65 -2.40 -0.40 0.15 -0.60 0.05 -0.45 -0.20 0.15 -0.25 -0.15 -0.85 -0.75 -1.35 -0.55 -0.50 -1 -1.10 -1 -1.40 0 -0.30 -1.75 -2.30 -3.95 -4.45 -3.05 -3.05 -4.15 -3.85 -4.90 -3.60 -1 0.30 -5.90 5.35 -8.80 9 -0.80 1 -1.75 1.80 -2.05 1.80 -0.35 0 -1.05 0.45 -1.55 1 -0.50 0.55 -1.15 1 -1.45 1 -1.35 0.05 -4.80 4.75 -4.80 6.60 0 0.70 7.30 7.90 8 7.90 0.65 0 2.80 2.15 2.65 2.60 -0.20 0.60 7.50 8.35 8.30 8.40 0.40 0 4.85 -4.10 9.90 -9.10 z  m 371.40 -32.60 c 1.90 -1.85 2.25 -2.50 2.25 -4.10 l 0.05 -1.95 0.95 1.20 c 0.55 0.65 1 1.50 1 1.85 0 0.95 3 3.65 4.05 3.70 1.20 0 1.65 -2.85 0.70 -4.30 -0.40 -0.65 -0.75 -1.50 -0.75 -1.90 0 -0.40 -0.30 -1.05 -0.60 -1.40 -1.25 -1.35 -2.40 -4 -2.40 -5.45 0 -1 -0.50 -1.90 -1.60 -2.95 l -1.65 -1.45 -6.65 -0.05 -6.65 0 -0.50 1.50 c -0.35 0.95 -0.90 1.50 -1.50 1.50 -1.35 0 -1.95 1.90 -1.95 6.15 l 0 3.60 3.05 3.15 3.05 3.10 3.50 0 c 3.40 0 3.45 -0.05 5.65 -2.20 z "/>
  <path d="M68.90 206.85 C 68.90 214.05 63.10 219.90 55.90 219.90 48.70 219.90 42.85 214.05 42.85 206.85 42.85 199.65 48.70 193.80 55.90 193.80 63.10 193.80 68.90 199.65 68.90 206.85 Z M53.45 220.60 "/>
  <path d="M236.60 158.10 C 236.60 162.80 232.80 166.65 228.10 166.65 223.40 166.65 219.55 162.80 219.55 158.10 219.55 153.40 223.40 149.55 228.10 149.55 232.80 149.55 236.60 153.40 236.60 158.10 Z M226 166.55 "/>
  <path d="M 454.20 127.25 c -0.55 -0.45 -2.10 -0.70 -3.90 -0.75 -2.05 0 -3.25 -0.25 -3.90 -0.85 -0.50 -0.45 -1.65 -0.80 -2.50 -0.75 -1.95 0.10 -4.90 -1.20 -4.90 -2.10 0 -0.35 -0.55 -0.95 -1.25 -1.30 -1.25 -0.65 -1.25 -0.75 -1.25 -7.25 0 -5.30 0.15 -6.75 0.75 -7.25 0.40 -0.35 0.75 -1.35 0.75 -2.20 0 -0.85 0.35 -2 0.75 -2.50 0.40 -0.55 0.75 -1.70 0.75 -2.55 0 -1.15 0.30 -1.75 1.20 -2.25 1.25 -0.65 1.80 -1.85 1.80 -3.90 0 -0.60 0.15 -1.05 0.40 -1.05 1.20 0.20 1.75 -0.40 3.15 -3.35 0.90 -1.85 2.45 -4.20 3.50 -5.25 1.10 -1.10 1.95 -2.30 1.95 -2.75 0 -0.40 0.20 -0.65 0.50 -0.45 0.60 0.35 2.50 -1.50 2.50 -2.50 0 -0.40 0.35 -0.75 0.75 -0.75 0.45 0 2.15 -1.35 3.75 -3 2.60 -2.55 3.25 -2.95 4.75 -2.90 1.25 0.05 1.75 0.30 1.75 0.90 0 1.05 0.95 2 2 2 0.45 0 1.45 0.65 2.25 1.50 0.80 0.80 1.75 1.50 2.10 1.50 0.35 0 1.50 0.75 2.50 1.70 1.05 0.90 2.20 1.55 2.55 1.45 0.35 -0.15 0.60 0.15 0.60 0.70 0 1.20 0.95 2.15 2.10 2.15 0.55 0 0.90 0.35 0.90 0.90 0 1.15 0.95 2.10 2.10 2.10 0.55 0 0.90 0.35 0.90 1 0 0.65 0.60 1.40 1.50 1.90 0.80 0.45 1.50 1.15 1.50 1.50 0 0.35 0.65 1.05 1.50 1.50 1.05 0.60 1.50 1.25 1.50 2.15 0 0.75 0.35 1.60 0.75 1.95 0.40 0.35 0.75 1 0.75 1.50 0 0.50 0.35 1.15 0.75 1.50 0.55 0.50 0.75 1.75 0.75 5.50 0 3.75 -0.20 5 -0.75 5.50 -0.40 0.35 -0.75 1.45 -0.75 2.50 0 1.20 -0.25 2 -0.75 2.20 -0.45 0.15 -0.75 0.90 -0.75 1.85 0 1.15 -0.25 1.60 -1 1.80 -0.60 0.15 -1.35 0.90 -1.80 1.70 -0.40 0.80 -1.15 1.45 -1.65 1.45 -0.60 0 -1.15 0.55 -1.50 1.50 -0.35 1.10 -0.80 1.50 -1.70 1.50 -0.70 0 -1.90 0.35 -2.65 0.75 -0.80 0.40 -1.80 0.75 -2.25 0.75 -0.40 0 -1.20 0.35 -1.75 0.75 -1.40 1.05 -19.55 1.10 -21 0 z "/>
  <path d="M 577 68.85 l -1.75 -0.55 1.95 -0.20 c 1.30 -0.10 2.20 0.10 2.75 0.60 0.70 0.75 0.65 0.80 -0.20 0.75 -0.55 0 -1.80 -0.30 -2.75 -0.60 z "/>
  <path d="M 467.50 40.60 c 0 -0.25 0.35 -0.75 0.75 -1.10 0.40 -0.35 0.75 -0.40 0.75 -0.10 0 0.25 -0.35 0.75 -0.75 1.10 -0.40 0.35 -0.75 0.40 -0.75 0.10 z "/>
  <path d="M 340.40 104.15 c -1.35 -0.45 -2.40 -1 -2.40 -1.20 0 -0.25 -0.30 -0.45 -0.65 -0.45 -0.35 0 -1.30 -0.65 -2.10 -1.50 -1.30 -1.35 -1.35 -1.55 -0.65 -2.35 0.40 -0.50 5.45 -6.50 11.15 -13.40 13.45 -16.15 11.95 -14.65 13 -13.10 0.45 0.70 1.40 2.90 2.05 4.85 3.35 9.95 -0.95 22.35 -9.10 26.50 -3.10 1.55 -7.95 1.85 -11.30 0.65 z "/>
  <path d="M 330.60 94.20 c -2.25 -4.45 -2.65 -9.95 -1.10 -15.95 2.25 -8.80 8.40 -14.25 16.10 -14.25 2.55 0 6.35 1.25 8.25 2.80 l 1.35 1.10 -2.45 3 c -2.60 3.15 -20.15 24.05 -20.80 24.80 -0.20 0.20 -0.80 -0.45 -1.35 -1.50 z "/>
  <path d="M505.80 14 C 505.80 17.05 503.30 19.50 500.25 19.50 497.20 19.50 494.70 17.05 494.70 14 494.70 10.95 497.20 8.45 500.25 8.45 503.30 8.45 505.80 10.95 505.80 14 Z M496.75 17.95 "/>
 </g>
<g>
</g>
</svg>