<?xml version="1.0" encoding="UTF-8" standalone="no"?>
<svg xmlns:dc="http://purl.org/dc/elements/1.1/" xmlns:cc="http://creativecommons.org/ns#"
  xmlns:rdf="http://www.w3.org/1999/02/22-rdf-syntax-ns#" xmlns:svg="http://www.w3.org/2000/svg"
  xmlns="http://www.w3.org/2000/svg" xmlns:sodipodi="http://sodipodi.sourceforge.net/DTD/sodipodi-0.dtd"
  xmlns:inkscape="http://www.inkscape.org/namespaces/inkscape" class="logo_omnidb" version="1.1" x="0px"
  y="0px" width="269.667px" height="82.333px" viewBox="0 0 269.667 82.333"
  enable-background="new 0 0 269.667 82.333" xml:space="preserve" id="svg903" >

  <g transform="matrix(0.04845922,0,0,0.04845922,8.523555,20.689344)" id="g_symbol" class="logo_pgmanage">
    <ellipse style="fill:#adc9d7;fill-opacity:0.501661;stroke:none" id="ellipse" ry="280.06299" rx="550"
      cy="739.81738" cx="596.9353" />
    <g id="g_gearstack" transform="matrix(1,0,0,0.89246526,0,102.34862)">
      <g transform="translate(-16.983511,7.2102212)" id="gear-0" style="stroke:none">
        <path style="fill:#003856;fill-opacity:1" id="path870"
          d="m 1061.2758,757.9066 -0.855,-136.7 c 1.035,-2.308 1.246,-5.124 -0.053,-8.514 l -0.054,-8.672 -4.63,1.998 -3.088,-4.071 8.609,-138.127 -212.60903,-19.998 v -127.574 l -130.337,64.535 -154.83,-4.424 -74.097,-69.674 -107.669,5.457 -5.136,106.34 -19.907,9.856 -61.932,4.428 -123.378,33.222 2.949,144.998 c 0,0 -6.756,8.354 0.036,16.406 l 0.295,134.328 c -1.6,2.753 -2.009,5.915 0.021,9.373 l 39.868,52.369 c 0,0 13.043,8.682 28.222,4.992 l 102.154,-16.421 c 0,0 23.666,1.358 42.123,12.592 l 0.829,92.66 c -0.608,4.036 0.804,10.341 13.741,13.634 l 84.392,20.423 c 0,0 19.465,2.665 27.279,-5.274 l 59.021,-58.451 c 0,0 24.044,-8.611 48.542,-6.714 0,0 42.169,3.833 51.62,11.988 l 48.744,47.185 c 0,0 11.941,14.925 35.763,9.806 l 84.455,-20.39 c 0,0 16.194,-4.171 12.426,-15.45 l 1.343,-92.85 c 0.847,-0.367 1.684,-0.734 2.579,-1.1 0,0 25.195,-15.881 65.245,-8.964 39.973,6.922 76.492,11.7 76.492,11.7 0,0 21.06703,4.338 30.41003,-8.109 9.343,-12.475 30.381,-51.232 30.381,-51.232 0,0 1.573,-2.06 0.017,-5.027 z" />
        <path style="fill:#316c8b;fill-opacity:1" id="path872"
          d="m 401.54777,776.3836 84.392,20.423 c 0,0 19.465,2.665 27.279,-5.274 l 59.021,-58.451 c 0,0 24.044,-8.61 48.542,-6.714 0,0 42.169,3.833 51.62,11.988 l 48.744,47.185 c 0,0 11.941,14.925 35.763,9.806 l 84.455,-20.39 c 0,0 17.104,-4.401 12.078,-16.393 l -26.714,-58.561 c 0,0 -10.784,-17.314 30.985,-34.446 0,0 25.195,-15.881 65.245,-8.964 39.973,6.922 76.492,11.7 76.492,11.7 0,0 21.06703,4.338 30.41003,-8.109 9.343,-12.475 30.381,-51.233 30.381,-51.233 0,0 6.796,-8.834 -21.62,-16.287 l -71.16403,-24.101 c 0,0 -21.137,-6.673 -22.925,-25.701 0,0 -7.473,-23.641 7.975,-30.452 l 95.37603,-36.691 c 0,0 18.495,-4.761 12.018,-18.68 l -38.438,-50.666 c 0,0 -15.669,-11.233 -34.76603,-5.644 l -77.517,12.878 c 0,0 -30.931,7.321 -58.663,-10.727 0,0 -32.107,-15.777 -26.362,-31.073 l 24.442,-55.558 c 0,0 8.866,-12.609 -19.402,-18.69 l -79.336,-18.891 c 0,0 -25.775,-3.185 -35.108,7.658 l -43.544,45.118 c 0,0 -8.672,13.986 -43.016,14.93 0,0 -45.967,6.358 -64.085,-11.016 l -50.252,-48.212 c 0,0 -7.547,-11.614 -39.137,-7.374 l -75.198,18.363 c 0,0 -25.863,7.22 -15.667,23.033 l 22.639,50.783 c 0,0 8.209,13.073 -20.745,28.727 0,0 -27.349,20.56 -57.893,15.253 l -87.053,-12.555 c 0,0 -25.698,-5.783 -36.991,9.466 l -29.547,43.609 c 0,0 -13.056,16.139 15.366,25.177 l 82.704,25.278 c 0,0 21.223,12.898 19.845,29.204 0,0 0.52,25.596 -24.917,32.294 l -77.53,27.721 c 0,0 -22.148,8.457 -15.117,20.435 l 39.868,52.369 c 0,0 13.043,8.682 28.222,4.992 l 102.154,-16.421 c 0,0 31.287,1.789 49.97,18.326 0,0 22.036,15.697 21.771,22.488 0,0 -26.063,57.823 -27.53,60.716 -0.003,-0.002 -7.494,12.27 12.48,17.354 z m 25.669,-284.053 c 42.711,-60.742 161.999,-89.812 266.345,-64.966 104.452,24.872 154.397,94.239 111.686,154.981 -42.701,60.728 -161.903,89.857 -266.358,64.984 -104.345,-24.846 -154.375,-94.271 -111.673,-154.999 z" />
      </g>
      <g id="gear-1" transform="translate(-16.983511,-191.89241)">
        <path style="fill:#dd8a00;fill-opacity:1" id="path870-3"
          d="m 1061.2758,757.9066 -0.855,-136.7 c 1.035,-2.308 1.246,-5.124 -0.053,-8.514 l -0.054,-8.672 -4.63,1.998 -3.088,-4.071 8.609,-138.127 -212.60903,-19.998 v -127.574 l -130.337,64.535 -154.83,-4.424 -74.097,-69.674 -107.669,5.457 -5.136,106.34 -19.907,9.856 -61.932,4.428 -123.378,33.222 2.949,144.998 c 0,0 -6.756,8.354 0.036,16.406 l 0.295,134.328 c -1.6,2.753 -2.009,5.915 0.021,9.373 l 39.868,52.369 c 0,0 13.043,8.682 28.222,4.992 l 102.154,-16.421 c 0,0 23.666,1.358 42.123,12.592 l 0.829,92.66 c -0.608,4.036 0.804,10.341 13.741,13.634 l 84.392,20.423 c 0,0 19.465,2.665 27.279,-5.274 l 59.021,-58.451 c 0,0 24.044,-8.611 48.542,-6.714 0,0 42.169,3.833 51.62,11.988 l 48.744,47.185 c 0,0 11.941,14.925 35.763,9.806 l 84.455,-20.39 c 0,0 16.194,-4.171 12.426,-15.45 l 1.343,-92.85 c 0.847,-0.367 1.684,-0.734 2.579,-1.1 0,0 25.195,-15.881 65.245,-8.964 39.973,6.922 76.492,11.7 76.492,11.7 0,0 21.06703,4.338 30.41003,-8.109 9.343,-12.475 30.381,-51.232 30.381,-51.232 0,0 1.573,-2.06 0.017,-5.027 z" />
        <path style="fill:#ffce7d;fill-opacity:1" id="path872-5"
          d="m 401.54777,776.3836 84.392,20.423 c 0,0 19.465,2.665 27.279,-5.274 l 59.021,-58.451 c 0,0 24.044,-8.61 48.542,-6.714 0,0 42.169,3.833 51.62,11.988 l 48.744,47.185 c 0,0 11.941,14.925 35.763,9.806 l 84.455,-20.39 c 0,0 17.104,-4.401 12.078,-16.393 l -26.714,-58.561 c 0,0 -10.784,-17.314 30.985,-34.446 0,0 25.195,-15.881 65.245,-8.964 39.973,6.922 76.492,11.7 76.492,11.7 0,0 21.06703,4.338 30.41003,-8.109 9.343,-12.475 30.381,-51.233 30.381,-51.233 0,0 6.796,-8.834 -21.62,-16.287 l -71.16403,-24.101 c 0,0 -21.137,-6.673 -22.925,-25.701 0,0 -7.473,-23.641 7.975,-30.452 l 95.37603,-36.691 c 0,0 18.495,-4.761 12.018,-18.68 l -38.438,-50.666 c 0,0 -15.669,-11.233 -34.76603,-5.644 l -77.517,12.878 c 0,0 -30.931,7.321 -58.663,-10.727 0,0 -32.107,-15.777 -26.362,-31.073 l 24.442,-55.558 c 0,0 8.866,-12.609 -19.402,-18.69 l -79.336,-18.891 c 0,0 -25.775,-3.185 -35.108,7.658 l -43.544,45.118 c 0,0 -8.672,13.986 -43.016,14.93 0,0 -45.967,6.358 -64.085,-11.016 l -50.252,-48.212 c 0,0 -7.547,-11.614 -39.137,-7.374 l -75.198,18.363 c 0,0 -25.863,7.22 -15.667,23.033 l 22.639,50.783 c 0,0 8.209,13.073 -20.745,28.727 0,0 -27.349,20.56 -57.893,15.253 l -87.053,-12.555 c 0,0 -25.698,-5.783 -36.991,9.466 l -29.547,43.609 c 0,0 -13.056,16.139 15.366,25.177 l 82.704,25.278 c 0,0 21.223,12.898 19.845,29.204 0,0 0.52,25.596 -24.917,32.294 l -77.53,27.721 c 0,0 -22.148,8.457 -15.117,20.435 l 39.868,52.369 c 0,0 13.043,8.682 28.222,4.992 l 102.154,-16.421 c 0,0 31.287,1.789 49.97,18.326 0,0 22.036,15.697 21.771,22.488 0,0 -26.063,57.823 -27.53,60.716 -0.003,-0.002 -7.494,12.27 12.48,17.354 z m 25.669,-284.053 c 42.711,-60.742 161.999,-89.812 266.345,-64.966 104.452,24.872 154.397,94.239 111.686,154.981 -42.701,60.728 -161.903,89.857 -266.358,64.984 -104.345,-24.846 -154.375,-94.271 -111.673,-154.999 z" />
      </g>
      <g id="gear-2" transform="translate(-16.983511,-392.274)" style="stroke:none">
        <path style="fill:#be9569;fill-opacity:1" id="path870-6"
          d="m 1061.2758,757.9066 -0.855,-136.7 c 1.035,-2.308 1.246,-5.124 -0.053,-8.514 l -0.054,-8.672 -4.63,1.998 -3.088,-4.071 8.609,-138.127 -212.60903,-19.998 v -127.574 l -130.337,64.535 -154.83,-4.424 -74.097,-69.674 -107.669,5.457 -5.136,106.34 -19.907,9.856 -61.932,4.428 -123.378,33.222 2.949,144.998 c 0,0 -6.756,8.354 0.036,16.406 l 0.295,134.328 c -1.6,2.753 -2.009,5.915 0.021,9.373 l 39.868,52.369 c 0,0 13.043,8.682 28.222,4.992 l 102.154,-16.421 c 0,0 23.666,1.358 42.123,12.592 l 0.829,92.66 c -0.608,4.036 0.804,10.341 13.741,13.634 l 84.392,20.423 c 0,0 19.465,2.665 27.279,-5.274 l 59.021,-58.451 c 0,0 24.044,-8.611 48.542,-6.714 0,0 42.169,3.833 51.62,11.988 l 48.744,47.185 c 0,0 11.941,14.925 35.763,9.806 l 84.455,-20.39 c 0,0 16.194,-4.171 12.426,-15.45 l 1.343,-92.85 c 0.847,-0.367 1.684,-0.734 2.579,-1.1 0,0 25.195,-15.881 65.245,-8.964 39.973,6.922 76.492,11.7 76.492,11.7 0,0 21.06703,4.338 30.41003,-8.109 9.343,-12.475 30.381,-51.232 30.381,-51.232 0,0 1.573,-2.06 0.017,-5.027 z" />
        <path style="fill:#dec9b2;fill-opacity:1" id="path872-7"
          d="m 401.54777,776.3836 84.392,20.423 c 0,0 19.465,2.665 27.279,-5.274 l 59.021,-58.451 c 0,0 24.044,-8.61 48.542,-6.714 0,0 42.169,3.833 51.62,11.988 l 48.744,47.185 c 0,0 11.941,14.925 35.763,9.806 l 84.455,-20.39 c 0,0 17.104,-4.401 12.078,-16.393 l -26.714,-58.561 c 0,0 -10.784,-17.314 30.985,-34.446 0,0 25.195,-15.881 65.245,-8.964 39.973,6.922 76.492,11.7 76.492,11.7 0,0 21.06703,4.338 30.41003,-8.109 9.343,-12.475 30.381,-51.233 30.381,-51.233 0,0 6.796,-8.834 -21.62,-16.287 l -71.16403,-24.101 c 0,0 -21.137,-6.673 -22.925,-25.701 0,0 -7.473,-23.641 7.975,-30.452 l 95.37603,-36.691 c 0,0 18.495,-4.761 12.018,-18.68 l -38.438,-50.666 c 0,0 -15.669,-11.233 -34.76603,-5.644 l -77.517,12.878 c 0,0 -30.931,7.321 -58.663,-10.727 0,0 -32.107,-15.777 -26.362,-31.073 l 24.442,-55.558 c 0,0 8.866,-12.609 -19.402,-18.69 l -79.336,-18.891 c 0,0 -25.775,-3.185 -35.108,7.658 l -43.544,45.118 c 0,0 -8.672,13.986 -43.016,14.93 0,0 -45.967,6.358 -64.085,-11.016 l -50.252,-48.212 c 0,0 -7.547,-11.614 -39.137,-7.374 l -75.198,18.363 c 0,0 -25.863,7.22 -15.667,23.033 l 22.639,50.783 c 0,0 8.209,13.073 -20.745,28.727 0,0 -27.349,20.56 -57.893,15.253 l -87.053,-12.555 c 0,0 -25.698,-5.783 -36.991,9.466 l -29.547,43.609 c 0,0 -13.056,16.139 15.366,25.177 l 82.704,25.278 c 0,0 21.223,12.898 19.845,29.204 0,0 0.52,25.596 -24.917,32.294 l -77.53,27.721 c 0,0 -22.148,8.457 -15.117,20.435 l 39.868,52.369 c 0,0 13.043,8.682 28.222,4.992 l 102.154,-16.421 c 0,0 31.287,1.789 49.97,18.326 0,0 22.036,15.697 21.771,22.488 0,0 -26.063,57.823 -27.53,60.716 -0.003,-0.002 -7.494,12.27 12.48,17.354 z m 25.669,-284.053 c 42.711,-60.742 161.999,-89.812 266.345,-64.966 104.452,24.872 154.397,94.239 111.686,154.981 -42.701,60.728 -161.903,89.857 -266.358,64.984 -104.345,-24.846 -154.375,-94.271 -111.673,-154.999 z" />
      </g>
      <g id="gear-3" transform="translate(-16.983511,-591.24173)">
        <path style="fill:#31648c;fill-opacity:1" id="path870-2"
          d="m 1061.2758,757.9066 -0.855,-136.7 c 1.035,-2.308 1.246,-5.124 -0.053,-8.514 l -0.054,-8.672 -4.63,1.998 -3.088,-4.071 8.609,-138.127 -212.60903,-19.998 v -127.574 l -130.337,64.535 -154.83,-4.424 -74.097,-69.674 -107.669,5.457 -5.136,106.34 -19.907,9.856 -61.932,4.428 -123.378,33.222 2.949,144.998 c 0,0 -6.756,8.354 0.036,16.406 l 0.295,134.328 c -1.6,2.753 -2.009,5.915 0.021,9.373 l 39.868,52.369 c 0,0 13.043,8.682 28.222,4.992 l 102.154,-16.421 c 0,0 23.666,1.358 42.123,12.592 l 0.829,92.66 c -0.608,4.036 0.804,10.341 13.741,13.634 l 84.392,20.423 c 0,0 19.465,2.665 27.279,-5.274 l 59.021,-58.451 c 0,0 24.044,-8.611 48.542,-6.714 0,0 42.169,3.833 51.62,11.988 l 48.744,47.185 c 0,0 11.941,14.925 35.763,9.806 l 84.455,-20.39 c 0,0 16.194,-4.171 12.426,-15.45 l 1.343,-92.85 c 0.847,-0.367 1.684,-0.734 2.579,-1.1 0,0 25.195,-15.881 65.245,-8.964 39.973,6.922 76.492,11.7 76.492,11.7 0,0 21.06703,4.338 30.41003,-8.109 9.343,-12.475 30.381,-51.232 30.381,-51.232 0,0 1.573,-2.06 0.017,-5.027 z" />
        <path style="fill:#aecbe2;fill-opacity:1;stroke:none;stroke-width:21.8437" id="path872-9"
          d="m 401.54777,776.3836 84.392,20.423 c 0,0 19.465,2.665 27.279,-5.274 l 59.021,-58.451 c 0,0 24.044,-8.61 48.542,-6.714 0,0 42.169,3.833 51.62,11.988 l 48.744,47.185 c 0,0 11.941,14.925 35.763,9.806 l 84.455,-20.39 c 0,0 17.104,-4.401 12.078,-16.393 l -26.714,-58.561 c 0,0 -10.784,-17.314 30.985,-34.446 0,0 25.195,-15.881 65.245,-8.964 39.973,6.922 76.492,11.7 76.492,11.7 0,0 21.06703,4.338 30.41003,-8.109 9.343,-12.475 30.381,-51.233 30.381,-51.233 0,0 6.796,-8.834 -21.62,-16.287 l -71.16403,-24.101 c 0,0 -21.137,-6.673 -22.925,-25.701 0,0 -7.473,-23.641 7.975,-30.452 l 95.37603,-36.691 c 0,0 18.495,-4.761 12.018,-18.68 l -38.438,-50.666 c 0,0 -15.669,-11.233 -34.76603,-5.644 l -77.517,12.878 c 0,0 -30.931,7.321 -58.663,-10.727 0,0 -32.107,-15.777 -26.362,-31.073 l 24.442,-55.558 c 0,0 8.866,-12.609 -19.402,-18.69 l -79.336,-18.891 c 0,0 -25.775,-3.185 -35.108,7.658 l -43.544,45.118 c 0,0 -8.672,13.986 -43.016,14.93 0,0 -45.967,6.358 -64.085,-11.016 l -50.252,-48.212 c 0,0 -7.547,-11.614 -39.137,-7.374 l -75.198,18.363 c 0,0 -25.863,7.22 -15.667,23.033 l 22.639,50.783 c 0,0 8.209,13.073 -20.745,28.727 0,0 -27.349,20.56 -57.893,15.253 l -87.053,-12.555 c 0,0 -25.698,-5.783 -36.991,9.466 l -29.547,43.609 c 0,0 -13.056,16.139 15.366,25.177 l 82.704,25.278 c 0,0 21.223,12.898 19.845,29.204 0,0 0.52,25.596 -24.917,32.294 l -77.53,27.721 c 0,0 -22.148,8.457 -15.117,20.435 l 39.868,52.369 c 0,0 13.043,8.682 28.222,4.992 l 102.154,-16.421 c 0,0 31.287,1.789 49.97,18.326 0,0 22.036,15.697 21.771,22.488 0,0 -26.063,57.823 -27.53,60.716 -0.003,-0.002 -7.494,12.27 12.48,17.354 z m 25.669,-284.053 c 42.711,-60.742 161.999,-89.812 266.345,-64.966 104.452,24.872 154.397,94.239 111.686,154.981 -42.701,60.728 -161.903,89.857 -266.358,64.984 -104.345,-24.846 -154.375,-94.271 -111.673,-154.999 z" />
      </g>
    </g>
  </g>
  <g id="g_logo" transform="matrix(1.0796715,0,0,1.0796715,-5.2477716,-4.161719)"
    style="stroke:none;stroke-width:0.926208;stroke-opacity:1">
    <g aria-label="PG" id="text_pg" style="fill:#31648c">
      <path
        d="m 75.989932,31.036444 v 19.951891 h 6.270595 V 44.71774 h 1.567648 c 5.843054,0 8.351291,-2.593745 8.351291,-6.840648 0,-4.246902 -2.508237,-6.840648 -8.351291,-6.840648 z m 7.838243,4.987973 c 1.567649,0 2.365724,0.684065 2.365724,1.852675 0,1.168611 -0.798075,1.852676 -2.365724,1.852676 h -1.567648 v -3.705351 z"
        id="path914" />
      <path
        d="m 105.28982,44.147686 h 4.50343 c -0.68407,1.482141 -1.90969,2.42273 -4.2184,2.42273 -3.0783,0 -5.13049,-2.052194 -5.13049,-5.558027 0,-3.505832 2.33722,-5.272999 5.13049,-5.272999 1.90968,0 2.90727,1.111605 3.59134,2.365724 l 5.84305,-2.622249 c -1.99519,-2.764762 -4.90247,-5.016475 -9.43439,-5.016475 -6.669637,0 -11.686112,4.018881 -11.686112,10.545999 0,6.527119 4.731448,10.831027 11.401082,10.831027 7.23968,0 11.17306,-5.444016 10.603,-12.256162 h -10.603 z"
        id="path916" />
    </g>
    <g aria-label="MANAGE" id="text_manage" style="fill:#808080">
      <path
        d="m 123.8907,38.892082 6.04998,10.253735 6.04999,-10.253735 1.39178,12.099976 h 3.46526 l -2.72676,-20.87672 -8.18027,13.491758 -8.15186,-13.491758 -2.72675,20.87672 h 3.46525 z"
        id="path863" />
      <path
        d="m 157.684,50.992058 h 3.80609 l -9.74246,-20.990334 -9.71407,20.990334 h 3.77769 l 2.2723,-5.112666 h 7.29975 z m -5.93637,-14.258658 2.72675,6.305622 h -5.42511 z"
        id="path865" />
      <path
        d="M 178.26115,31.109468 V 44.459207 L 163.74686,30.115338 v 20.87672 h 3.29483 V 37.642319 l 14.51429,14.343868 V 31.109468 Z"
        id="path867" />
      <path
        d="m 199.51289,50.992058 h 3.80609 l -9.74247,-20.990334 -9.71406,20.990334 h 3.77769 l 2.2723,-5.112666 h 7.29975 z m -5.93638,-14.258658 2.72676,6.305622 h -5.42511 z"
        id="path869" />
      <path
        d="m 214.20203,43.436674 h 6.0784 c -0.65329,2.669947 -2.66995,4.857032 -6.22041,4.857032 -3.91971,0 -6.9021,-2.897177 -6.9021,-7.242943 0,-4.345766 3.0676,-7.186136 6.9021,-7.186136 2.75516,0 4.71501,1.249763 5.82275,3.124407 l 2.72676,-1.817837 c -1.76103,-2.755159 -4.65821,-4.430977 -8.54951,-4.430977 -5.99318,0 -10.45257,4.232151 -10.45257,10.310543 0,6.078392 4.37417,10.36735 10.39576,10.36735 6.36243,0 9.91289,-4.999051 9.77087,-10.821809 h -9.57205 z"
        id="path871" />
      <path
        d="m 227.21137,31.109468 v 19.88259 h 12.09997 v -2.953985 h -8.80514 v -6.248814 h 8.23707 v -2.897177 h -8.23707 v -4.828629 h 8.80514 v -2.953985 z"
        id="path873" />
    </g>
  </g>
</svg>