<?xml version="1.0" encoding="UTF-8"?>
<svg xmlns="http://www.w3.org/2000/svg" viewBox="0 0 100 100" width="120" height="120" role="img" aria-label="Chrome logo">
  <defs>
    <radialGradient id="g" cx=".5" cy=".5" r=".5">
      <stop offset="0" stop-color="#4285F4"/>
      <stop offset="1" stop-color="#1A73E8"/>
    </radialGradient>
  </defs>
  <circle cx="50" cy="50" r="48" fill="#FFF"/>
  <path d="M50 6 A44 44 0 0 1 88 28 L60 28 A22 22 0 0 0 30 40 L16 16 A44 44 0 0 1 50 6 Z" fill="#EA4335"/>
  <path d="M14 18 L36 42 A22 22 0 0 0 41 70 L26 90 A44 44 0 0 1 14 18 Z" fill="#34A853"/>
  <path d="M88 28 A44 44 0 0 1 74 86 L60 62 A22 22 0 0 0 60 38 Z" fill="#FBBC04"/>
  <circle cx="50" cy="50" r="18" fill="url(#g)"/>
  <circle cx="50" cy="50" r="14" fill="#FFFFFF" opacity=".0"/>
</svg>
