<?xml version="1.0" encoding="UTF-8" standalone="no"?>
<!-- Created with Inkscape (http://www.inkscape.org/) -->

<svg
   width="512"
   height="512"
   viewBox="0 0 512 512"
   version="1.1"
   id="svg5"
   sodipodi:docname="mariadb.svg"
   inkscape:version="1.1.2 (0a00cf5339, 2022-02-04)"
   xmlns:inkscape="http://www.inkscape.org/namespaces/inkscape"
   xmlns:sodipodi="http://sodipodi.sourceforge.net/DTD/sodipodi-0.dtd"
   xmlns="http://www.w3.org/2000/svg"
   xmlns:svg="http://www.w3.org/2000/svg">
  <sodipodi:namedview
     id="namedview7"
     pagecolor="#ffffff"
     bordercolor="#666666"
     borderopacity="1.0"
     inkscape:pageshadow="2"
     inkscape:pageopacity="0.0"
     inkscape:pagecheckerboard="0"
     inkscape:document-units="px"
     showgrid="false"
     inkscape:zoom="0.58073907"
     inkscape:cx="-24.968184"
     inkscape:cy="433.06885"
     inkscape:window-width="1920"
     inkscape:window-height="990"
     inkscape:window-x="0"
     inkscape:window-y="28"
     inkscape:window-maximized="1"
     inkscape:current-layer="g2351" />
  <defs
     id="defs2">
    <style
       id="style2317">.cls-1{fill:#fff;}</style>
  </defs>
  <g
     inkscape:label="Layer 1"
     inkscape:groupmode="layer"
     id="layer1">
    <g
       id="g2351"
       transform="translate(79.252228,149.14155)"
       style="fill:#ff0000">
      <path
         class="cls-1"
         d="m 428.58015,-61.080049 a 7.2840403,7.2840403 0 0 0 -4.92541,-1.734296 c -4.92539,0 -11.27291,3.329847 -14.67214,5.202885 l -1.37008,0.693719 a 46.496457,46.496457 0 0 1 -18.33151,4.613225 c -6.52094,0.208116 -12.14007,0.58966 -19.45879,1.335408 -43.35738,4.474482 -62.69477,37.70358 -81.32111,69.840071 -10.12828,17.481698 -20.60342,35.553054 -34.96338,49.548818 a 96.617592,96.617592 0 0 1 -9.46926,8.029787 c -14.86291,11.082147 -33.52393,18.903819 -48.10936,24.488252 -13.99576,5.34161 -29.24021,10.1456 -43.99906,14.7935 -13.49282,4.24902 -26.25724,8.25525 -37.98108,12.62567 -5.28959,1.95975 -9.78142,3.46859 -13.75295,4.78666 -10.665921,3.46859 -18.383528,6.12206 -29.62177,13.87436 -4.387763,3.00033 -8.792871,6.24346 -11.793206,8.67147 a 123.58588,123.58588 0 0 0 -23.482356,24.7484 147.08558,147.08558 0 0 1 -19.718938,23.7425 c -2.358643,2.32396 -6.590323,3.46859 -12.8858147,3.46859 -7.4054413,0 -16.3544053,-1.52617 -25.8583433,-3.13907 -9.503938,-1.61289 -19.875024,-3.4686 -28.5465,-3.4686 -7.058583,0 -12.434898,1.14464 -16.475806,3.4686 0,0 -6.763751,3.95419 -9.642682,9.07036 l 2.809559,1.26604 a 58.20295,58.20295 0 0 1 12.018666,8.67147 58.411066,58.411066 0 0 0 12.469583,8.8796 11.047461,11.047461 0 0 1 3.884822,2.51472 c -1.196664,1.73429 -2.930959,3.97154 -4.751969,6.36487 -10.006885,13.09392 -15.834117,21.36652 -12.486927,25.87568 a 10.405772,10.405772 0 0 0 5.202887,1.17933 c 21.834777,0 33.541271,-5.67115 48.386839,-12.85114 4.2837088,-2.08114 8.6714753,-4.23167 13.8743617,-6.41689 8.6714773,-3.76342 18.0019853,-9.76407 27.8874633,-16.1116 13.093936,-8.41133 26.63878,-17.1175 39.75006,-21.33183 a 108.0466,108.0466 0 0 1 33.350491,-4.68259 c 13.87436,0 28.47712,1.85569 42.5596,3.65935 10.50983,1.35275 21.36652,2.74019 32.03244,3.46859 4.14496,0.24281 7.97776,0.36421 11.72384,0.36421 a 136.1075,136.1075 0 0 0 14.93228,-0.78043 l 1.17932,-0.41623 c 7.49216,-4.59589 10.99543,-14.46403 14.37731,-24.00266 2.18522,-6.1394 4.02357,-11.65446 6.93718,-15.15774 a 3.5726484,3.5726484 0 0 1 0.57232,-0.46825 0.69371812,0.69371812 0 0 1 0.84981,0.13874 0.43357383,0.43357383 0 0 1 0,0.27749 c -1.73431,37.30469 -16.77065,60.97782 -31.94573,82.03216 l -10.30171,10.80467 c 0,0 14.18653,0 22.26835,-3.12173 29.48302,-8.81023 51.75137,-28.23433 67.94968,-59.20886 a 250.4149,250.4149 0 0 0 10.68327,-24.43622 c 0.27749,-0.6937 2.84425,-1.97709 2.5841,1.6129 0,1.05793 -0.13874,2.23725 -0.22546,3.4686 v 0 c 0,0.7284 -0.10407,1.47415 -0.13875,2.21989 -0.43356,5.20288 -1.73429,16.19832 -1.73429,16.19832 l 9.10506,-4.87337 c 21.95617,-13.87436 38.88289,-41.86589 51.71668,-85.41403 5.35897,-18.140705 9.26114,-36.160034 12.71238,-52.028835 4.12762,-19.077249 7.68293,-35.431654 11.75852,-41.779175 6.39956,-9.9548569 16.16364,-16.6839223 25.61555,-23.2222152 1.30072,-0.884491 2.58409,-1.7342957 3.85013,-2.6708147 11.89726,-8.3419591 23.70782,-17.9672991 26.29191,-35.9172541 v -0.398889 c 1.97711,-13.388759 0.36422,-16.718606 -1.37008,-18.366186 z"
         id="path2337"
         style="fill:#ffffff;stroke-width:1" />
    </g>
  </g>
  <style
     type="text/css"
     id="style1747">
	.st0{fill:#444444;}
</style>
  <style
     type="text/css"
     id="style1941">
	.st0{fill:#00546B;}
</style>
</svg>
