<?xml version="1.0" encoding="UTF-8" standalone="no"?>
<!-- Created with Inkscape (http://www.inkscape.org/) -->

<svg
   width="512"
   height="512"
   viewBox="0 0 512 512"
   version="1.1"
   id="svg5"
   sodipodi:docname="mysql.svg"
   inkscape:version="1.1.2 (0a00cf5339, 2022-02-04)"
   xmlns:inkscape="http://www.inkscape.org/namespaces/inkscape"
   xmlns:sodipodi="http://sodipodi.sourceforge.net/DTD/sodipodi-0.dtd"
   xmlns="http://www.w3.org/2000/svg"
   xmlns:svg="http://www.w3.org/2000/svg">
  <sodipodi:namedview
     id="namedview7"
     pagecolor="#ffffff"
     bordercolor="#666666"
     borderopacity="1.0"
     inkscape:pageshadow="2"
     inkscape:pageopacity="0.0"
     inkscape:pagecheckerboard="0"
     inkscape:document-units="px"
     showgrid="false"
     inkscape:zoom="1.1614781"
     inkscape:cx="182.52604"
     inkscape:cy="205.3418"
     inkscape:window-width="1920"
     inkscape:window-height="990"
     inkscape:window-x="0"
     inkscape:window-y="28"
     inkscape:window-maximized="1"
     inkscape:current-layer="layer1" />
  <defs
     id="defs2" />
  <g
     inkscape:label="Layer 1"
     inkscape:groupmode="layer"
     id="layer1">
    <g
       id="g1947"
       transform="matrix(0.98592618,0,0,0.98592416,4.0011616,2.5102798)"
       style="fill:#ffffff;stroke:#ffffff;stroke-width:4.0571;stroke-miterlimit:4;stroke-dasharray:none;stroke-opacity:1">
      <path
         class="st0"
         d="m 471.6,393.4 c -27.9,-0.7 -49.4,2.1 -67.6,9.8 -5.2,2.1 -13.6,2.1 -14.3,8.7 2.8,2.8 3.1,7.3 5.6,11.1 4.2,7 11.5,16.4 18.1,21.2 7.3,5.6 14.6,11.1 22.3,16 13.6,8.4 28.9,13.2 42.1,21.6 7.7,4.9 15.3,11.1 23,16.4 3.8,2.8 6.3,7.3 11.1,9.1 v -1 c -2.4,-3.1 -3.1,-7.7 -5.6,-11.1 -3.5,-3.5 -7,-6.6 -10.4,-10.1 -10.1,-13.6 -22.6,-25.4 -36.2,-35.2 -11.1,-7.7 -35.5,-18.1 -40,-31 0,0 -0.3,-0.3 -0.7,-0.7 7.7,-0.7 16.7,-3.5 24,-5.6 11.8,-3.1 22.6,-2.4 34.8,-5.6 5.6,-1.4 11.1,-3.1 16.7,-4.9 V 399 c -6.3,-6.3 -10.8,-14.6 -17.4,-20.5 -17.8,-15.3 -37.3,-30.3 -57.5,-42.8 -10.8,-7 -24.7,-11.5 -36.2,-17.4 -4.2,-2.1 -11.1,-3.1 -13.6,-6.6 C 363.5,304 360,293.9 355.5,284.9 345.4,265.7 335.7,244.5 326.9,224.3 320.6,210.7 316.8,197.1 309.1,184.6 273.2,125.4 234.2,89.5 174.3,54.4 161.7,46.9 146.4,43.8 130,40 121.3,39.7 112.6,39 103.9,38.6 98.3,36.2 92.8,29.5 87.9,26.4 68,13.9 16.8,-13.3 2.2,22.6 -7.2,45.2 16.1,67.5 24.1,79 c 5.9,8 13.6,17.1 17.8,26.1 2.4,5.9 3.1,12.2 5.6,18.5 5.6,15.3 10.8,32.4 18.1,46.7 3.8,7.3 8,15 12.9,21.6 2.8,3.8 7.7,5.6 8.7,11.8 -4.9,7 -5.2,17.4 -8,26.1 -12.5,39.3 -7.7,88.1 10.1,117 5.6,8.7 18.8,27.9 36.6,20.5 15.7,-6.3 12.2,-26.1 16.7,-43.5 1,-4.2 0.3,-7 2.4,-9.7 0,0.3 0,0.7 0,0.7 4.9,9.7 9.7,19.2 14.3,28.9 10.8,17.1 29.6,34.8 45.3,46.7 8.4,6.3 15,17.1 25.4,20.9 v -1 h -0.7 c -2.1,-3.1 -5.2,-4.5 -8,-7 -6.3,-6.3 -13.2,-13.9 -18.1,-20.9 -14.6,-19.5 -27.5,-41.1 -39,-63.4 -5.6,-10.8 -10.4,-22.6 -15,-33.4 -2.1,-4.2 -2.1,-10.4 -5.6,-12.5 -5.2,7.7 -12.9,14.3 -16.7,23.7 -6.6,15 -7.3,33.4 -9.7,52.6 -1.4,0.3 -0.7,0 -1.4,0.7 -11.1,-2.8 -15,-14.3 -19.2,-24 -10.4,-24.7 -12.2,-64.4 -3.1,-93 2.4,-7.3 12.9,-30.3 8.7,-37.3 -2.1,-6.6 -9.1,-10.4 -12.9,-15.7 -4.5,-6.6 -9.4,-15 -12.5,-22.3 C 68.4,138.3 64.3,116.7 55.2,97.2 50.9,88 43.6,78.6 37.7,70.3 31.1,60.9 23.8,54.3 18.5,43.1 16.8,39.3 14.3,33 17.1,28.8 17.8,26 19.2,25 22,24.3 c 4.5,-3.8 17.4,1 21.9,3.1 12.9,5.2 23.7,10.1 34.5,17.4 4.9,3.5 10.1,10.1 16.4,11.8 h 7.3 c 11.1,2.4 23.7,0.7 34.1,3.8 18.5,5.9 35.2,14.6 50.1,24 45.6,28.9 83.2,70 108.6,119.1 4.2,8 5.9,15.3 9.8,23.7 7.3,17.1 16.4,34.5 23.7,51.2 7.3,16.4 14.3,33.1 24.7,46.7 5.2,7.3 26.1,11.1 35.5,15 7,3.1 17.8,5.9 24,9.7 11.8,7.3 23.7,15.7 34.8,23.7 5.8,4.3 23.2,13 24.2,19.9 z"
         id="path1943"
         style="fill:#ffffff;stroke:#ffffff;stroke-width:4.0571;stroke-miterlimit:4;stroke-dasharray:none;stroke-opacity:1" />
      <path
         class="st0"
         d="m 116.4,90.8 c -5.9,0 -10.1,0.7 -14.3,1.7 0,0 0,0.3 0,0.7 h 0.7 c 2.8,5.6 7.7,9.4 11.1,14.3 2.8,5.6 5.2,11.1 8,16.7 0.3,-0.3 0.7,-0.7 0.7,-0.7 4.9,-3.5 7.3,-9.1 7.3,-17.4 -2.1,-2.4 -2.4,-4.9 -4.2,-7.3 -2,-3.5 -6.5,-5.2 -9.3,-8 z"
         id="path1945"
         style="fill:#ffffff;stroke:#ffffff;stroke-width:4.0571;stroke-miterlimit:4;stroke-dasharray:none;stroke-opacity:1" />
    </g>
  </g>
  <style
     type="text/css"
     id="style1747">
	.st0{fill:#444444;}
</style>
  <style
     type="text/css"
     id="style1941">
	.st0{fill:#00546B;}
</style>
</svg>
