<?xml version="1.0" encoding="UTF-8" standalone="no"?>
<!-- Created with Inkscape (http://www.inkscape.org/) -->

<svg
   width="512"
   height="512"
   viewBox="0 0 512 512"
   version="1.1"
   id="svg5"
   sodipodi:docname="postgresql.svg"
   inkscape:version="1.1.2 (0a00cf5339, 2022-02-04)"
   xmlns:inkscape="http://www.inkscape.org/namespaces/inkscape"
   xmlns:sodipodi="http://sodipodi.sourceforge.net/DTD/sodipodi-0.dtd"
   xmlns="http://www.w3.org/2000/svg"
   xmlns:svg="http://www.w3.org/2000/svg">
  <sodipodi:namedview
     id="namedview8"
     pagecolor="#ffffff"
     bordercolor="#666666"
     borderopacity="1.0"
     inkscape:pageshadow="2"
     inkscape:pageopacity="0.0"
     inkscape:pagecheckerboard="0"
     showgrid="false"
     inkscape:zoom="0.82128906"
     inkscape:cx="180.20452"
     inkscape:cy="245.34602"
     inkscape:window-width="1920"
     inkscape:window-height="990"
     inkscape:window-x="0"
     inkscape:window-y="28"
     inkscape:window-maximized="1"
     inkscape:current-layer="svg5" />
  <defs
     id="defs2" />
  <g
     id="layer1"
     style="fill:#ffffff;stroke:#ffffff;stroke-width:4.03858;stroke-miterlimit:4;stroke-dasharray:none;stroke-opacity:1"
     transform="matrix(0.99044519,0,0,0.99044798,2.2247004,2.0021151)">
    <g
       id="g1751"
       transform="translate(0.4434655,0.06818753)"
       style="fill:#ffffff;stroke:#ffffff;stroke-width:4.03858;stroke-miterlimit:4;stroke-dasharray:none;stroke-opacity:1">
      <path
         class="st0"
         d="m 500.5,310.1 c -5.5,-6.3 -14.8,-4.6 -22,-3.2 -17.3,3.1 -36.2,6.7 -53,-0.5 30,-47.3 53.6,-99 66.8,-153.6 4.8,-20.7 8.5,-42 7.8,-63.3 C 499.6,77.6 497.9,64.8 490.6,54.9 472.5,31.1 446.3,13.7 417.4,5.9 381.3,-3.9 342.6,-1 307.1,10 304.2,10.6 301.3,9.3 298.4,8.9 266.2,2.4 230.7,4.9 202.8,23.6 169.3,11.6 133.3,4.3 97.6,8 71,10.8 44.4,23.1 29.1,45.7 9.9,73.9 7.3,109.9 10.4,143 c 6.2,43.9 16.9,87.1 30.5,129.2 9,26.3 18.8,52.7 34.8,75.7 8.1,11.3 18.9,22.6 33.4,24.4 12.9,1.6 24.5,-6.4 32.4,-15.9 13.7,-16.3 27.7,-32.4 42.3,-47.9 9.5,4.7 19.9,7.3 30.4,8.1 -5.7,6.8 -10.4,15.6 -19.5,18.3 -12.3,4.7 -26.6,4.1 -37.4,12.3 -6.2,4.5 -6.5,14.2 -0.9,19.3 10.1,9.8 25.1,11.9 38.5,13.1 19.1,1.5 38.4,-5 52.9,-17.5 -0.1,30.4 0,60.8 3.5,91 1.7,17.7 9.3,35.3 22.8,47.2 12.7,11.1 30.7,13.4 46.8,10.6 15.8,-3 32,-7.7 44.4,-18.5 13.1,-11.6 18.7,-29 21.3,-45.8 4.7,-30 8.3,-60.2 11.7,-90.3 33.8,5.7 71.9,-0.8 97.2,-25.4 5.2,-5.1 10.3,-13.9 5,-20.8 z M 425.6,24.6 c 20.3,7.7 38.3,21.1 51.8,38 6.4,8.1 7.3,18.9 7.7,28.9 0.3,23.7 -4.5,47 -10.6,69.8 -11.6,42.1 -29.3,82.5 -51.5,120.1 -2.2,3.7 -4.6,7.3 -7.2,10.7 l -0.8,-4.2 c 2.8,-7.2 6.8,-14.1 8.4,-21.8 5.5,-21.7 0.9,-44 -1.1,-65.8 -2.1,-20.6 4.9,-40.7 4.8,-61.2 0.8,-10.1 -3.2,-19.6 -7.1,-28.6 -14,-31.3 -36.3,-59.1 -64.8,-78.3 -7,-4.8 -14.7,-8.1 -21.7,-12.9 30.2,-6.6 62.8,-5.8 92.1,5.3 z m -18.5,175.7 c 1.8,24.4 8.9,50.5 -2.6,73.7 -15.4,-30.7 -35.3,-59.9 -42.3,-94.1 -2,-10.9 -2.5,-24.6 7.2,-32.2 12.2,-8.7 28.2,-6.7 42.4,-5.9 -0.7,19.6 -6.7,38.8 -4.7,58.5 z M 131.6,344.7 c -5.5,6.5 -13,14.3 -22.4,12.3 C 98.2,353.8 91.2,343.8 85,334.7 68.4,308.2 58.4,278.2 49.2,248.4 38.9,213.2 30.3,177.4 25.3,141 22.8,113.3 24.4,83.6 38.5,59 49.1,40.3 68.9,28.4 89.7,24.5 c 33.3,-6.4 67.4,0.4 99.3,10.1 -14,15.6 -25,33.9 -31.4,53.8 -8.7,26.7 -12.7,55 -10.6,83 1.2,19.7 0.7,39.6 -2.1,59.1 -3.5,25.6 6.8,51.8 25.8,69.1 -12.9,15.2 -26.6,29.6 -39.1,45.1 z m 29.1,-91.6 c -3.3,-14.5 1,-29 1.5,-43.5 1.1,-16.4 0,-32.8 -0.4,-49.3 15.3,-9.9 33.3,-17.7 51.9,-16.6 9.6,0.4 18.5,7.2 20.8,16.7 8.4,33.6 11.1,71 -5.1,102.9 -5.6,12.3 -10.2,25 -14.2,37.9 -26.9,0.3 -49.7,-22.5 -54.5,-48.1 z m 83.7,90 c -16.9,22.9 -50.7,27.2 -75.1,14.8 12,-5.6 26.1,-5.1 37.8,-12 11.2,-6.1 15.7,-19.4 26.2,-26.2 11.5,-1.7 19.8,15.4 11.1,23.4 z m 144.9,-26.7 c -6.4,10.3 -4.2,22.9 -5.7,34.4 -3.7,32.2 -7.3,64.4 -12.5,96.3 -2.5,15.3 -9,31.6 -23.4,39.2 -14.8,7.5 -32,12.3 -48.7,9.7 -15.8,-2.8 -25.8,-17.5 -30.3,-31.9 -3.3,-12 -3.6,-24.6 -4.5,-37 -1.6,-29.9 -1.6,-59.9 -0.8,-89.9 0.7,-11.7 -5.3,-23.9 -15.8,-29.6 -5.1,-2.8 -11,-3.2 -16.6,-3.7 4.4,-22 17.8,-41 22.4,-63 6,-27.2 2.7,-55.5 -3.4,-82.4 -3,-13.4 -13.2,-25.3 -26.8,-28.5 -20.9,-5.3 -42,2.9 -60.7,11.6 2.4,-30.4 10.5,-61.5 29.1,-86.1 13.6,-18.2 34.8,-30.5 57.4,-33.4 37.4,-4.8 76.6,5.5 106.3,28.9 24.5,19.4 43.9,45.7 54.4,75.2 -17.4,-0.6 -37.1,-1.3 -51.1,10.7 -12.7,10.7 -14.4,29.1 -11.5,44.5 6.6,36.6 28.3,67.7 44.2,100.6 4.2,7.7 9.9,14.5 15.3,21.4 -6.4,3.3 -13.6,6.4 -17.3,13 z m 44.7,25.9 c -11.5,1.4 -23.4,1.8 -34.5,-2 0,-6.3 -0.3,-13.7 4.7,-18.3 4,-2.9 9.6,-5.6 14.2,-2.4 19.6,10.3 42.3,5.3 63.2,2.8 -12.6,12.2 -30.3,18 -47.6,19.9 z m -60.1,-190 c -4.1,3.4 0.3,8.4 3.8,9.9 8.5,5 20.1,-2 20.4,-11.7 -7.7,-3.6 -17.3,-3.2 -24.2,1.8 z m -150.3,15.4 c 3.6,-2 7.4,-7.7 3.2,-11.1 -6,-4.8 -14.6,-5.8 -21.9,-3.8 -2.3,0.8 -4.8,2.4 -4.3,5.3 1.7,9.8 14.7,15.7 23,9.6 z"
         id="path1749"
         style="fill:#ffffff;stroke:#ffffff;stroke-width:4.03858;stroke-miterlimit:4;stroke-dasharray:none;stroke-opacity:1" />
    </g>
  </g>
  <style
     type="text/css"
     id="style1747">
	.st0{fill:#444444;}
</style>
</svg>
