<?xml version="1.0" encoding="UTF-8" standalone="no"?>
<!-- Created with Inkscape (http://www.inkscape.org/) -->

<svg
   width="512"
   height="512"
   viewBox="0 0 512 512"
   version="1.1"
   id="svg5"
   inkscape:version="1.1.2 (0a00cf5339, 2022-02-04)"
   sodipodi:docname="sqlite.svg"
   xmlns:inkscape="http://www.inkscape.org/namespaces/inkscape"
   xmlns:sodipodi="http://sodipodi.sourceforge.net/DTD/sodipodi-0.dtd"
   xmlns="http://www.w3.org/2000/svg"
   xmlns:svg="http://www.w3.org/2000/svg">
  <sodipodi:namedview
     id="namedview7"
     pagecolor="#ffffff"
     bordercolor="#666666"
     borderopacity="1.0"
     inkscape:pageshadow="2"
     inkscape:pageopacity="0.0"
     inkscape:pagecheckerboard="0"
     inkscape:document-units="px"
     showgrid="false"
     inkscape:zoom="0.82128906"
     inkscape:cx="116.28062"
     inkscape:cy="102.88704"
     inkscape:window-width="1920"
     inkscape:window-height="990"
     inkscape:window-x="0"
     inkscape:window-y="28"
     inkscape:window-maximized="1"
     inkscape:current-layer="layer1" />
  <defs
     id="defs2" />
  <g
     inkscape:label="Layer 1"
     inkscape:groupmode="layer"
     id="layer1">
    <path
       style="fill:#ffffff"
       d="m 265.88274,505.27012 c -6.21078,-20.14599 -10.12134,-56.83056 -10.15486,-95.26174 -0.0153,-17.59801 -0.87195,-29.01331 -2.60763,-34.75 -0.49857,-1.64787 -5.24677,-1.75 -81.35675,-1.75 -77.801906,0 -81.067856,-0.0743 -87.254746,-1.98524 -17.2521,-5.32863 -32.05301,-21.43044 -35.67812,-38.81398 -0.76973,-3.69109 -1.10508,-40.27073 -1.10508,-120.5399 0,-100.25336 0.19913,-116.005202 1.53119,-121.119307 4.91773,-18.880449 21.29623,-34.51729 40.26803,-38.44458 3.66481,-0.75864 40.533876,-1.096974 119.539896,-1.096974 116.21421,0 117.92051,0.04656 126.70679,3.457246 1.08687,0.421907 3.37851,-1.726508 7.71761,-7.235281 13.74961,-17.456035 36.19098,-36.777762 49.59207,-42.6981295 12.7665,-5.6400152 27.65538,-6.0196962 38.14441,-0.97272 9.40005,4.5229933 19.22658,15.0234485 24.86405,26.5692825 5.73454,11.74466 7.63777,20.995686 7.63005,37.087444 -0.0198,41.257359 -18.5008,90.806599 -59.59973,159.792139 l -10.42582,17.5 -9.23428,3.38732 c -16.047,5.88638 -56.0556,25.26431 -60.08182,29.10027 -0.46614,0.44413 3.30359,-0.75173 8.37719,-2.65745 8.83407,-3.31821 47.57671,-13.64831 49.11618,-13.09603 0.98014,0.35162 -18.15214,27.91153 -34.31504,49.43057 -12.00049,15.97727 -13.32258,17.38658 -19.11156,20.37237 -10.8023,5.57152 -19.9358,12.14634 -29.09018,20.94078 -10.17468,9.77464 -15.9621,17.45023 -21.16051,28.06425 -4.36164,8.90549 -4.33017,8.54775 1.63092,-18.54208 6.7318,-30.59232 15.35805,-60.57441 27.62047,-96 26.32615,-76.05506 80.51727,-180.21677 113.1053,-217.401717 7.99326,-9.120795 3.33847,-5.936364 -7.43127,5.083881 -36.50432,37.353415 -70.47464,90.807876 -99.71999,156.915816 -24.45427,55.27789 -41.72035,121.1472 -48.86086,186.40202 -0.80897,7.39295 -1.2988,23.90154 -1.27585,43 0.0394,32.75573 1.23708,44.66917 6.31178,62.78194 1.83871,6.56277 1.84095,6.81361 0.0693,7.76174 -1.61459,0.8641 -2.05872,0.2404 -3.76119,-5.28194 z M 243.10682,331.7005 c 0.27461,-0.44434 -1.13456,-4.60684 -3.13149,-9.25 -2.58555,-6.01178 -3.6257,-9.88154 -3.61312,-13.44212 0.0183,-5.16894 4.22396,-25.50648 5.27154,-25.49159 0.63336,0.009 3.08625,4.39963 11.6747,20.89748 2.97941,5.72325 5.4171,9.96379 5.4171,9.42343 0,-2.7454 -6.59834,-23.91522 -10.16525,-32.61373 l -4.0711,-9.92806 3.90182,-12.11714 3.90181,-12.11713 4.89112,8.47337 c 2.69012,4.66035 6.37132,11.62337 8.18044,15.47337 1.80913,3.85 3.30549,6.47349 3.32524,5.82997 0.0726,-2.36355 -7.03653,-25.64303 -10.01778,-32.80432 l -3.0732,-7.38217 3.55259,-14.41037 c 8.91076,-36.14474 24.70129,-76.65805 43.57939,-111.81042 3.96466,-7.38247 7.61042,-13.850174 8.10169,-14.372672 0.49128,-0.5225 0.89323,-1.309998 0.89323,-1.749998 0,-0.439998 -48.19307,-0.799998 -107.09571,-0.799998 -98.12485,0 -107.331846,0.13949 -109.914786,1.665266 -1.55049,0.9159 -3.30743,2.737066 -3.90429,4.047044 -0.7596,1.667138 -1.08521,35.906278 -1.08521,114.112218 0,101.61029 0.14748,111.941 1.6283,114.05516 3.56926,5.09584 2.68189,5.03917 79.562676,5.08115 39.43004,0.0215 71.91567,-0.32441 72.19029,-0.76874 z"
       id="path1070" />
  </g>
</svg>
