<svg id="Layer_1" data-name="Layer 1" xmlns="http://www.w3.org/2000/svg" viewBox="0 0 930 400"><defs><style>.cls-1{fill:#86e380;}.cls-2{fill:#baf2b5;}.cls-3{fill:#e5ffe3;}.cls-4{fill:#f3fff2;}.cls-5{fill:#e6e6e6;}.cls-6{fill:#b08b6a;}.cls-7{fill:#d1c6ba;}.cls-8{fill:#685547;}.cls-9{fill:#604c3e;}.cls-10{fill:#e0dbd6;}.cls-11{fill:#645047;}.cls-12{fill:#423227;}.cls-13{fill:#231913;}.cls-14{fill:#489fcb;}.cls-15,.cls-20{fill:#fff;}.cls-16{fill:#f0f0f0;}.cls-17{fill:#e7dfd5;}.cls-18{fill:#47392e;}.cls-19{fill:#a1836e;}.cls-20{fill-rule:evenodd;}.cls-21,.cls-22,.cls-24{fill:none;stroke-miterlimit:10;}.cls-21{stroke:#00ef51;stroke-width:2.05px;}.cls-22,.cls-24{stroke:#333;}.cls-22{stroke-width:4.41px;}.cls-23{fill:#333;}.cls-24{stroke-width:4px;}</style></defs><rect class="cls-1" x="736.74" y="163.39" width="166.05" height="33.53"/><rect class="cls-2" x="736.74" y="203.38" width="166.05" height="33.53"/><rect class="cls-3" x="736.74" y="243.36" width="166.05" height="33.53"/><rect class="cls-4" x="736.74" y="283.35" width="166.05" height="33.53"/><ellipse class="cls-5" cx="250.63" cy="317.77" rx="217.06" ry="41.94"/><path class="cls-6" d="M125.32,236.75c-6.28,7.6-11.55,16.26-13.77,25.86S110.45,282.85,116,291c5,7.32,13,12,21.18,15.48,38.55,16.59,82.39,11.85,124.28,14.41,50.26,3.07,101.57,16.95,150.11,3.51,11.24-3.11,22.65-8.09,29.55-17.5,5.83-8,7.73-18.25,7.2-28.1s-3.3-19.42-6.05-28.89q-8.71-30-17.42-60c-51.51-6-47.61-8.77-99.42-6.49-25.83,6.22-66.17-7.93-123.83,5C175.88,194.14,142.12,216.43,125.32,236.75Z"/><path class="cls-7" d="M424.86,189.92c-27.16-3.15-38.92-5.41-51.56-6.52-15.36.46-30.72,1.15-45.87-.05l-2,.08A62.19,62.19,0,0,1,314.06,185c-3,.15-7.79,21-1,31.06s-5.67,22.39,5.14,27.61c10.08,4.87,22.55,4,31.73,10.41,5.11,3.56,8.57,9,12.77,13.57a53.3,53.3,0,0,0,29.37,16.33,12.29,12.29,0,0,0,5.19.13c3.59-.92,5.78-4.46,7.58-7.71l10.57-19c2-3.56,4.05-7.22,7.3-9.68,2.7-2,6-3.09,8.76-5.07a23.83,23.83,0,0,0,6.45-7.76Z"/><path class="cls-8" d="M311.21,326a51.2,51.2,0,0,1-10.67-30.36c-.09-7.26,1.37-14.75-.86-21.66-3.78-11.72-17.52-20-16.59-32.24.57-7.59,6.71-13.35,11.2-19.49A52,52,0,0,0,303.58,185c-25-.72-58.56-6.33-102,3.37-25.73,5.75-59.49,28-76.29,48.36-6.28,7.6-11.55,16.26-13.77,25.86S110.45,282.85,116,291c5,7.32,13,12,21.18,15.48,38.55,16.59,82.39,11.85,124.28,14.41C278,321.88,294.6,324.05,311.21,326Z"/><path class="cls-9" d="M311.21,326a51.89,51.89,0,0,1-8-14.88c-17.3-4.7-32.55-17.32-49.23-25.1-12.72-5.93-26.52-9.09-39.82-13.56s-26.56-10.58-35.94-21a51.42,51.42,0,0,1-13.05-34.16,50.72,50.72,0,0,1,2.23-14.68c-16.51,9.54-32.23,22.16-42.1,34.1-6.28,7.6-11.55,16.26-13.77,25.86S110.45,282.85,116,291c5,7.32,13,12,21.18,15.48,38.55,16.59,82.39,11.85,124.28,14.41C278,321.88,294.6,324.05,311.21,326Z"/><path class="cls-9" d="M326,312.57c1.14,6.16,6,11.06,11.49,14.09s11.64,4.55,17.57,6.56c6.75,2.3,13.3,5.29,20.27,6.84s14.6,1.55,20.84-1.92,10.49-11.06,8.49-17.91c-7.9-2.61-14.81-7.54-21.46-12.54s-13.29-10.2-20.94-13.5-16.58-4.52-24.27-1.34S324.5,304.39,326,312.57Z"/><path class="cls-9" d="M452,330.38a9.29,9.29,0,0,0,4.07-3c1.56-2.48.48-5.67,0-8.56-.91-5,0-10.15.43-15.24s.09-10.56-2.91-14.69c-4.14-5.72-12.69-7.05-19.14-4.16s-10.88,9.16-13.19,15.84a39.26,39.26,0,0,0-1.54,19.5c.89,5,3,10.13,7.18,13,3.66,2.49,8.43,2.9,12.77,2.06S448,332.32,452,330.38Z"/><path d="M265.66,378.39c-12.77-.9-25.74-3.69-36-10.35-6.47-4.19-11.59-9.73-17.36-14.63-12.08-10.26-26.9-17.66-41.44-25.13S132.09,317.8,120.64,307s-16.16-23.29-14.81-37.91S125.63,222,142.37,220c-4.62,6.37-8.5,24.74-10.81,32s-2.57,15.21.67,22.2c3.17,6.84,9.4,12.27,16.1,16.8,20.43,13.82,45.74,20.68,69.71,29.19s48.23,19.79,61.79,38.95c3.17,4.47,5.63,10.36,2.34,14.77S271.7,378.81,265.66,378.39Z"/><path class="cls-7" d="M377.37,330.54c-1.36,1.94-2.52,4.25-2.13,6.59a7.24,7.24,0,0,0,4,5,18.36,18.36,0,0,0,6.43,1.58,88.63,88.63,0,0,0,30.53-2c2.26-.55,5.18-9.85,2.87-13.16A23.78,23.78,0,0,0,404,318.74C393.87,317,383.21,322.13,377.37,330.54Z"/><path class="cls-7" d="M461.81,322.85A23.92,23.92,0,0,0,427.64,330c-1.11,1.82-2,4-1.34,6.05.82,2.55,3.66,3.77,6.24,4.51A58.42,58.42,0,0,0,456,342.37c4.53-.57,9.6-2.16,11.41-6.35C469.41,331.28,466,325.82,461.81,322.85Z"/><path class="cls-10" d="M426.37,214.89c3.25-2.87,6.59-5.85,8.39-9.79,2.54-5.56,1.58-12.15-.7-17.82s-5.78-10.77-8.45-16.26c-5.7-11.74-8.06-25.91-18.11-34.23-8-6.66-19.18-7.91-29.61-8.13-13.61-.29-28,.94-39.18,8.72-8.21,5.73-13.88,14.54-17.49,23.88s-5.34,19.29-7,29.15c-1,5.89-2,12.13.18,17.68,1.58,4,4.65,7.23,7.65,10.33,4.46,4.6,9,9.25,14.39,12.66,12.85,8.1,29,8.29,44.18,7.65,7.35-.31,14.93-.82,21.52-4.09,4.31-2.14,8-5.37,11.59-8.55Z"/><path class="cls-6" d="M349.26,212.37c12.23,4.35,25.65,8.73,37.89,4.41,9-3.19,15.87-10.66,24.36-15.12,6.41-3.37,14-5.19,18.71-10.68a17.44,17.44,0,0,0,3.13-5.36c-2.25-5-5.33-9.65-7.74-14.6-5.7-11.74-8.06-25.91-18.11-34.23-8-6.66-19.18-7.91-29.61-8.13-13.61-.29-28,.94-39.18,8.72-8.21,5.73-13.88,14.54-17.49,23.88s-5.34,19.29-7,29.15a64.56,64.56,0,0,0-1.11,9.07Z"/><path d="M422.92,169.75c-13.53-21.22-29.45-24.45-37.18-27.73s31.24-30.26,39.55-27.45C430.22,116.23,425.79,174.25,422.92,169.75Z"/><path d="M322.78,126.93c-2.28-.59-10.62-4.14-11.29,1.69-.85,7.42,2.36,65.35,5.59,57.73,4.59-10.84,19.57-36,36.86-39.21C359.74,146.07,327.46,128.15,322.78,126.93Z"/><path class="cls-11" d="M422.9,121.09c6.67-6.93,2.83,33.64-1.51,46.35-8.81-10.67-18.94-18.53-24.19-20.79S416.23,128,422.9,121.09Z"/><path class="cls-11" d="M313.32,130.55c-.31,7.14,2.73,58.64,5.27,53.24,6-12.68,15.43-22.9,21.49-29.55C343.65,150.33,313.63,123.41,313.32,130.55Z"/><path class="cls-12" d="M411.17,203.91c4.5-4.69,8.47-10,10.62-16.15,1-2.75,1.55-5.84.47-8.55-1.38-3.49-5.12-5.45-8.74-6.43s-7.47-1.33-10.83-3c-7.21-3.6-10.29-12.22-16.3-17.58a22,22,0,0,0-36.24,11.85c-.58,2.71-.71,5.69-2.44,7.86a14.44,14.44,0,0,1-4.74,3.3,63.92,63.92,0,0,0-11.73,8c-3,2.6-6,5.77-6.58,9.73-.53,3.54.93,7.08,2.69,10.2a34.13,34.13,0,0,0,8.81,10.61A20.69,20.69,0,0,0,349,218.2c5.32-.14,10.22-2.73,15.23-4.54a55,55,0,0,1,22.1-3.19c5.68.35,11.63,1.55,16.9-.6A24,24,0,0,0,411.17,203.91Z"/><path class="cls-13" d="M357.71,195.05c2.87-.6,5.8-2,7.16-4.57a6.69,6.69,0,0,0-1.95-8.27,11.37,11.37,0,0,0-5.92-1.7,42.86,42.86,0,0,0-6.41,0,9.84,9.84,0,0,0-3.69.83,6.53,6.53,0,0,0-3.1,7.24,9,9,0,0,0,5.55,6A14.68,14.68,0,0,0,357.71,195.05Z"/><path class="cls-14" d="M364.06,188.46s-.86-6.46-9.19-6.8-8.85,4.69-8.85,4.69,1.7,7.34,7.83,7.62S362.7,190.84,364.06,188.46Z"/><path d="M354.87,181.66a13,13,0,0,0-5.06.65,6.69,6.69,0,0,0-.68,2.94,6.57,6.57,0,1,0,13.14,0c0-.16,0-.32,0-.48C360.93,183.25,358.69,181.81,354.87,181.66Z"/><path class="cls-15" d="M356.15,186a1.5,1.5,0,1,1-3,0,1.5,1.5,0,1,1,3,0Z"/><path class="cls-13" d="M394.93,193.08a13.3,13.3,0,0,0,9.54-2,9.32,9.32,0,0,0,4-8.59,9.09,9.09,0,0,0-5.15-3.76,16.35,16.35,0,0,0-6.46-.46,13.76,13.76,0,0,0-6.68,2.19,7,7,0,0,0-3.11,6,6.66,6.66,0,0,0,2.74,4.61A11.19,11.19,0,0,0,394.93,193.08Z"/><path class="cls-14" d="M388.1,186.09s.86-6.47,9.19-6.81,8.85,4.7,8.85,4.7-1.7,7.33-7.82,7.61S389.46,188.47,388.1,186.09Z"/><path d="M403.7,183.14a6.52,6.52,0,0,0-.69-2.93,12.06,12.06,0,0,0-5.71-.93,10.36,10.36,0,0,0-6.56,2.29,6.75,6.75,0,0,0-.19,1.57,6.58,6.58,0,1,0,13.15,0Z"/><path class="cls-15" d="M397.57,183.84a1.5,1.5,0,1,1-1.5-1.6A1.55,1.55,0,0,1,397.57,183.84Z"/><path class="cls-16" d="M364.06,224.63a17.81,17.81,0,0,0,28.44.83l-7.95-4.63a19.56,19.56,0,0,0-4.73-2.2,12.79,12.79,0,0,0-8.51,1.13A38.17,38.17,0,0,0,364.06,224.63Z"/><path class="cls-17" d="M392.5,225.46l-7.95-4.63a19.56,19.56,0,0,0-4.73-2.2,12.79,12.79,0,0,0-8.51,1.13,38.17,38.17,0,0,0-7.25,4.87,18.11,18.11,0,0,0,1.83,2.17c4.69-.68,9.38-1.09,14.06-2.17,3.78-.95,6.78,2.24,10.49,3A17.54,17.54,0,0,0,392.5,225.46Z"/><path class="cls-16" d="M372.06,165.93c-1.37,5.29-3.16,11.89-3.57,17.35-.34,4.46-.89,9-2.61,13.11s-4.74,7.89-8.85,9.65c-2.68,1.15-5.93,1.56-7.71,3.88-1.59,2.07-1.42,5-1,7.54.38,2.25,1,4.6,2.55,6.25,2.7,2.82,7.18,2.65,11.06,2.28,6.24-.6,13-1.43,17.5-5.8,3.36,4.18,9.17,5.52,14.53,5.52a21.37,21.37,0,0,0,9-1.65,11.08,11.08,0,0,0,6.1-6.51,7.57,7.57,0,0,0-2.46-8.24c-1.85-1.32-4.28-1.57-6.17-2.84-1.66-1.11-2.74-2.9-4.31-4.13-2-1.57-4.66-2.11-6.7-3.63-2.3-1.71-3.58-4.47-4.32-7.24s-1-5.65-1.87-8.39c-1.1-3.64-2.95-13.77-4.93-17S373.7,159.63,372.06,165.93Z"/><path class="cls-8" d="M379.7,216c1.12,0,7.57-4.08,7.91-6.25s-1.19-4.55-7.62-4.59-8.38,2.14-7.94,4.93S378.57,216.06,379.7,216Z"/><path class="cls-18" d="M372.05,208.73a4,4,0,0,0,0,1.38c.44,2.79,6.52,5.95,7.65,5.91.8,0,4.34-2.11,6.41-4.09C381.16,213,375.7,212.16,372.05,208.73Z"/><path class="cls-19" d="M383.51,206.16a37.81,37.81,0,0,0-6-.12,8.15,8.15,0,0,0-1.84.25c-.28.07-.6.25-.58.54s.39.41.68.44c3.42.45,7-.34,10.29.65a1.57,1.57,0,0,0-.88-1.36A4.22,4.22,0,0,0,383.51,206.16Z"/><path class="cls-20" d="M475,208.85l-2.64-.41c-.47-.08-.95-.14-1.44-.19l-1.51-.17-6.38-.72-1.63-.18-.81-.09-.81-.05-3.16-.22-5.63-.38-1.46-.1-1.43,0-2.76-.07-5.33-.13c-1.75-.08-3.51,0-5.32,0l-5.65.11c-2,0-4.24.21-6.6.36l-3.62.25L417,207l-.93.06-.93.11-7.29.82c-1.18.14-2.32.24-3.42.4l-3.13.48-6.93,1.07c-1.64.25,1.17,0,6.68-.76l2.54-.36,1.4-.19,1.49-.14,6.74-.68,1.83-.19.91-.1.92-.07,3.72-.25,3.87-.27c1.32-.08,2.68-.2,4.11-.21l5.73-.09c1.94,0,3.91-.11,5.85,0l5.75.15c1.87.06,3.68.07,5.39.21l8.88.55c3.19.28,6.48.64,9.54.93.76.08,1.51.14,2.24.23l2.1.3,3.71.53,4.5.64C483.87,210.39,481.64,209.88,475,208.85Z"/><path class="cls-20" d="M475,224l-2.59-.75c-.45-.14-.92-.26-1.41-.38l-1.48-.36-6.27-1.55-1.6-.39-.8-.19-.8-.16-3.12-.63-5.57-1.11-1.44-.29-1.42-.22-2.75-.43-5.29-.82c-1.74-.3-3.5-.45-5.31-.67l-5.65-.62c-2-.26-4.26-.34-6.63-.51l-3.64-.22-1.86-.11-.93-.06h-.94l-7.39-.14c-1.18,0-2.34-.06-3.45,0l-3.19.07-7,.17c-1.67,0,1.16.18,6.77.11l2.57,0h1.42l1.51,0,6.81.21,1.85,0,.92,0c.31,0,.62,0,.92.06l3.75.22,3.89.24c1.33.09,2.7.15,4.12.33l5.73.65c1.94.23,3.91.4,5.84.75l5.71.9c1.85.3,3.66.55,5.35.92l8.78,1.7c3.14.69,6.38,1.48,9.39,2.17.75.18,1.49.33,2.2.52L474,224l3.63,1,4.4,1.23C483.59,226.65,481.43,225.85,475,224Z"/><path class="cls-20" d="M475.06,240.55l-2.39-1.15c-.42-.21-.86-.4-1.31-.59l-1.38-.59-5.86-2.5-1.49-.63-.74-.32c-.25-.09-.51-.18-.75-.28l-2.94-1.1-5.24-2-1.35-.5-1.35-.45-2.6-.85-5-1.64c-1.65-.57-3.34-1-5.06-1.49l-5.4-1.5c-1.9-.58-4.08-1-6.36-1.55l-3.5-.79-1.79-.4-.9-.21-.91-.16-7.16-1.3c-1.15-.2-2.27-.44-3.36-.59l-3.1-.44-6.88-1c-1.63-.23,1.1.37,6.56,1.18l2.51.38,1.38.22,1.45.29,6.59,1.28,1.79.34.89.16.89.2,3.61.81,3.74.85c1.28.3,2.61.57,4,1l5.46,1.53c1.85.54,3.74,1,5.56,1.66l5.41,1.79c1.75.58,3.47,1.11,5.05,1.73l8.27,3.05c2.94,1.18,6,2.45,8.78,3.6.7.29,1.4.56,2.06.86l1.91.88,3.38,1.55,4.07,1.9C483,244.52,481,243.41,475.06,240.55Z"/><path class="cls-20" d="M445.47,249.92c-.91-.85-2-1.83-3.14-2.83l-1.79-1.54-1.9-1.54c-2.54-2.06-5.19-4-7.25-5.4-2.43-1.67-4.65-3.09-6.91-4.43-1.12-.7-2.28-1.32-3.46-2s-2.42-1.31-3.74-2-2.85-1.39-4.46-2.14c-.79-.39-1.64-.71-2.49-1.08s-1.69-.74-2.57-1.07c-1.73-.67-3.47-1.35-5.15-1.91-.83-.29-1.64-.59-2.43-.84l-2.26-.71c-1.08-.39-3.94-1.12-5-1.44-.6-.17-.41-.06.43.24l1.74.57c.73.23,1.6.49,2.58.82l1.82.61,1,.33,1.05.39c1.44.54,3,1.11,4.73,1.81,3.41,1.33,6.72,2.75,10.51,4.65a128.59,128.59,0,0,1,14.56,8.73c.8.56,1.68,1.16,2.59,1.81L436.7,243c1.89,1.46,3.85,3,5.59,4.47.44.37.88.72,1.29,1.08l1.19,1.06c.76.69,1.47,1.3,2.08,1.87l2.45,2.35c.43.43.37.31-.24-.35-.31-.33-.75-.8-1.34-1.4l-1-1Z"/><path class="cls-20" d="M293.37,211.31c3-.42,6.93-.75,10.86-1.16,2-.21,3.94-.34,5.79-.48l5.09-.39,1.32-.1,1.29-.07,2.49-.12,4.81-.25c1.59-.1,3.18-.11,4.81-.16l5.11-.14c1.81-.08,3.83-.05,6-.08s4.39-.07,6.64-.05l6.64.1c1.07,0,2.12,0,3.12.06l2.86.13,6.34.26c1.5.07-1-.25-6.07-.52l-2.32-.13-1.28-.08-1.36,0-6.14-.18c-1.11,0-2.21-.07-3.33,0l-3.38,0-3.51,0c-1.21,0-2.44,0-3.73,0l-5.19.12c-1.77.05-3.55.06-5.31.16l-5.21.25c-1.69.09-3.34.15-4.88.29l-8.05.66c-2.88.3-5.86.66-8.63,1l-2,.23-1.91.27-3.37.47-4.07.56C285.3,212.15,287.38,212.05,293.37,211.31Z"/><path class="cls-20" d="M280,222.16l2.65-.72c.47-.13.95-.25,1.45-.35l1.51-.35,6.42-1.45,1.64-.37.81-.19.82-.14,3.19-.59,5.69-1,1.47-.27,1.45-.21,2.8-.39,5.4-.76c1.78-.29,3.58-.41,5.43-.6l5.75-.57c2-.25,4.34-.32,6.76-.49l3.7-.23,1.9-.12.95-.06,1,0,7.52-.16c1.21,0,2.39-.07,3.53,0l3.24.08,7.19.17c1.71,0-1.16-.24-6.89-.43l-2.63-.1-1.45-.06h-1.54l-7,.06-1.89,0h-.95l-.94.05-3.83.24-4,.25c-1.36.09-2.77.14-4.21.31l-5.87.56c-2,.21-4,.34-6,.65l-5.85.8c-1.91.27-3.76.49-5.49.85l-9,1.7c-3.21.73-6.51,1.54-9.58,2.27-.77.19-1.52.35-2.25.55l-2.1.6-3.7,1.06L272.67,224C271.08,224.41,273.38,224,280,222.16Z"/><path class="cls-20" d="M308.91,228.2c2.3-.83,5.39-1.67,8.46-2.59,1.52-.48,3.08-.86,4.54-1.23l4-1,1-.27,1-.22,2-.43,3.81-.84c1.25-.29,2.52-.49,3.83-.73l4.07-.74c1.43-.29,3.06-.49,4.77-.76l2.63-.4,1.34-.21,1.35-.18,5.35-.61c.86-.1,1.7-.21,2.5-.27l2.32-.17,5.13-.39c1.22-.09-.85-.15-4.94.1l-1.88.11-1,.06-1.09.1c-1.5.14-3.16.29-5,.48-.9.1-1.79.17-2.68.31l-2.71.42-2.82.43c-1,.14-2,.27-3,.47l-4.15.74c-1.4.26-2.84.47-4.23.79l-4.13.89c-1.35.29-2.65.55-3.87.89l-6.32,1.68c-2.25.67-4.57,1.42-6.72,2.09l-1.58.5-1.47.53-2.59.93-3.14,1.11C302.63,230.14,304.27,229.75,308.91,228.2Z"/><path class="cls-20" d="M301.78,246c2.48-1.37,5.85-3,9.18-4.62,1.65-.85,3.35-1.6,4.94-2.33l4.37-2,1.12-.52,1.12-.48,2.16-.92,4.17-1.77c1.37-.6,2.77-1.12,4.2-1.69l4.48-1.75c1.57-.65,3.38-1.27,5.26-2s3.87-1.45,5.87-2.14l5.92-2c1-.32,1.89-.65,2.79-.92l2.58-.77,5.72-1.72c1.36-.41-1,.07-5.56,1.39l-2.11.6-1.16.32-1.22.39c-1.67.52-3.51,1.1-5.5,1.75-1,.33-2,.63-3,1l-3,1.1L341,228.14c-1.06.39-2.16.77-3.28,1.23l-4.56,1.77c-1.54.61-3.12,1.18-4.64,1.85l-4.52,1.9c-1.47.62-2.9,1.21-4.22,1.84L312.94,240c-2.44,1.22-4.95,2.52-7.28,3.71l-1.7.88-1.59.88-2.8,1.55-3.39,1.86C295,249.48,296.76,248.7,301.78,246Z"/><rect class="cls-21" x="290.76" y="213.87" width="25.72" height="24.31"/><line class="cls-21" x1="35.03" y1="173.67" x2="290.76" y2="238.18"/><line class="cls-21" x1="35.03" y1="22.44" x2="290.76" y2="213.87"/><line class="cls-21" x1="207.57" y1="22.44" x2="316.48" y2="213.87"/><line class="cls-21" x1="207.57" y1="173.67" x2="316.48" y2="238.18"/><rect class="cls-21" x="35.03" y="22.44" width="172.54" height="151.23"/><path d="M44.83,43.5a3.06,3.06,0,0,0,2.11-.59,2.08,2.08,0,0,0,.63-1.59,2,2,0,0,0-.26-1.06,2.2,2.2,0,0,0-.69-.7,3.05,3.05,0,0,0-1-.37,5.62,5.62,0,0,0-1.18-.12h-.39V37.82h.54a4.17,4.17,0,0,0,.85-.09,2.19,2.19,0,0,0,.81-.3,1.67,1.67,0,0,0,.59-.59,1.81,1.81,0,0,0,.23-1,1.53,1.53,0,0,0-.59-1.36,2.4,2.4,0,0,0-1.38-.4,3.47,3.47,0,0,0-1.37.23,6.25,6.25,0,0,0-.94.48l-.6-1.18a5.22,5.22,0,0,1,1.19-.59,4.77,4.77,0,0,1,1.77-.31,4.9,4.9,0,0,1,1.58.22,2.82,2.82,0,0,1,1.08.64,2.48,2.48,0,0,1,.62,1,3.32,3.32,0,0,1,.21,1.2,2.5,2.5,0,0,1-.48,1.56,3.1,3.1,0,0,1-1.23,1,3.27,3.27,0,0,1,1.56,1,2.93,2.93,0,0,1,.66,2,3.79,3.79,0,0,1-.26,1.4,2.85,2.85,0,0,1-.77,1.11,3.33,3.33,0,0,1-1.33.73,6.18,6.18,0,0,1-1.94.27A7.08,7.08,0,0,1,44,44.8a6.72,6.72,0,0,1-.85-.17l-.7-.2L42,44.27l.3-1.33a7.29,7.29,0,0,0,.95.35A5.38,5.38,0,0,0,44.83,43.5Z"/><path d="M50.91,40.61a16.41,16.41,0,0,1,.87-1.72c.37-.65.78-1.32,1.25-2s.95-1.37,1.48-2A19.2,19.2,0,0,1,56.1,33h1.5v7.37H59v1.27H57.6v3H56.1v-3H50.91Zm5.19-5.75q-.51.54-1,1.2c-.34.43-.68.89-1,1.37s-.63,1-.91,1.48-.54,1-.76,1.48H56.1Z"/><path d="M76.85,36a3.08,3.08,0,0,1-.23,1.16A6.12,6.12,0,0,1,76,38.25a12,12,0,0,1-.87,1.07c-.33.35-.66.69-1,1l-.65.67q-.37.4-.72.81a6.23,6.23,0,0,0-.56.81,1.38,1.38,0,0,0-.22.67h5.34v1.31h-7a1.23,1.23,0,0,1,0-.19v-.2a4.07,4.07,0,0,1,.26-1.46,6.29,6.29,0,0,1,.68-1.28,7.65,7.65,0,0,1,.93-1.13c.34-.36.68-.7,1-1l.79-.81a7.89,7.89,0,0,0,.68-.78,4.54,4.54,0,0,0,.47-.82,2.19,2.19,0,0,0,.18-.87,2.16,2.16,0,0,0-.16-.86,1.64,1.64,0,0,0-.43-.59,1.7,1.7,0,0,0-.63-.35,2.43,2.43,0,0,0-.77-.11,2.77,2.77,0,0,0-.89.13,3.11,3.11,0,0,0-.71.32,4.21,4.21,0,0,0-.54.36l-.34.29-.76-1.09a4,4,0,0,1,.45-.41,4.72,4.72,0,0,1,.72-.46,5.42,5.42,0,0,1,.94-.36,4.11,4.11,0,0,1,1.13-.15,3.8,3.8,0,0,1,2.69.83A3.16,3.16,0,0,1,76.85,36Z"/><path d="M82.32,43.5a3.06,3.06,0,0,0,2.11-.59,2.08,2.08,0,0,0,.63-1.59,2,2,0,0,0-.26-1.06,2.13,2.13,0,0,0-.7-.7,2.91,2.91,0,0,0-1-.37,5.62,5.62,0,0,0-1.18-.12h-.39V37.82h.54a4.24,4.24,0,0,0,.85-.09,2.19,2.19,0,0,0,.81-.3,1.67,1.67,0,0,0,.59-.59,1.81,1.81,0,0,0,.22-1A1.51,1.51,0,0,0,84,34.53a2.35,2.35,0,0,0-1.37-.4,3.47,3.47,0,0,0-1.37.23,6.25,6.25,0,0,0-.94.48l-.6-1.18a5.22,5.22,0,0,1,1.19-.59,4.77,4.77,0,0,1,1.77-.31,4.94,4.94,0,0,1,1.58.22,2.9,2.9,0,0,1,1.08.64,2.48,2.48,0,0,1,.62,1,3.32,3.32,0,0,1,.21,1.2,2.5,2.5,0,0,1-.48,1.56,3.1,3.1,0,0,1-1.23,1,3.27,3.27,0,0,1,1.56,1,2.93,2.93,0,0,1,.66,2,3.79,3.79,0,0,1-.26,1.4,2.85,2.85,0,0,1-.77,1.11,3.33,3.33,0,0,1-1.33.73,6.18,6.18,0,0,1-1.94.27,7.08,7.08,0,0,1-.89-.07,6.72,6.72,0,0,1-.85-.17l-.7-.2-.44-.16.3-1.33a7.29,7.29,0,0,0,.95.35A5.38,5.38,0,0,0,82.32,43.5Z"/><path d="M100.58,37.5a5.75,5.75,0,0,1,3.66,1.11,3.44,3.44,0,0,1,1.14,2.71,4.13,4.13,0,0,1-.24,1.43,2.9,2.9,0,0,1-.76,1.12,3.43,3.43,0,0,1-1.32.73,5.83,5.83,0,0,1-1.88.27,6.54,6.54,0,0,1-.89-.07c-.29,0-.57-.1-.83-.16s-.5-.13-.7-.19a2.93,2.93,0,0,1-.43-.18l.3-1.33a8,8,0,0,0,.93.35,5.08,5.08,0,0,0,1.58.21,4.13,4.13,0,0,0,1.26-.17,2.23,2.23,0,0,0,.82-.46,1.8,1.8,0,0,0,.45-.67,2.29,2.29,0,0,0,.14-.78,2.93,2.93,0,0,0-.22-1.14,1.8,1.8,0,0,0-.75-.83,4.19,4.19,0,0,0-1.46-.52A13.7,13.7,0,0,0,99,38.76c.08-.55.14-1.07.18-1.55s.08-1,.11-1.41.06-.91.08-1.36,0-.92.07-1.42h5.58v1.31h-4.24c0,.18,0,.4,0,.69s0,.57-.07.89,0,.61-.07.9S100.59,37.33,100.58,37.5Z"/><path d="M107.14,40.61a18.62,18.62,0,0,1,.87-1.72c.37-.65.79-1.32,1.25-2s1-1.37,1.48-2A22.55,22.55,0,0,1,112.33,33h1.5v7.37h1.37v1.27h-1.37v3h-1.5v-3h-5.19Zm5.19-5.75q-.49.54-1,1.2c-.34.43-.68.89-1,1.37s-.63,1-.91,1.48-.53,1-.76,1.48h3.69Z"/><path d="M128.12,44.62a15.42,15.42,0,0,1,.48-2.82,25.58,25.58,0,0,1,.92-2.89,23.79,23.79,0,0,1,1.2-2.58,12.09,12.09,0,0,1,1.3-2h-5.63V33h7.35v1.29a13.56,13.56,0,0,0-1.22,1.77,21.21,21.21,0,0,0-1.24,2.48,22.56,22.56,0,0,0-1,2.94,17.29,17.29,0,0,0-.54,3.12Z"/><path d="M135.6,40a8.9,8.9,0,0,1,.46-3,5.88,5.88,0,0,1,1.31-2.18,5.64,5.64,0,0,1,2.07-1.35A8.13,8.13,0,0,1,142.2,33l.13,1.32a8.25,8.25,0,0,0-1.81.21,4.19,4.19,0,0,0-1.46.64A3.7,3.7,0,0,0,138,36.26a5.45,5.45,0,0,0-.66,1.71,5.65,5.65,0,0,1,1-.34,4.69,4.69,0,0,1,1.14-.13,4.14,4.14,0,0,1,1.66.3,2.93,2.93,0,0,1,1.69,2A4.74,4.74,0,0,1,143,41.1a4.3,4.3,0,0,1-.21,1.3,3.55,3.55,0,0,1-.63,1.22,3.29,3.29,0,0,1-1.11.9,3.51,3.51,0,0,1-1.61.35,3.35,3.35,0,0,1-2.89-1.3A6,6,0,0,1,135.6,40Zm3.69-1.2a4.69,4.69,0,0,0-1.1.12,5.09,5.09,0,0,0-1,.33c0,.13,0,.25,0,.37V40a10,10,0,0,0,.1,1.38,4,4,0,0,0,.36,1.15,2.07,2.07,0,0,0,.68.78,1.91,1.91,0,0,0,1.11.29,1.7,1.7,0,0,0,.94-.23,2.18,2.18,0,0,0,.62-.59,2.39,2.39,0,0,0,.34-.8,3.58,3.58,0,0,0,.11-.83,2.65,2.65,0,0,0-.52-1.75A2,2,0,0,0,139.29,38.77Z"/><path d="M161.75,41.6a3.15,3.15,0,0,1-.93,2.37,3.91,3.91,0,0,1-2.82.9,4.84,4.84,0,0,1-1.8-.29,3.23,3.23,0,0,1-1.14-.75,2.76,2.76,0,0,1-.6-1,3.55,3.55,0,0,1-.17-1.1,3,3,0,0,1,.54-1.76,4.34,4.34,0,0,1,1.29-1.24,3,3,0,0,1-1.59-2.76,3.11,3.11,0,0,1,.24-1.21,3,3,0,0,1,.7-1,3.63,3.63,0,0,1,1.09-.69,4,4,0,0,1,1.46-.26,4.09,4.09,0,0,1,1.6.28,3.29,3.29,0,0,1,1.08.72,2.91,2.91,0,0,1,.6,1,3.31,3.31,0,0,1,.18,1.05,3,3,0,0,1-.5,1.71,4.25,4.25,0,0,1-1.17,1.15A3.09,3.09,0,0,1,161.75,41.6Zm-6,.12a1.84,1.84,0,0,0,.12.63,1.79,1.79,0,0,0,.37.61,2,2,0,0,0,.7.45,2.67,2.67,0,0,0,1.05.18,2.76,2.76,0,0,0,1-.16,1.84,1.84,0,0,0,.69-.43,1.77,1.77,0,0,0,.41-.61,2,2,0,0,0,.13-.67,1.93,1.93,0,0,0-.77-1.64,5.57,5.57,0,0,0-2.12-.87,3.07,3.07,0,0,0-1.16,1A2.55,2.55,0,0,0,155.78,41.72Zm4.2-5.94a1.54,1.54,0,0,0-.11-.56,1.59,1.59,0,0,0-.35-.56,1.85,1.85,0,0,0-.6-.43,2.09,2.09,0,0,0-.9-.18,2.17,2.17,0,0,0-.91.17,1.84,1.84,0,0,0-.61.42,1.46,1.46,0,0,0-.35.56,1.9,1.9,0,0,0-.1.61,2.2,2.2,0,0,0,.55,1.44,3.31,3.31,0,0,0,1.83,1,3.73,3.73,0,0,0,1.13-1A2.4,2.4,0,0,0,160,35.78Z"/><path d="M165.61,44.62a16.25,16.25,0,0,1,.47-2.82,27.82,27.82,0,0,1,.93-2.89,22,22,0,0,1,1.2-2.58,12.09,12.09,0,0,1,1.3-2h-5.63V33h7.35v1.29A13.56,13.56,0,0,0,170,36.08a21.19,21.19,0,0,0-1.25,2.48,24.14,24.14,0,0,0-1,2.94,17.29,17.29,0,0,0-.54,3.12Z"/><path d="M189.32,36a3.08,3.08,0,0,1-.23,1.16,6.12,6.12,0,0,1-.62,1.11,10.6,10.6,0,0,1-.88,1.07c-.32.35-.65.69-1,1-.19.19-.41.41-.65.67s-.49.54-.72.81a6.23,6.23,0,0,0-.56.81,1.38,1.38,0,0,0-.22.67h5.34v1.31h-7a1.23,1.23,0,0,1,0-.19v-.2a4.07,4.07,0,0,1,.26-1.46,6.29,6.29,0,0,1,.68-1.28,8.26,8.26,0,0,1,.92-1.13l1-1,.79-.81a7.89,7.89,0,0,0,.68-.78,4.54,4.54,0,0,0,.47-.82,2.42,2.42,0,0,0,0-1.73,1.55,1.55,0,0,0-.44-.59,1.66,1.66,0,0,0-.62-.35,2.43,2.43,0,0,0-.77-.11,2.77,2.77,0,0,0-.89.13,3.4,3.4,0,0,0-.72.32,4.86,4.86,0,0,0-.53.36l-.34.29-.77-1.09a4,4,0,0,1,.45-.41,4.85,4.85,0,0,1,.73-.46,5.42,5.42,0,0,1,.94-.36,4.11,4.11,0,0,1,1.13-.15,3.8,3.8,0,0,1,2.69.83A3.16,3.16,0,0,1,189.32,36Z"/><path d="M198.69,36a3.08,3.08,0,0,1-.23,1.16,6.12,6.12,0,0,1-.62,1.11,12,12,0,0,1-.87,1.07c-.33.35-.66.69-1,1l-.65.67q-.37.4-.72.81a6.23,6.23,0,0,0-.56.81,1.38,1.38,0,0,0-.22.67h5.34v1.31h-7a1.23,1.23,0,0,1,0-.19v-.2a4.07,4.07,0,0,1,.26-1.46,6.29,6.29,0,0,1,.68-1.28,7.65,7.65,0,0,1,.93-1.13c.34-.36.68-.7,1-1l.8-.81a7.75,7.75,0,0,0,.67-.78,4.54,4.54,0,0,0,.47-.82,2.19,2.19,0,0,0,.18-.87,2.16,2.16,0,0,0-.16-.86,1.64,1.64,0,0,0-.43-.59,1.7,1.7,0,0,0-.63-.35,2.43,2.43,0,0,0-.77-.11,2.77,2.77,0,0,0-.89.13,3.11,3.11,0,0,0-.71.32,4.21,4.21,0,0,0-.54.36,4.11,4.11,0,0,0-.33.29l-.77-1.09a4,4,0,0,1,.45-.41,4.72,4.72,0,0,1,.72-.46,5.42,5.42,0,0,1,.94-.36,4.11,4.11,0,0,1,1.13-.15,3.8,3.8,0,0,1,2.69.83A3.16,3.16,0,0,1,198.69,36Z"/><path d="M49.28,64.1a3.14,3.14,0,0,1-.93,2.36,3.91,3.91,0,0,1-2.82.9,4.84,4.84,0,0,1-1.8-.29,3.06,3.06,0,0,1-1.14-.75,2.8,2.8,0,0,1-.6-1,4,4,0,0,1-.17-1.11,3,3,0,0,1,.54-1.76,4.47,4.47,0,0,1,1.29-1.24,3,3,0,0,1-1.59-2.75,3.16,3.16,0,0,1,.24-1.22,3,3,0,0,1,.7-1,3.46,3.46,0,0,1,1.09-.7,4,4,0,0,1,1.46-.26,4.05,4.05,0,0,1,1.6.28,3.29,3.29,0,0,1,1.08.72,3,3,0,0,1,.6,1,3.21,3.21,0,0,1,.18,1,2.88,2.88,0,0,1-.5,1.71,4.56,4.56,0,0,1-1.16,1.16A3.09,3.09,0,0,1,49.28,64.1Zm-6,.11a1.82,1.82,0,0,0,.11.63,1.7,1.7,0,0,0,.37.61,2,2,0,0,0,.7.46,2.67,2.67,0,0,0,1,.18,3,3,0,0,0,1-.16,1.86,1.86,0,0,0,.69-.44,1.77,1.77,0,0,0,.41-.61A2,2,0,0,0,47,62.57a5.57,5.57,0,0,0-2.12-.87,3.16,3.16,0,0,0-1.16,1A2.57,2.57,0,0,0,43.32,64.21Zm4.2-5.94a1.52,1.52,0,0,0-.12-.55,1.66,1.66,0,0,0-.34-.57,2,2,0,0,0-.61-.43,2.06,2.06,0,0,0-.9-.18,2,2,0,0,0-1.52.59,1.55,1.55,0,0,0-.35.57,1.86,1.86,0,0,0-.1.61,2.18,2.18,0,0,0,.55,1.43,3.25,3.25,0,0,0,1.83,1,3.6,3.6,0,0,0,1.13-1A2.37,2.37,0,0,0,47.52,58.27Z"/><path d="M53.14,67.12a15.37,15.37,0,0,1,.48-2.83,23.59,23.59,0,0,1,2.12-5.47,13,13,0,0,1,1.3-2H51.41V55.51h7.35v1.3a12.72,12.72,0,0,0-1.22,1.76,22,22,0,0,0-1.24,2.48,20.85,20.85,0,0,0-1,3,16.21,16.21,0,0,0-.55,3.12Z"/><path d="M69.65,63.11c.22-.5.51-1.08.87-1.73s.79-1.32,1.25-2,1-1.38,1.48-2a20.79,20.79,0,0,1,1.6-1.81h1.49v7.37h1.37v1.27H76.34v3H74.85v-3h-5.2Zm5.2-5.76c-.34.36-.68.76-1,1.2s-.67.9-1,1.38-.63,1-.91,1.47-.53,1-.76,1.48h3.7Z"/><path d="M81.84,60a5.78,5.78,0,0,1,3.65,1.11,3.45,3.45,0,0,1,1.15,2.72,4.11,4.11,0,0,1-.25,1.42,2.79,2.79,0,0,1-.76,1.13,3.67,3.67,0,0,1-1.31.73,6.19,6.19,0,0,1-1.88.26,5.26,5.26,0,0,1-.89-.07A9.76,9.76,0,0,1,80,66.94a2.51,2.51,0,0,1-.43-.18l.3-1.33a8.08,8.08,0,0,0,.92.36,5.45,5.45,0,0,0,1.59.2,4,4,0,0,0,1.25-.17,2.09,2.09,0,0,0,.82-.46,1.62,1.62,0,0,0,.45-.66,2.3,2.3,0,0,0,.14-.79,2.88,2.88,0,0,0-.21-1.13,2,2,0,0,0-.75-.84,4.48,4.48,0,0,0-1.47-.51,12.52,12.52,0,0,0-2.33-.18c.07-.55.13-1.07.18-1.55s.08-1,.11-1.4.06-.91.08-1.36,0-.93.06-1.43h5.59v1.32H82.08c0,.17,0,.4,0,.68s0,.58-.06.89,0,.61-.08.9S81.85,59.82,81.84,60Z"/><path d="M105,58.47a3,3,0,0,1-.24,1.17,5.29,5.29,0,0,1-.62,1.1,8.5,8.5,0,0,1-.87,1.07c-.32.35-.65.7-1,1-.19.19-.41.41-.66.68s-.48.53-.71.8a7,7,0,0,0-.56.81,1.44,1.44,0,0,0-.23.67h5.35v1.32h-7a.68.68,0,0,1,0-.2v-.2a4.11,4.11,0,0,1,.26-1.46A6.21,6.21,0,0,1,99.33,64a9,9,0,0,1,.92-1.14l1-1,.79-.8a9.29,9.29,0,0,0,.68-.79,4.23,4.23,0,0,0,.47-.82,2.36,2.36,0,0,0,.17-.87,2,2,0,0,0-.16-.86,1.53,1.53,0,0,0-.43-.59,1.81,1.81,0,0,0-.62-.35,2.93,2.93,0,0,0-1.66,0,3.4,3.4,0,0,0-.72.32c-.2.12-.38.25-.53.36a4.13,4.13,0,0,0-.34.3l-.77-1.09a3.23,3.23,0,0,1,.45-.41,3.57,3.57,0,0,1,.72-.46,5.08,5.08,0,0,1,1-.37,4.11,4.11,0,0,1,1.13-.15,3.82,3.82,0,0,1,2.69.83A3.17,3.17,0,0,1,105,58.47Z"/><path d="M110.44,66a3.06,3.06,0,0,0,2.11-.59,2.31,2.31,0,0,0,.37-2.65,2,2,0,0,0-.7-.69,2.88,2.88,0,0,0-1-.38,6.47,6.47,0,0,0-1.18-.11h-.4V60.31h.55a5.08,5.08,0,0,0,.85-.08,2.81,2.81,0,0,0,.81-.3,1.75,1.75,0,0,0,.59-.59,1.84,1.84,0,0,0,.22-1,1.53,1.53,0,0,0-.59-1.36,2.36,2.36,0,0,0-1.38-.4,3.74,3.74,0,0,0-1.37.23,6.61,6.61,0,0,0-.93.48l-.6-1.18a5.67,5.67,0,0,1,1.19-.59,4.77,4.77,0,0,1,1.77-.31,4.82,4.82,0,0,1,1.57.23,2.86,2.86,0,0,1,1.08.63,2.71,2.71,0,0,1,.63,1,3.38,3.38,0,0,1,.21,1.21,2.49,2.49,0,0,1-.48,1.55,3.12,3.12,0,0,1-1.23,1,3.18,3.18,0,0,1,1.56,1,3,3,0,0,1,.65,2,3.78,3.78,0,0,1-.25,1.4,3.08,3.08,0,0,1-.77,1.12,3.68,3.68,0,0,1-1.33.73,6.51,6.51,0,0,1-1.94.26,5.51,5.51,0,0,1-.89-.07,8.62,8.62,0,0,1-.85-.16l-.71-.21-.44-.16.3-1.33a7.27,7.27,0,0,0,1,.36A5.7,5.7,0,0,0,110.44,66Z"/><path d="M128.12,67.12a15.37,15.37,0,0,1,.48-2.83,23.59,23.59,0,0,1,2.12-5.47,13,13,0,0,1,1.3-2h-5.63V55.51h7.35v1.3a12.72,12.72,0,0,0-1.22,1.76A23.1,23.1,0,0,0,130.25,64a17,17,0,0,0-.54,3.12Z"/><path d="M135.6,62.47a8.86,8.86,0,0,1,.46-3,5.58,5.58,0,0,1,3.38-3.54,7.9,7.9,0,0,1,2.76-.48l.13,1.31a8.25,8.25,0,0,0-1.81.21,4.6,4.6,0,0,0-1.46.64A3.74,3.74,0,0,0,138,58.76a5.39,5.39,0,0,0-.66,1.7,5.65,5.65,0,0,1,1-.34,5.24,5.24,0,0,1,1.14-.13,4.14,4.14,0,0,1,1.66.3,2.92,2.92,0,0,1,1.09.8,3,3,0,0,1,.6,1.15,4.74,4.74,0,0,1,.19,1.35,4.26,4.26,0,0,1-.21,1.3,3.55,3.55,0,0,1-.63,1.22,3.29,3.29,0,0,1-1.11.9,3.51,3.51,0,0,1-1.61.35,3.37,3.37,0,0,1-2.89-1.29A6,6,0,0,1,135.6,62.47Zm3.69-1.2a5.32,5.32,0,0,0-1.1.11,5.91,5.91,0,0,0-1,.34c0,.12,0,.24,0,.36v.39a9.91,9.91,0,0,0,.1,1.37,3.79,3.79,0,0,0,.36,1.15,2.18,2.18,0,0,0,.68.79,2,2,0,0,0,1.11.29,1.7,1.7,0,0,0,.94-.24,2.05,2.05,0,0,0,.62-.59,2.39,2.39,0,0,0,.34-.8,3.58,3.58,0,0,0,.11-.83,2.62,2.62,0,0,0-.52-1.74A2,2,0,0,0,139.29,61.27Z"/><path d="M161.2,58.47a3.17,3.17,0,0,1-.23,1.17,5.79,5.79,0,0,1-.62,1.1,10.72,10.72,0,0,1-.87,1.07c-.33.35-.66.7-1,1l-.65.68c-.25.26-.49.53-.71.8a6.06,6.06,0,0,0-.57.81,1.41,1.41,0,0,0-.22.67h5.34v1.32h-7a1.36,1.36,0,0,1,0-.2v-.2a3.91,3.91,0,0,1,.27-1.46,5.72,5.72,0,0,1,.67-1.27,8.28,8.28,0,0,1,.93-1.14l1-1,.8-.8a9.1,9.1,0,0,0,.67-.79,4.23,4.23,0,0,0,.47-.82,2.29,2.29,0,0,0,0-1.73,1.64,1.64,0,0,0-.43-.59,1.77,1.77,0,0,0-.63-.35,2.7,2.7,0,0,0-.77-.11,2.82,2.82,0,0,0-.89.13,3.11,3.11,0,0,0-.71.32,5.61,5.61,0,0,0-.54.36,2.69,2.69,0,0,0-.33.3l-.77-1.09a3.23,3.23,0,0,1,.45-.41,3.57,3.57,0,0,1,.72-.46,4.82,4.82,0,0,1,1-.37,4,4,0,0,1,1.12-.15,3.8,3.8,0,0,1,2.69.83A3.17,3.17,0,0,1,161.2,58.47Z"/><path d="M164.11,57.91A11.11,11.11,0,0,0,166,57a7.58,7.58,0,0,0,1.67-1.46h1.09V65.8h2.19v1.32h-6.24V65.8h2.51V57.67a4.62,4.62,0,0,1-.5.38q-.28.2-.63.39c-.23.12-.47.24-.72.35a4.83,4.83,0,0,1-.74.28Z"/><path d="M189.82,60.16a7.28,7.28,0,0,1-1.68,5.22,6.79,6.79,0,0,1-5.08,1.77L183,65.84a6.21,6.21,0,0,0,3.39-.83,4.25,4.25,0,0,0,1.69-2.88,4.79,4.79,0,0,1-1,.33,5.31,5.31,0,0,1-1.14.12,4.27,4.27,0,0,1-1.67-.29,2.8,2.8,0,0,1-1.09-.79,3.16,3.16,0,0,1-.6-1.13A4.64,4.64,0,0,1,182.4,59a4.26,4.26,0,0,1,.21-1.3,3.61,3.61,0,0,1,.64-1.21,3.16,3.16,0,0,1,1.1-.9,3.82,3.82,0,0,1,4.5,1A5.94,5.94,0,0,1,189.82,60.16Zm-3.71,1.15a4.93,4.93,0,0,0,1.12-.12,5.06,5.06,0,0,0,1-.32c0-.12,0-.24,0-.35v-.36a8.83,8.83,0,0,0-.1-1.39,3.81,3.81,0,0,0-.36-1.14,2.17,2.17,0,0,0-.69-.78,2,2,0,0,0-1.12-.29,1.73,1.73,0,0,0-.94.24,2.2,2.2,0,0,0-1,1.36,3.4,3.4,0,0,0-.1.82,2.57,2.57,0,0,0,.51,1.73A2,2,0,0,0,186.11,61.31Z"/><path d="M199.23,64.1a3.13,3.13,0,0,1-.92,2.36,3.91,3.91,0,0,1-2.82.9,4.84,4.84,0,0,1-1.8-.29,3,3,0,0,1-1.14-.75,2.8,2.8,0,0,1-.6-1,3.68,3.68,0,0,1-.18-1.11,3,3,0,0,1,.55-1.76,4.47,4.47,0,0,1,1.29-1.24A3,3,0,0,1,192,58.44a3.16,3.16,0,0,1,.24-1.22,2.87,2.87,0,0,1,.7-1,3.46,3.46,0,0,1,1.09-.7,3.94,3.94,0,0,1,1.45-.26,4.11,4.11,0,0,1,1.61.28,3.29,3.29,0,0,1,1.08.72,2.76,2.76,0,0,1,.59,1,3,3,0,0,1,.19,1,3,3,0,0,1-.5,1.71,4.44,4.44,0,0,1-1.17,1.16A3.07,3.07,0,0,1,199.23,64.1Zm-6,.11a1.84,1.84,0,0,0,.12.63,1.7,1.7,0,0,0,.37.61,2,2,0,0,0,.7.46,2.66,2.66,0,0,0,1,.18,3,3,0,0,0,1-.16,1.86,1.86,0,0,0,.69-.44,1.62,1.62,0,0,0,.4-.61,1.75,1.75,0,0,0,.14-.67,1.93,1.93,0,0,0-.77-1.64,5.64,5.64,0,0,0-2.12-.87,3.16,3.16,0,0,0-1.16,1A2.58,2.58,0,0,0,193.27,64.21Zm4.2-5.94a1.49,1.49,0,0,0-.11-.55,1.55,1.55,0,0,0-.35-.57,2,2,0,0,0-.6-.43,2.43,2.43,0,0,0-1.81,0,2.19,2.19,0,0,0-.61.42,1.42,1.42,0,0,0-.35.57,1.86,1.86,0,0,0-.1.61,2.18,2.18,0,0,0,.55,1.43,3.25,3.25,0,0,0,1.83,1,3.6,3.6,0,0,0,1.13-1A2.36,2.36,0,0,0,197.47,58.27Z"/><path d="M44.83,88.49a3,3,0,0,0,2.11-.6,2.06,2.06,0,0,0,.63-1.58,2.09,2.09,0,0,0-.26-1.07,2.17,2.17,0,0,0-.69-.69,3.06,3.06,0,0,0-1-.38,6.39,6.39,0,0,0-1.18-.11h-.39V82.81h.54a4.17,4.17,0,0,0,.85-.09,2.38,2.38,0,0,0,.81-.3,1.67,1.67,0,0,0,.59-.59,1.83,1.83,0,0,0,.23-1,1.52,1.52,0,0,0-.59-1.36,2.41,2.41,0,0,0-1.38-.41,3.47,3.47,0,0,0-1.37.24,4.81,4.81,0,0,0-.94.48l-.6-1.19a6.21,6.21,0,0,1,1.19-.59,5,5,0,0,1,1.77-.3,4.9,4.9,0,0,1,1.58.22,2.82,2.82,0,0,1,1.08.64,2.45,2.45,0,0,1,.62,1,3.38,3.38,0,0,1,.21,1.21,2.54,2.54,0,0,1-.48,1.56,3.1,3.1,0,0,1-1.23,1,3.32,3.32,0,0,1,1.56,1,3,3,0,0,1,.66,2,3.83,3.83,0,0,1-.26,1.4,2.85,2.85,0,0,1-.77,1.11,3.46,3.46,0,0,1-1.33.73,6.2,6.2,0,0,1-1.94.26,7,7,0,0,1-.89-.06c-.3-.05-.59-.1-.85-.17s-.5-.14-.7-.21a2.73,2.73,0,0,1-.44-.16l.3-1.33a7,7,0,0,0,.95.36A5.38,5.38,0,0,0,44.83,88.49Z"/><path d="M58.65,86.59A3.13,3.13,0,0,1,57.72,89a3.91,3.91,0,0,1-2.82.9,4.71,4.71,0,0,1-1.8-.29A3,3,0,0,1,52,88.81a2.65,2.65,0,0,1-.6-1,3.57,3.57,0,0,1-.18-1.1,3,3,0,0,1,.54-1.77A4.47,4.47,0,0,1,53,83.69a3,3,0,0,1-1.6-2.76,3.13,3.13,0,0,1,.94-2.23,3.22,3.22,0,0,1,1.1-.69,3.71,3.71,0,0,1,1.45-.26,4.05,4.05,0,0,1,1.6.28,2.87,2.87,0,0,1,1.68,1.69,3.32,3.32,0,0,1,.19,1,2.89,2.89,0,0,1-.51,1.72,4.37,4.37,0,0,1-1.16,1.15A3.07,3.07,0,0,1,58.65,86.59Zm-6,.12a2,2,0,0,0,.11.62,1.73,1.73,0,0,0,.38.61,1.85,1.85,0,0,0,.69.46,3.18,3.18,0,0,0,2.05,0,2.12,2.12,0,0,0,.7-.43,1.84,1.84,0,0,0,.4-.61,1.77,1.77,0,0,0,.13-.67,1.92,1.92,0,0,0-.77-1.64,5.42,5.42,0,0,0-2.12-.88,3.34,3.34,0,0,0-1.16,1A2.68,2.68,0,0,0,52.69,86.71Zm4.2-5.95a1.57,1.57,0,0,0-.12-.55,1.62,1.62,0,0,0-.34-.56,2,2,0,0,0-.61-.43,2.43,2.43,0,0,0-1.81,0,1.94,1.94,0,0,0-.61.42,1.51,1.51,0,0,0-.35.56,2.07,2.07,0,0,0,.45,2,3.25,3.25,0,0,0,1.83,1,3.8,3.8,0,0,0,1.14-1A2.36,2.36,0,0,0,56.89,80.76Z"/><path d="M77.39,86.59A3.16,3.16,0,0,1,76.47,89a3.91,3.91,0,0,1-2.82.9,4.65,4.65,0,0,1-1.8-.29,3,3,0,0,1-1.14-.75,2.65,2.65,0,0,1-.6-1,3.57,3.57,0,0,1-.18-1.1,3,3,0,0,1,.55-1.77,4.43,4.43,0,0,1,1.29-1.23,3,3,0,0,1-1.59-2.76,3.2,3.2,0,0,1,.24-1.22,2.92,2.92,0,0,1,.7-1A3.18,3.18,0,0,1,72.21,78a3.75,3.75,0,0,1,1.45-.26,4.11,4.11,0,0,1,1.61.28,2.88,2.88,0,0,1,1.07.72,2.62,2.62,0,0,1,.6,1,3.06,3.06,0,0,1,.19,1,3,3,0,0,1-.5,1.72,4.4,4.4,0,0,1-1.17,1.15A3.07,3.07,0,0,1,77.39,86.59Zm-6,.12a1.79,1.79,0,0,0,.12.62,1.7,1.7,0,0,0,.37.61,2,2,0,0,0,.69.46,2.74,2.74,0,0,0,1,.18,2.78,2.78,0,0,0,1-.16,2,2,0,0,0,.69-.43,1.7,1.7,0,0,0,.4-.61,1.79,1.79,0,0,0,.14-.67,1.92,1.92,0,0,0-.77-1.64A5.48,5.48,0,0,0,73,84.19a3.25,3.25,0,0,0-1.16,1A2.61,2.61,0,0,0,71.43,86.71Zm4.2-5.95a1.78,1.78,0,0,0-.11-.55,1.51,1.51,0,0,0-.35-.56,1.9,1.9,0,0,0-.61-.43,2.06,2.06,0,0,0-.9-.18,2,2,0,0,0-.9.17,1.84,1.84,0,0,0-.61.42,1.39,1.39,0,0,0-.35.56,1.9,1.9,0,0,0-.1.61,2.18,2.18,0,0,0,.55,1.43,3.25,3.25,0,0,0,1.83,1,3.76,3.76,0,0,0,1.13-1A2.36,2.36,0,0,0,75.63,80.76Z"/><path d="M82.32,88.49a3,3,0,0,0,2.11-.6,2.06,2.06,0,0,0,.63-1.58,1.9,1.9,0,0,0-1-1.76,2.92,2.92,0,0,0-1-.38,6.39,6.39,0,0,0-1.18-.11h-.39V82.81h.54a4.24,4.24,0,0,0,.85-.09,2.38,2.38,0,0,0,.81-.3,1.67,1.67,0,0,0,.59-.59,1.83,1.83,0,0,0,.22-1A1.5,1.5,0,0,0,84,79.52a2.36,2.36,0,0,0-1.37-.41,3.47,3.47,0,0,0-1.37.24,4.81,4.81,0,0,0-.94.48l-.6-1.19a6.21,6.21,0,0,1,1.19-.59A5.56,5.56,0,0,1,84.22,78a2.9,2.9,0,0,1,1.08.64,2.45,2.45,0,0,1,.62,1,3.38,3.38,0,0,1,.21,1.21,2.54,2.54,0,0,1-.48,1.56,3.1,3.1,0,0,1-1.23,1,3.32,3.32,0,0,1,1.56,1,3,3,0,0,1,.66,2,3.83,3.83,0,0,1-.26,1.4,2.85,2.85,0,0,1-.77,1.11,3.46,3.46,0,0,1-1.33.73,6.2,6.2,0,0,1-1.94.26,7,7,0,0,1-.89-.06c-.3-.05-.59-.1-.85-.17s-.5-.14-.7-.21a2.73,2.73,0,0,1-.44-.16l.3-1.33a7,7,0,0,0,.95.36A5.38,5.38,0,0,0,82.32,88.49Z"/><path d="M98,83.8a8.32,8.32,0,0,1,1-4.49,3.34,3.34,0,0,1,5.65,0,8.42,8.42,0,0,1,1,4.49,8.42,8.42,0,0,1-1,4.49,3.34,3.34,0,0,1-5.65,0A8.32,8.32,0,0,1,98,83.8Zm6.07,0a14.79,14.79,0,0,0-.11-1.81,5.89,5.89,0,0,0-.38-1.49,2.59,2.59,0,0,0-.69-1,1.57,1.57,0,0,0-1.07-.38,1.59,1.59,0,0,0-1.07.38,2.7,2.7,0,0,0-.69,1A5.89,5.89,0,0,0,99.64,82a14.95,14.95,0,0,0,0,3.62A6,6,0,0,0,100,87.1a2.7,2.7,0,0,0,.69,1,1.59,1.59,0,0,0,1.07.38,1.57,1.57,0,0,0,1.07-.38,2.59,2.59,0,0,0,.69-1,6,6,0,0,0,.38-1.49A14.79,14.79,0,0,0,104,83.8Zm-1.16-.21a1.33,1.33,0,0,1-.29.85,1,1,0,0,1-.76.35,1,1,0,0,1-.79-.35,1.28,1.28,0,0,1-.3-.85,1.34,1.34,0,0,1,.3-.86,1,1,0,0,1,.79-.37.92.92,0,0,1,.76.37A1.39,1.39,0,0,1,102.87,83.59Z"/><path d="M110.44,88.49a3,3,0,0,0,2.11-.6,2.06,2.06,0,0,0,.63-1.58,1.9,1.9,0,0,0-1-1.76,3.09,3.09,0,0,0-1-.38,6.47,6.47,0,0,0-1.18-.11h-.4V82.81h.55a4.24,4.24,0,0,0,.85-.09,2.55,2.55,0,0,0,.81-.3,1.67,1.67,0,0,0,.59-.59,1.83,1.83,0,0,0,.22-1,1.52,1.52,0,0,0-.59-1.36,2.37,2.37,0,0,0-1.38-.41,3.53,3.53,0,0,0-1.37.24,5,5,0,0,0-.93.48l-.6-1.19a6.21,6.21,0,0,1,1.19-.59,5,5,0,0,1,1.77-.3,4.83,4.83,0,0,1,1.57.22,2.75,2.75,0,0,1,1.08.64,2.59,2.59,0,0,1,.63,1,3.38,3.38,0,0,1,.21,1.21,2.54,2.54,0,0,1-.48,1.56,3.1,3.1,0,0,1-1.23,1,3.32,3.32,0,0,1,1.56,1,3,3,0,0,1,.65,2,3.82,3.82,0,0,1-.25,1.4,3,3,0,0,1-.77,1.11,3.54,3.54,0,0,1-1.33.73,6.2,6.2,0,0,1-1.94.26,6.88,6.88,0,0,1-.89-.06,8.51,8.51,0,0,1-.85-.17l-.71-.21a3.77,3.77,0,0,1-.44-.16l.3-1.33a7.27,7.27,0,0,0,1,.36A5.33,5.33,0,0,0,110.44,88.49Z"/><path d="M128.7,82.49a5.78,5.78,0,0,1,3.65,1.1,3.44,3.44,0,0,1,1.15,2.72,4,4,0,0,1-.25,1.43,2.76,2.76,0,0,1-.76,1.12,3.52,3.52,0,0,1-1.31.73,5.89,5.89,0,0,1-1.88.26,6.54,6.54,0,0,1-.89-.06l-.84-.16a6.52,6.52,0,0,1-.69-.2,2.93,2.93,0,0,1-.43-.18l.3-1.33a7.66,7.66,0,0,0,.93.36,5,5,0,0,0,1.58.21,4.13,4.13,0,0,0,1.26-.17,2.33,2.33,0,0,0,.81-.46,1.73,1.73,0,0,0,.45-.67,2.09,2.09,0,0,0,.14-.79,2.88,2.88,0,0,0-.21-1.13,1.92,1.92,0,0,0-.75-.83,4.27,4.27,0,0,0-1.46-.52,12.64,12.64,0,0,0-2.34-.18c.08-.55.14-1.06.18-1.54s.08-1,.11-1.41.06-.91.08-1.36,0-.92.06-1.42h5.59v1.31h-4.24c0,.17,0,.4,0,.68s-.05.58-.07.89-.05.62-.08.9S128.71,82.31,128.7,82.49Z"/><path d="M135.6,85a8.9,8.9,0,0,1,.46-3,5.81,5.81,0,0,1,1.31-2.18,5.64,5.64,0,0,1,2.07-1.35A7.89,7.89,0,0,1,142.2,78l.13,1.31a8.88,8.88,0,0,0-1.81.22,4.19,4.19,0,0,0-1.46.64A3.7,3.7,0,0,0,138,81.25a5.36,5.36,0,0,0-.66,1.71,5.65,5.65,0,0,1,1-.34,4.69,4.69,0,0,1,1.14-.13,4.14,4.14,0,0,1,1.66.3,2.9,2.9,0,0,1,1.09.79,3.06,3.06,0,0,1,.6,1.16,4.64,4.64,0,0,1,.19,1.35,4.3,4.3,0,0,1-.21,1.3,3.64,3.64,0,0,1-.63,1.22,3.29,3.29,0,0,1-1.11.9,3.51,3.51,0,0,1-1.61.34,3.37,3.37,0,0,1-2.89-1.29A6,6,0,0,1,135.6,85Zm3.69-1.2a5.32,5.32,0,0,0-1.1.11,5.91,5.91,0,0,0-1,.34c0,.13,0,.25,0,.37V85a10,10,0,0,0,.1,1.38,3.81,3.81,0,0,0,.36,1.14,2.1,2.1,0,0,0,.68.79,2,2,0,0,0,1.11.29,1.79,1.79,0,0,0,.94-.23,2.33,2.33,0,0,0,.62-.59,2.48,2.48,0,0,0,.34-.8,3.58,3.58,0,0,0,.11-.83,2.63,2.63,0,0,0-.52-1.75A2,2,0,0,0,139.29,83.76Z"/><path d="M154.19,83.8a8.42,8.42,0,0,1,1-4.49,3.35,3.35,0,0,1,5.66,0,8.42,8.42,0,0,1,1,4.49,8.42,8.42,0,0,1-1,4.49,3.35,3.35,0,0,1-5.66,0A8.42,8.42,0,0,1,154.19,83.8Zm6.07,0a13,13,0,0,0-.11-1.81,5.9,5.9,0,0,0-.37-1.49,2.72,2.72,0,0,0-.7-1,1.68,1.68,0,0,0-2.13,0,2.72,2.72,0,0,0-.7,1,5.9,5.9,0,0,0-.37,1.49,14.95,14.95,0,0,0,0,3.62,6,6,0,0,0,.37,1.49,2.72,2.72,0,0,0,.7,1,1.68,1.68,0,0,0,2.13,0,2.72,2.72,0,0,0,.7-1,6,6,0,0,0,.37-1.49A13,13,0,0,0,160.26,83.8Zm-1.16-.21a1.27,1.27,0,0,1-.29.85.94.94,0,0,1-.76.35,1,1,0,0,1-.78-.35,1.28,1.28,0,0,1-.3-.85,1.34,1.34,0,0,1,.3-.86,1,1,0,0,1,.78-.37.9.9,0,0,1,.76.37A1.34,1.34,0,0,1,159.1,83.59Z"/><path d="M163.56,83.8a8.32,8.32,0,0,1,1-4.49,3.34,3.34,0,0,1,5.65,0,8.42,8.42,0,0,1,1,4.49,8.42,8.42,0,0,1-1,4.49,3.34,3.34,0,0,1-5.65,0A8.32,8.32,0,0,1,163.56,83.8Zm6.08,0a14.79,14.79,0,0,0-.11-1.81,6.34,6.34,0,0,0-.38-1.49,2.82,2.82,0,0,0-.69-1,1.59,1.59,0,0,0-1.07-.38,1.57,1.57,0,0,0-1.07.38,2.59,2.59,0,0,0-.69,1,5.89,5.89,0,0,0-.38,1.49,14.95,14.95,0,0,0,0,3.62,6,6,0,0,0,.38,1.49,2.59,2.59,0,0,0,.69,1,1.57,1.57,0,0,0,1.07.38,1.59,1.59,0,0,0,1.07-.38,2.82,2.82,0,0,0,.69-1,6.47,6.47,0,0,0,.38-1.49A14.79,14.79,0,0,0,169.64,83.8Zm-1.16-.21a1.28,1.28,0,0,1-.3.85.93.93,0,0,1-.75.35,1,1,0,0,1-.79-.35,1.28,1.28,0,0,1-.3-.85,1.34,1.34,0,0,1,.3-.86,1,1,0,0,1,.79-.37.89.89,0,0,1,.75.37A1.34,1.34,0,0,1,168.48,83.59Z"/><path d="M185.42,88.49a3,3,0,0,0,2.11-.6,2.06,2.06,0,0,0,.63-1.58,2,2,0,0,0-1-1.76,3.09,3.09,0,0,0-1-.38,6.47,6.47,0,0,0-1.18-.11h-.4V82.81h.55a4.24,4.24,0,0,0,.85-.09,2.55,2.55,0,0,0,.81-.3,1.67,1.67,0,0,0,.59-.59,1.83,1.83,0,0,0,.22-1,1.52,1.52,0,0,0-.59-1.36,2.37,2.37,0,0,0-1.38-.41,3.53,3.53,0,0,0-1.37.24,5,5,0,0,0-.93.48l-.6-1.19a6.21,6.21,0,0,1,1.19-.59,5,5,0,0,1,1.77-.3,4.83,4.83,0,0,1,1.57.22,2.75,2.75,0,0,1,1.08.64,2.59,2.59,0,0,1,.63,1,3.38,3.38,0,0,1,.21,1.21,2.54,2.54,0,0,1-.48,1.56,3.1,3.1,0,0,1-1.23,1,3.32,3.32,0,0,1,1.56,1,3,3,0,0,1,.65,2,3.82,3.82,0,0,1-.25,1.4,3,3,0,0,1-.77,1.11,3.54,3.54,0,0,1-1.33.73,6.2,6.2,0,0,1-1.94.26,6.77,6.77,0,0,1-.89-.06,8.51,8.51,0,0,1-.85-.17l-.71-.21a3.77,3.77,0,0,1-.44-.16l.3-1.33a7.27,7.27,0,0,0,1,.36A5.33,5.33,0,0,0,185.42,88.49Z"/><path d="M191.49,85.6c.22-.5.51-1.08.87-1.73s.79-1.32,1.25-2,1-1.38,1.48-2a20.79,20.79,0,0,1,1.6-1.81h1.5v7.36h1.36v1.28h-1.36v3h-1.5v-3h-5.2Zm5.2-5.76c-.34.37-.68.77-1,1.2s-.67.9-1,1.38-.63,1-.91,1.47-.53,1-.76,1.48h3.7Z"/><path d="M43.77,112.1a16.25,16.25,0,0,1,.47-2.82,26.9,26.9,0,0,1,.93-2.88,20,20,0,0,1,1.2-2.59,13.32,13.32,0,0,1,1.29-2H42V100.5h7.35v1.29a12.65,12.65,0,0,0-1.22,1.77A21.19,21.19,0,0,0,46.92,106a24.14,24.14,0,0,0-1,2.94,16.46,16.46,0,0,0-.54,3.12Z"/><path d="M51.64,102.9a10.79,10.79,0,0,0,1.85-1,7.53,7.53,0,0,0,1.67-1.45h1.09v10.29h2.19v1.31H52.2v-1.31h2.51v-8.13a4.43,4.43,0,0,1-.49.38c-.2.13-.41.26-.64.38s-.47.25-.72.36a6.75,6.75,0,0,1-.73.28Z"/><path d="M69.84,106.29a8.35,8.35,0,0,1,1-4.49,3.34,3.34,0,0,1,5.65,0,10.58,10.58,0,0,1,0,9,3.33,3.33,0,0,1-5.65,0A8.32,8.32,0,0,1,69.84,106.29Zm6.07,0a13.14,13.14,0,0,0-.11-1.81,6.13,6.13,0,0,0-.37-1.49,2.72,2.72,0,0,0-.7-1,1.57,1.57,0,0,0-1.07-.37,1.54,1.54,0,0,0-1.06.37,2.72,2.72,0,0,0-.7,1,6.13,6.13,0,0,0-.37,1.49,13.71,13.71,0,0,0,0,3.62,5.9,5.9,0,0,0,.37,1.49,2.64,2.64,0,0,0,.7,1,1.55,1.55,0,0,0,1.06.38,1.57,1.57,0,0,0,1.07-.38,2.64,2.64,0,0,0,.7-1,5.9,5.9,0,0,0,.37-1.49A13,13,0,0,0,75.91,106.29Zm-1.16-.2a1.32,1.32,0,0,1-.29.84.93.93,0,0,1-.76.36,1,1,0,0,1-.79-.36,1.27,1.27,0,0,1-.3-.84,1.35,1.35,0,0,1,.3-.87,1,1,0,0,1,.79-.37.91.91,0,0,1,.76.37A1.4,1.4,0,0,1,74.75,106.09Z"/><path d="M81.26,112.1a16.25,16.25,0,0,1,.47-2.82,26.9,26.9,0,0,1,.93-2.88,20,20,0,0,1,1.2-2.59,13.32,13.32,0,0,1,1.29-2H79.53V100.5h7.35v1.29a12.65,12.65,0,0,0-1.22,1.77A21.19,21.19,0,0,0,84.41,106a24.14,24.14,0,0,0-1,2.94,16.46,16.46,0,0,0-.54,3.12Z"/><path d="M105.47,105.15a7.28,7.28,0,0,1-1.68,5.22,6.79,6.79,0,0,1-5.08,1.77l-.06-1.31A6.06,6.06,0,0,0,102,110a4.17,4.17,0,0,0,1.7-2.87,6.38,6.38,0,0,1-1,.33,5.4,5.4,0,0,1-1.15.12,4.22,4.22,0,0,1-1.66-.29,2.9,2.9,0,0,1-1.09-.79,3,3,0,0,1-.6-1.13,4.64,4.64,0,0,1-.19-1.35,4.37,4.37,0,0,1,.21-1.31,3.78,3.78,0,0,1,.63-1.21,3.32,3.32,0,0,1,2.72-1.25,3.38,3.38,0,0,1,2.89,1.31A5.92,5.92,0,0,1,105.47,105.15Zm-3.71,1.14a5,5,0,0,0,1.12-.11,5.82,5.82,0,0,0,1-.32c0-.12,0-.24,0-.36v-.35a10.21,10.21,0,0,0-.1-1.39,3.64,3.64,0,0,0-.36-1.14,2,2,0,0,0-.69-.78,2,2,0,0,0-1.12-.29,1.82,1.82,0,0,0-.94.23,2,2,0,0,0-.61.59,2.16,2.16,0,0,0-.35.77,3.54,3.54,0,0,0-.1.83,2.57,2.57,0,0,0,.51,1.73A2,2,0,0,0,101.76,106.29Z"/><path d="M114.88,109.09a3.17,3.17,0,0,1-.92,2.36,3.91,3.91,0,0,1-2.82.9,4.94,4.94,0,0,1-1.81-.29,3.28,3.28,0,0,1-1.13-.75,2.76,2.76,0,0,1-.6-1,3.57,3.57,0,0,1-.18-1.1,2.92,2.92,0,0,1,.55-1.76,4.34,4.34,0,0,1,1.29-1.24,3,3,0,0,1-1.59-2.76,3.11,3.11,0,0,1,.24-1.21,3,3,0,0,1,.69-1,3.68,3.68,0,0,1,1.1-.69,3.94,3.94,0,0,1,1.45-.26,4.11,4.11,0,0,1,1.61.28,3.14,3.14,0,0,1,1.07.72,2.58,2.58,0,0,1,.6,1,3,3,0,0,1,.19,1,2.88,2.88,0,0,1-.51,1.71,4.09,4.09,0,0,1-1.16,1.15A3.08,3.08,0,0,1,114.88,109.09Zm-6,.11a1.84,1.84,0,0,0,.12.63,1.64,1.64,0,0,0,.37.61,1.92,1.92,0,0,0,.69.45,2.74,2.74,0,0,0,1.05.18,2.82,2.82,0,0,0,1-.16,1.84,1.84,0,0,0,.69-.43,1.75,1.75,0,0,0,.4-.61,1.77,1.77,0,0,0,.13-.67,1.92,1.92,0,0,0-.76-1.64,5.64,5.64,0,0,0-2.12-.87,3.28,3.28,0,0,0-1.17,1A2.63,2.63,0,0,0,108.92,109.2Zm4.2-5.94a1.78,1.78,0,0,0-.11-.56,1.75,1.75,0,0,0-.35-.56,1.9,1.9,0,0,0-.61-.43,2.06,2.06,0,0,0-.9-.18,2.24,2.24,0,0,0-.91.17,1.9,1.9,0,0,0-.6.42,1.46,1.46,0,0,0-.35.56,1.9,1.9,0,0,0-.1.61,2.2,2.2,0,0,0,.55,1.44,3.31,3.31,0,0,0,1.83,1,3.73,3.73,0,0,0,1.13-1A2.38,2.38,0,0,0,113.12,103.26Z"/><path d="M128.7,105a5.72,5.72,0,0,1,3.65,1.11,3.42,3.42,0,0,1,1.15,2.71,3.91,3.91,0,0,1-.25,1.43,2.7,2.7,0,0,1-.76,1.12,3.39,3.39,0,0,1-1.31.73,5.87,5.87,0,0,1-1.88.27,5.26,5.26,0,0,1-.89-.07c-.3,0-.57-.1-.84-.16s-.49-.13-.69-.19a2.93,2.93,0,0,1-.43-.18l.3-1.33a8,8,0,0,0,.93.35,5,5,0,0,0,1.58.21,4.13,4.13,0,0,0,1.26-.17,2.18,2.18,0,0,0,.81-.46,1.59,1.59,0,0,0,.45-.67,2.07,2.07,0,0,0,.14-.78,2.93,2.93,0,0,0-.21-1.14,1.92,1.92,0,0,0-.75-.83,4.27,4.27,0,0,0-1.46-.52,13.7,13.7,0,0,0-2.34-.17c.08-.55.14-1.07.18-1.55s.08-1,.11-1.41.06-.91.08-1.36,0-.92.06-1.42h5.59v1.31h-4.24c0,.18,0,.41,0,.69s-.05.57-.07.89-.05.61-.08.9S128.71,104.81,128.7,105Z"/><path d="M135.26,108.09a16.41,16.41,0,0,1,.87-1.72c.37-.65.78-1.32,1.25-2s1-1.37,1.48-2a19.2,19.2,0,0,1,1.59-1.81H142v7.37h1.37v1.27H142v3h-1.5v-3h-5.19Zm5.19-5.75q-.51.54-1,1.2c-.34.43-.68.89-1,1.37s-.63,1-.91,1.48-.54,1-.76,1.48h3.69Z"/><path d="M157.3,111a3.06,3.06,0,0,0,2.11-.59,2.08,2.08,0,0,0,.63-1.59,2,2,0,0,0-.26-1.06,2.13,2.13,0,0,0-.7-.7,2.91,2.91,0,0,0-1-.37,5.69,5.69,0,0,0-1.18-.12h-.39V105.3h.54a5.08,5.08,0,0,0,.85-.08,2.48,2.48,0,0,0,.81-.31,1.67,1.67,0,0,0,.59-.59,1.81,1.81,0,0,0,.22-.95,1.51,1.51,0,0,0-.59-1.36,2.35,2.35,0,0,0-1.37-.4,3.47,3.47,0,0,0-1.37.23,6.25,6.25,0,0,0-.94.48l-.6-1.18a5.22,5.22,0,0,1,1.19-.59,4.77,4.77,0,0,1,1.77-.31,4.94,4.94,0,0,1,1.58.22,2.78,2.78,0,0,1,1.07.64,2.58,2.58,0,0,1,.63,1,3.32,3.32,0,0,1,.21,1.2,2.5,2.5,0,0,1-.48,1.56,3.21,3.21,0,0,1-1.23,1,3.18,3.18,0,0,1,1.56,1,2.93,2.93,0,0,1,.65,2,3.78,3.78,0,0,1-.25,1.4,2.85,2.85,0,0,1-.77,1.11,3.33,3.33,0,0,1-1.33.73,6.18,6.18,0,0,1-1.94.27,5.51,5.51,0,0,1-.89-.07,6.72,6.72,0,0,1-.85-.17c-.26-.07-.5-.13-.7-.2l-.44-.16.3-1.33a6.76,6.76,0,0,0,.95.35A5.38,5.38,0,0,0,157.3,111Z"/><path d="M164.11,102.9a11.17,11.17,0,0,0,1.85-1,7.53,7.53,0,0,0,1.67-1.45h1.09v10.29h2.19v1.31h-6.24v-1.31h2.51v-8.13a4.62,4.62,0,0,1-.5.38,6.17,6.17,0,0,1-.63.38q-.35.19-.72.36a6.16,6.16,0,0,1-.74.28Z"/><path d="M189.32,103.46a3.08,3.08,0,0,1-.23,1.16,6.12,6.12,0,0,1-.62,1.11,10.6,10.6,0,0,1-.88,1.07c-.32.35-.65.69-1,1-.19.19-.41.41-.65.67s-.49.54-.72.81a6.23,6.23,0,0,0-.56.81,1.38,1.38,0,0,0-.22.67h5.34v1.31h-7a1.11,1.11,0,0,1,0-.19v-.2a4.07,4.07,0,0,1,.26-1.46,6.29,6.29,0,0,1,.68-1.28,8.26,8.26,0,0,1,.92-1.13l1-1c.27-.28.54-.54.79-.81a7.89,7.89,0,0,0,.68-.78,4.54,4.54,0,0,0,.47-.82,2.42,2.42,0,0,0,0-1.73,1.55,1.55,0,0,0-.44-.59,1.66,1.66,0,0,0-.62-.35,2.43,2.43,0,0,0-.77-.11,2.77,2.77,0,0,0-.89.13,3.4,3.4,0,0,0-.72.32,4.86,4.86,0,0,0-.53.36l-.34.29-.77-1.08a3.92,3.92,0,0,1,.45-.42,4.85,4.85,0,0,1,.73-.46,5.42,5.42,0,0,1,.94-.36,4.11,4.11,0,0,1,1.13-.15,3.8,3.8,0,0,1,2.69.83A3.17,3.17,0,0,1,189.32,103.46Z"/><path d="M192.23,102.9a11.17,11.17,0,0,0,1.85-1,7.53,7.53,0,0,0,1.67-1.45h1.09v10.29H199v1.31h-6.24v-1.31h2.51v-8.13a4.62,4.62,0,0,1-.5.38,5.41,5.41,0,0,1-.64.38q-.34.19-.72.36a6,6,0,0,1-.73.28Z"/><path d="M41.87,130a9.12,9.12,0,0,1,.46-3,6.12,6.12,0,0,1,1.31-2.19,5.7,5.7,0,0,1,2.08-1.34,7.66,7.66,0,0,1,2.75-.49l.13,1.31a7.8,7.8,0,0,0-1.81.22,4.41,4.41,0,0,0-1.45.63,4,4,0,0,0-1.07,1.14,5.39,5.39,0,0,0-.65,1.7,5.37,5.37,0,0,1,1-.33,4.6,4.6,0,0,1,1.13-.14,4.1,4.1,0,0,1,1.66.3,2.88,2.88,0,0,1,1.1.8,3.32,3.32,0,0,1,.6,1.15,5.12,5.12,0,0,1,.19,1.35,4.37,4.37,0,0,1-.21,1.31,3.71,3.71,0,0,1-.64,1.21,3.16,3.16,0,0,1-1.1.9,3.88,3.88,0,0,1-4.5-.94A5.93,5.93,0,0,1,41.87,130Zm3.7-1.2a5.32,5.32,0,0,0-1.1.11,5.62,5.62,0,0,0-1,.34,2.23,2.23,0,0,0,0,.36V130a8.61,8.61,0,0,0,.1,1.38,3.81,3.81,0,0,0,.36,1.14,2,2,0,0,0,.68.79,2,2,0,0,0,1.11.29,1.69,1.69,0,0,0,.93-.24,1.94,1.94,0,0,0,.62-.59,2.17,2.17,0,0,0,.35-.79,3.69,3.69,0,0,0,.1-.84,2.62,2.62,0,0,0-.51-1.74A2,2,0,0,0,45.57,128.75Z"/><path d="M50.91,130.59a16.45,16.45,0,0,1,.87-1.73c.37-.65.78-1.32,1.25-2s.95-1.38,1.48-2A20.54,20.54,0,0,1,56.1,123h1.5v7.37H59v1.28H57.6v3H56.1v-3H50.91Zm5.19-5.76q-.51.54-1,1.2c-.34.44-.68.9-1,1.38s-.63,1-.91,1.47-.54,1-.76,1.48H56.1Z"/><path d="M69.65,130.59c.22-.5.51-1.08.87-1.73s.79-1.32,1.25-2,1-1.38,1.48-2a22.37,22.37,0,0,1,1.6-1.81h1.49v7.37h1.37v1.28H76.34v3H74.85v-3h-5.2Zm5.2-5.76c-.34.36-.68.76-1,1.2s-.67.9-1,1.38-.63,1-.91,1.47-.53,1-.76,1.48h3.7Z"/><path d="M86.22,126a2.93,2.93,0,0,1-.23,1.16,5.79,5.79,0,0,1-.62,1.1,10.72,10.72,0,0,1-.87,1.07c-.33.35-.66.7-1,1l-.65.68c-.25.26-.49.53-.71.8a6.06,6.06,0,0,0-.57.81,1.41,1.41,0,0,0-.22.67h5.34v1.32h-7a1.36,1.36,0,0,1,0-.2v-.2a3.91,3.91,0,0,1,.27-1.46,6.17,6.17,0,0,1,.67-1.27,9.09,9.09,0,0,1,.93-1.14l1-1,.8-.8a9.1,9.1,0,0,0,.67-.79,3.55,3.55,0,0,0,.47-.82,2.19,2.19,0,0,0,.18-.87,2.06,2.06,0,0,0-.16-.86,1.73,1.73,0,0,0-.43-.59,1.77,1.77,0,0,0-.63-.35,2.7,2.7,0,0,0-.77-.11,2.82,2.82,0,0,0-.89.13,3.31,3.31,0,0,0-.71.32,4.2,4.2,0,0,0-.54.37,2.09,2.09,0,0,0-.33.29l-.77-1.09a4,4,0,0,1,.45-.41,3.57,3.57,0,0,1,.72-.46,4.82,4.82,0,0,1,1-.37,4,4,0,0,1,1.12-.15,3.75,3.75,0,0,1,2.69.84A3.14,3.14,0,0,1,86.22,126Z"/><path d="M100.58,127.47a5.87,5.87,0,0,1,3.66,1.11,3.46,3.46,0,0,1,1.14,2.72,4.07,4.07,0,0,1-.24,1.42,2.93,2.93,0,0,1-.76,1.13,3.72,3.72,0,0,1-1.32.73,6.14,6.14,0,0,1-1.88.26,6.54,6.54,0,0,1-.89-.06l-.83-.16c-.27-.07-.5-.13-.7-.2a2.93,2.93,0,0,1-.43-.18l.3-1.33a7.66,7.66,0,0,0,.93.36,5.43,5.43,0,0,0,1.58.2,3.84,3.84,0,0,0,1.26-.17,2.09,2.09,0,0,0,.82-.46,1.85,1.85,0,0,0,.45-.66,2.3,2.3,0,0,0,.14-.79,2.88,2.88,0,0,0-.22-1.13,1.87,1.87,0,0,0-.75-.84,4.41,4.41,0,0,0-1.46-.51,12.64,12.64,0,0,0-2.34-.18c.08-.55.14-1.06.18-1.55s.08-1,.11-1.4.06-.91.08-1.36,0-.93.07-1.43h5.58v1.32h-4.24c0,.17,0,.4,0,.68s0,.58-.07.89,0,.61-.07.9S100.59,127.3,100.58,127.47Z"/><path d="M107.48,130a8.86,8.86,0,0,1,.46-3,6,6,0,0,1,1.31-2.19,5.74,5.74,0,0,1,2.07-1.34,7.67,7.67,0,0,1,2.76-.49l.13,1.31a7.73,7.73,0,0,0-1.81.22,4.32,4.32,0,0,0-1.45.63,3.89,3.89,0,0,0-1.07,1.14,5.39,5.39,0,0,0-.66,1.7,5.47,5.47,0,0,1,1-.33,4.54,4.54,0,0,1,1.13-.14,4.14,4.14,0,0,1,1.66.3,3,3,0,0,1,1.1.8,3.32,3.32,0,0,1,.6,1.15,5.11,5.11,0,0,1,.18,1.35,4.69,4.69,0,0,1-.2,1.31,3.71,3.71,0,0,1-.64,1.21,3.29,3.29,0,0,1-1.11.9,3.87,3.87,0,0,1-4.49-.94A5.93,5.93,0,0,1,107.48,130Zm3.69-1.2a5.22,5.22,0,0,0-1.09.11,5.72,5.72,0,0,0-1,.34c0,.12,0,.25,0,.36V130a8.58,8.58,0,0,0,.11,1.38,3.81,3.81,0,0,0,.35,1.14,2.12,2.12,0,0,0,.69.79,1.93,1.93,0,0,0,1.1.29,1.7,1.7,0,0,0,.94-.24,1.94,1.94,0,0,0,.62-.59,2.35,2.35,0,0,0,.35-.79,4.35,4.35,0,0,0,.1-.84,2.57,2.57,0,0,0-.52-1.74A2,2,0,0,0,111.17,128.75Z"/><path d="M129.19,133.47a3,3,0,0,0,2.1-.59,2.06,2.06,0,0,0,.63-1.58,1.92,1.92,0,0,0-.95-1.76,3.06,3.06,0,0,0-1-.38,6.39,6.39,0,0,0-1.18-.11h-.39v-1.26h.54a4.14,4.14,0,0,0,.85-.08,2.61,2.61,0,0,0,.81-.3,1.67,1.67,0,0,0,.59-.59,1.84,1.84,0,0,0,.23-1,1.55,1.55,0,0,0-.59-1.36,2.4,2.4,0,0,0-1.38-.4,3.7,3.7,0,0,0-1.37.23,6.25,6.25,0,0,0-.94.48l-.6-1.18a5.93,5.93,0,0,1,1.19-.59,4.77,4.77,0,0,1,1.77-.31,4.88,4.88,0,0,1,1.58.23,2.86,2.86,0,0,1,1.08.63,2.71,2.71,0,0,1,.63,1,3.61,3.61,0,0,1,.2,1.21,2.49,2.49,0,0,1-.48,1.55,3.16,3.16,0,0,1-1.22,1,3.27,3.27,0,0,1,1.55,1,3,3,0,0,1,.66,2,3.74,3.74,0,0,1-.26,1.39,2.86,2.86,0,0,1-.76,1.12,3.76,3.76,0,0,1-1.33.73,6.62,6.62,0,0,1-2,.26,7,7,0,0,1-.89-.06l-.85-.17-.7-.21-.44-.16.3-1.33a7.59,7.59,0,0,0,.95.36A5.77,5.77,0,0,0,129.19,133.47Z"/><path d="M136,125.39a10.82,10.82,0,0,0,1.86-.94,7.54,7.54,0,0,0,1.66-1.46h1.09v10.29h2.19v1.32h-6.24v-1.32h2.51v-8.13a3.48,3.48,0,0,1-.49.38c-.2.14-.41.26-.64.39s-.47.24-.72.35a6.15,6.15,0,0,1-.73.29Z"/><path d="M161.71,127.64a7.21,7.21,0,0,1-1.69,5.22,6.82,6.82,0,0,1-5.08,1.78l-.05-1.32a6.2,6.2,0,0,0,3.38-.83,4.25,4.25,0,0,0,1.69-2.88,4.6,4.6,0,0,1-1,.33,5.24,5.24,0,0,1-1.14.12,4.13,4.13,0,0,1-1.67-.29,2.87,2.87,0,0,1-1.09-.79,3.32,3.32,0,0,1-.6-1.13,5,5,0,0,1-.18-1.35,4.24,4.24,0,0,1,.2-1.3,3.61,3.61,0,0,1,.64-1.21,3.5,3.5,0,0,1,1.1-.9,3.82,3.82,0,0,1,4.5,1A5.94,5.94,0,0,1,161.71,127.64ZM158,128.79a4.84,4.84,0,0,0,1.11-.12,5.9,5.9,0,0,0,1-.31c0-.13,0-.25,0-.36v-.36a8.7,8.7,0,0,0-.1-1.38,3.79,3.79,0,0,0-.36-1.15,2.08,2.08,0,0,0-.69-.78,2,2,0,0,0-1.11-.29,1.7,1.7,0,0,0-.94.24,2,2,0,0,0-.62.58,2.3,2.3,0,0,0-.35.78,3.4,3.4,0,0,0-.1.82,2.57,2.57,0,0,0,.52,1.74A2,2,0,0,0,158,128.79Z"/><path d="M170.57,126a2.93,2.93,0,0,1-.23,1.16,5.79,5.79,0,0,1-.62,1.1,10.72,10.72,0,0,1-.87,1.07c-.33.35-.66.7-1,1l-.66.68c-.25.26-.49.53-.71.8a5.94,5.94,0,0,0-.56.81,1.44,1.44,0,0,0-.23.67H171v1.32h-7a1.36,1.36,0,0,1,0-.2v-.2a3.91,3.91,0,0,1,.27-1.46,6.17,6.17,0,0,1,.67-1.27,10.07,10.07,0,0,1,.93-1.14l1-1c.28-.27.54-.54.8-.8a9.1,9.1,0,0,0,.67-.79,3.55,3.55,0,0,0,.47-.82A2.19,2.19,0,0,0,169,126a2.06,2.06,0,0,0-.16-.86,1.73,1.73,0,0,0-.43-.59,1.77,1.77,0,0,0-.63-.35,2.7,2.7,0,0,0-.77-.11,2.82,2.82,0,0,0-.89.13,3.31,3.31,0,0,0-.71.32,4,4,0,0,0-.53.37,2.25,2.25,0,0,0-.34.29l-.77-1.09a4,4,0,0,1,.45-.41,3.57,3.57,0,0,1,.72-.46,4.82,4.82,0,0,1,.95-.37,4,4,0,0,1,1.12-.15,3.75,3.75,0,0,1,2.69.84A3.14,3.14,0,0,1,170.57,126Z"/><path d="M189.32,126a3.11,3.11,0,0,1-.23,1.16,6.39,6.39,0,0,1-.62,1.1,9.59,9.59,0,0,1-.88,1.07c-.32.35-.65.7-1,1L186,131c-.25.26-.49.53-.72.8a7,7,0,0,0-.56.81,1.41,1.41,0,0,0-.22.67h5.34v1.32h-7a1.36,1.36,0,0,1,0-.2v-.2a4.11,4.11,0,0,1,.26-1.46,6.21,6.21,0,0,1,.68-1.27,9,9,0,0,1,.92-1.14l1-1,.79-.8a9.29,9.29,0,0,0,.68-.79,4,4,0,0,0,.47-.82,2.18,2.18,0,0,0,.17-.87,2.24,2.24,0,0,0-.15-.86,1.63,1.63,0,0,0-.44-.59,1.81,1.81,0,0,0-.62-.35,2.93,2.93,0,0,0-1.66,0,3.4,3.4,0,0,0-.72.32,4.86,4.86,0,0,0-.53.37,2.91,2.91,0,0,0-.34.29l-.77-1.09a4,4,0,0,1,.45-.41,3.65,3.65,0,0,1,.73-.46,4.72,4.72,0,0,1,.94-.37,4.11,4.11,0,0,1,1.13-.15,3.75,3.75,0,0,1,2.69.84A3.14,3.14,0,0,1,189.32,126Z"/><path d="M199.23,131.58a3.13,3.13,0,0,1-.92,2.36,3.91,3.91,0,0,1-2.82.9,4.84,4.84,0,0,1-1.8-.29,3,3,0,0,1-1.14-.75,2.8,2.8,0,0,1-.6-1,3.63,3.63,0,0,1-.18-1.11,3,3,0,0,1,.55-1.76,4.6,4.6,0,0,1,1.29-1.24,3,3,0,0,1-1.59-2.75,3.16,3.16,0,0,1,.24-1.22,3,3,0,0,1,.7-1,3.46,3.46,0,0,1,1.09-.7,3.94,3.94,0,0,1,1.45-.26,4.3,4.3,0,0,1,1.61.28,3.29,3.29,0,0,1,1.08.72,2.76,2.76,0,0,1,.59,1,3,3,0,0,1,.19,1,3,3,0,0,1-.5,1.71,4.29,4.29,0,0,1-1.17,1.16A3.07,3.07,0,0,1,199.23,131.58Zm-6,.11a1.84,1.84,0,0,0,.12.63,1.7,1.7,0,0,0,.37.61,2,2,0,0,0,.7.46,2.66,2.66,0,0,0,1,.18,3,3,0,0,0,1-.16,2,2,0,0,0,.69-.43,1.79,1.79,0,0,0,.4-.61,1.84,1.84,0,0,0,.14-.68,1.93,1.93,0,0,0-.77-1.64,5.64,5.64,0,0,0-2.12-.87,3.16,3.16,0,0,0-1.16,1A2.58,2.58,0,0,0,193.27,131.69Zm4.2-5.94a1.49,1.49,0,0,0-.11-.55,1.55,1.55,0,0,0-.35-.57,2.33,2.33,0,0,0-2.41-.44,2,2,0,0,0-.61.43,1.33,1.33,0,0,0-.35.56,1.86,1.86,0,0,0-.1.61,2.18,2.18,0,0,0,.55,1.43,3.25,3.25,0,0,0,1.83,1,3.76,3.76,0,0,0,1.13-1A2.36,2.36,0,0,0,197.47,125.75Z"/><path d="M42.27,147.89a11.17,11.17,0,0,0,1.85-.95,7.53,7.53,0,0,0,1.67-1.45h1.09v10.29h2.19v1.31H42.83v-1.31h2.51v-8.14a3.63,3.63,0,0,1-.5.39,6.17,6.17,0,0,1-.63.38c-.24.13-.48.25-.73.36a7.28,7.28,0,0,1-.73.28Z"/><path d="M51.1,151.28a8.32,8.32,0,0,1,1-4.49,3.34,3.34,0,0,1,5.65,0,10.68,10.68,0,0,1,0,9,3.34,3.34,0,0,1-5.65,0A8.32,8.32,0,0,1,51.1,151.28Zm6.07,0a14.79,14.79,0,0,0-.11-1.81,6,6,0,0,0-.38-1.49,2.7,2.7,0,0,0-.69-1,1.59,1.59,0,0,0-1.07-.38,1.57,1.57,0,0,0-1.07.38,2.59,2.59,0,0,0-.69,1,6,6,0,0,0-.38,1.49,14.95,14.95,0,0,0,0,3.62,5.89,5.89,0,0,0,.38,1.49,2.59,2.59,0,0,0,.69,1,1.57,1.57,0,0,0,1.07.38,1.59,1.59,0,0,0,1.07-.38,2.7,2.7,0,0,0,.69-1,5.89,5.89,0,0,0,.38-1.49A14.79,14.79,0,0,0,57.17,151.28ZM56,151.07a1.33,1.33,0,0,1-.29.85.93.93,0,0,1-.76.35,1,1,0,0,1-.79-.35,1.28,1.28,0,0,1-.3-.85,1.34,1.34,0,0,1,.3-.86,1,1,0,0,1,.79-.37.92.92,0,0,1,.76.37A1.39,1.39,0,0,1,56,151.07Z"/><path d="M70,152.44a8.9,8.9,0,0,1,.46-3,5.94,5.94,0,0,1,1.31-2.18,5.64,5.64,0,0,1,2.07-1.35,7.89,7.89,0,0,1,2.76-.49l.13,1.31a9,9,0,0,0-1.81.22,4.14,4.14,0,0,0-1.45.64,3.73,3.73,0,0,0-1.07,1.13,5.36,5.36,0,0,0-.66,1.71,5.48,5.48,0,0,1,1-.34,4.55,4.55,0,0,1,1.13-.13,4.14,4.14,0,0,1,1.66.3,2.94,2.94,0,0,1,1.1.79,3.37,3.37,0,0,1,.6,1.16,5.11,5.11,0,0,1,.18,1.35,4.28,4.28,0,0,1-.2,1.3,3.86,3.86,0,0,1-.64,1.22,3.25,3.25,0,0,1-1.1.9,3.55,3.55,0,0,1-1.62.34A3.35,3.35,0,0,1,71,156,5.93,5.93,0,0,1,70,152.44Zm3.69-1.2a4.61,4.61,0,0,0-1.09.12,5,5,0,0,0-1,.33c0,.13,0,.25,0,.37v.38a8.58,8.58,0,0,0,.11,1.38A4.12,4.12,0,0,0,72,155a2,2,0,0,0,.69.79,2,2,0,0,0,1.1.29,1.79,1.79,0,0,0,.94-.23,2.19,2.19,0,0,0,.62-.59,2.5,2.5,0,0,0,.35-.8,3.54,3.54,0,0,0,.1-.83,2.58,2.58,0,0,0-.52-1.75A2,2,0,0,0,73.68,151.24Z"/><path d="M82.32,156a3.06,3.06,0,0,0,2.11-.59,2.33,2.33,0,0,0,.37-2.66,2.2,2.2,0,0,0-.7-.69,2.91,2.91,0,0,0-1-.37,5.62,5.62,0,0,0-1.18-.12h-.39v-1.25h.54a4.24,4.24,0,0,0,.85-.09,2.19,2.19,0,0,0,.81-.3,1.67,1.67,0,0,0,.59-.59,1.83,1.83,0,0,0,.22-.95A1.51,1.51,0,0,0,84,147a2.36,2.36,0,0,0-1.37-.41,3.47,3.47,0,0,0-1.37.24,4.81,4.81,0,0,0-.94.48l-.6-1.18a5.22,5.22,0,0,1,1.19-.59,4.77,4.77,0,0,1,1.77-.31,4.94,4.94,0,0,1,1.58.22,2.9,2.9,0,0,1,1.08.64,2.52,2.52,0,0,1,.62,1,3.42,3.42,0,0,1,.21,1.21,2.52,2.52,0,0,1-.48,1.56,3.1,3.1,0,0,1-1.23,1,3.27,3.27,0,0,1,1.56,1,2.93,2.93,0,0,1,.66,2,3.79,3.79,0,0,1-.26,1.4,2.85,2.85,0,0,1-.77,1.11,3.46,3.46,0,0,1-1.33.73,6.2,6.2,0,0,1-1.94.26,7,7,0,0,1-.89-.06,6.72,6.72,0,0,1-.85-.17c-.26-.07-.5-.14-.7-.21s-.36-.12-.44-.15l.3-1.34a7,7,0,0,0,.95.36A5.38,5.38,0,0,0,82.32,156Z"/><path d="M98,151.28a8.32,8.32,0,0,1,1-4.49,3.34,3.34,0,0,1,5.65,0,10.68,10.68,0,0,1,0,9,3.34,3.34,0,0,1-5.65,0A8.32,8.32,0,0,1,98,151.28Zm6.07,0a14.79,14.79,0,0,0-.11-1.81,6,6,0,0,0-.38-1.49,2.59,2.59,0,0,0-.69-1,1.57,1.57,0,0,0-1.07-.38,1.59,1.59,0,0,0-1.07.38,2.7,2.7,0,0,0-.69,1,6,6,0,0,0-.38,1.49,14.95,14.95,0,0,0,0,3.62,5.89,5.89,0,0,0,.38,1.49,2.7,2.7,0,0,0,.69,1,1.59,1.59,0,0,0,1.07.38,1.57,1.57,0,0,0,1.07-.38,2.59,2.59,0,0,0,.69-1,5.89,5.89,0,0,0,.38-1.49A14.79,14.79,0,0,0,104,151.28Zm-1.16-.21a1.33,1.33,0,0,1-.29.85.93.93,0,0,1-.76.35,1,1,0,0,1-.79-.35,1.28,1.28,0,0,1-.3-.85,1.34,1.34,0,0,1,.3-.86,1,1,0,0,1,.79-.37.92.92,0,0,1,.76.37A1.39,1.39,0,0,1,102.87,151.07Z"/><path d="M110.44,156a3.06,3.06,0,0,0,2.11-.59,2.33,2.33,0,0,0,.37-2.66,2.2,2.2,0,0,0-.7-.69,3.08,3.08,0,0,0-1-.37,5.69,5.69,0,0,0-1.18-.12h-.4v-1.25h.55a4.24,4.24,0,0,0,.85-.09,2.33,2.33,0,0,0,.81-.3,1.67,1.67,0,0,0,.59-.59,1.83,1.83,0,0,0,.22-.95,1.53,1.53,0,0,0-.59-1.36,2.37,2.37,0,0,0-1.38-.41,3.53,3.53,0,0,0-1.37.24,5,5,0,0,0-.93.48l-.6-1.18a5.22,5.22,0,0,1,1.19-.59,4.77,4.77,0,0,1,1.77-.31,4.83,4.83,0,0,1,1.57.22,2.75,2.75,0,0,1,1.08.64,2.67,2.67,0,0,1,.63,1,3.42,3.42,0,0,1,.21,1.21,2.52,2.52,0,0,1-.48,1.56,3.1,3.1,0,0,1-1.23,1,3.27,3.27,0,0,1,1.56,1,3,3,0,0,1,.65,2,3.78,3.78,0,0,1-.25,1.4,3,3,0,0,1-.77,1.11,3.54,3.54,0,0,1-1.33.73,6.2,6.2,0,0,1-1.94.26,6.88,6.88,0,0,1-.89-.06,6.38,6.38,0,0,1-.85-.17l-.71-.21-.44-.15.3-1.34a7.27,7.27,0,0,0,1,.36A5.33,5.33,0,0,0,110.44,156Z"/><path d="M126.22,152.44a9.16,9.16,0,0,1,.46-3,6,6,0,0,1,1.32-2.18,5.47,5.47,0,0,1,2.07-1.35,7.88,7.88,0,0,1,2.75-.49l.13,1.31a8.86,8.86,0,0,0-1.8.22,4.19,4.19,0,0,0-1.46.64,3.86,3.86,0,0,0-1.07,1.13,5.6,5.6,0,0,0-.65,1.71,5.65,5.65,0,0,1,1-.34,4.69,4.69,0,0,1,1.14-.13,4.09,4.09,0,0,1,1.65.3,2.86,2.86,0,0,1,1.1.79,3.06,3.06,0,0,1,.6,1.16,4.74,4.74,0,0,1,.19,1.35,4.3,4.3,0,0,1-.21,1.3,4,4,0,0,1-.63,1.22,3.29,3.29,0,0,1-1.11.9,3.51,3.51,0,0,1-1.61.34,3.37,3.37,0,0,1-2.89-1.29A5.93,5.93,0,0,1,126.22,152.44Zm3.7-1.2a4.69,4.69,0,0,0-1.1.12,4.88,4.88,0,0,0-1,.33,2.36,2.36,0,0,0,0,.37v.38a8.61,8.61,0,0,0,.1,1.38,3.81,3.81,0,0,0,.36,1.14,2,2,0,0,0,.68.79,2,2,0,0,0,1.11.29,1.84,1.84,0,0,0,.94-.23,2.15,2.15,0,0,0,.61-.59,2.3,2.3,0,0,0,.35-.8,3.54,3.54,0,0,0,.1-.83,2.63,2.63,0,0,0-.51-1.75A2,2,0,0,0,129.92,151.24Z"/><path d="M138.56,156a3.06,3.06,0,0,0,2.11-.59,2.09,2.09,0,0,0,.63-1.59,2,2,0,0,0-.27-1.07,2.07,2.07,0,0,0-.69-.69,3.08,3.08,0,0,0-1-.37,5.72,5.72,0,0,0-1.19-.12h-.39v-1.25h.54a4.34,4.34,0,0,0,.86-.09,2.21,2.21,0,0,0,.8-.3,1.59,1.59,0,0,0,.59-.59,1.83,1.83,0,0,0,.23-.95,1.53,1.53,0,0,0-.59-1.36,2.39,2.39,0,0,0-1.38-.41,3.5,3.5,0,0,0-1.37.24,4.7,4.7,0,0,0-.93.48l-.6-1.18a5,5,0,0,1,1.19-.59,4.77,4.77,0,0,1,1.77-.31,4.88,4.88,0,0,1,1.57.22,2.75,2.75,0,0,1,1.08.64,2.67,2.67,0,0,1,.63,1,3.66,3.66,0,0,1,.2,1.21,2.58,2.58,0,0,1-.47,1.56,3.1,3.1,0,0,1-1.23,1,3.2,3.2,0,0,1,1.55,1,2.93,2.93,0,0,1,.66,2,3.78,3.78,0,0,1-.25,1.4,3,3,0,0,1-.77,1.11,3.61,3.61,0,0,1-1.33.73,6.24,6.24,0,0,1-1.94.26,6.77,6.77,0,0,1-.89-.06,6.89,6.89,0,0,1-.86-.17l-.7-.21-.44-.15.3-1.34a7.27,7.27,0,0,0,1,.36A5.28,5.28,0,0,0,138.56,156Z"/><path d="M161.2,148.45a3.08,3.08,0,0,1-.23,1.16,5.57,5.57,0,0,1-.62,1.11,12,12,0,0,1-.87,1.07c-.33.35-.66.69-1,1l-.65.67c-.25.26-.49.53-.71.81a5.42,5.42,0,0,0-.57.8,1.44,1.44,0,0,0-.22.68h5.34v1.31h-7a1.23,1.23,0,0,1,0-.2v-.19a3.87,3.87,0,0,1,.27-1.46,5.79,5.79,0,0,1,.67-1.28,7.65,7.65,0,0,1,.93-1.13c.34-.36.68-.71,1-1l.8-.81a6.85,6.85,0,0,0,.67-.79,4.15,4.15,0,0,0,.47-.81,2.19,2.19,0,0,0,.18-.87,2.25,2.25,0,0,0-.16-.87,1.83,1.83,0,0,0-.43-.59,1.75,1.75,0,0,0-.63-.34,2.39,2.39,0,0,0-.77-.12,2.81,2.81,0,0,0-.89.14,3.1,3.1,0,0,0-.71.31,5.55,5.55,0,0,0-.54.37,4.11,4.11,0,0,0-.33.29l-.77-1.09a4,4,0,0,1,.45-.41,4.72,4.72,0,0,1,.72-.46,5.53,5.53,0,0,1,1-.36,4,4,0,0,1,1.12-.15,3.75,3.75,0,0,1,2.69.83A3.16,3.16,0,0,1,161.2,148.45Z"/><path d="M170.57,148.45a2.89,2.89,0,0,1-.23,1.16,5.57,5.57,0,0,1-.62,1.11,12,12,0,0,1-.87,1.07l-1,1-.66.67c-.25.26-.49.53-.71.81a5.32,5.32,0,0,0-.56.8,1.47,1.47,0,0,0-.23.68H171v1.31h-7a1.23,1.23,0,0,1,0-.2v-.19a3.87,3.87,0,0,1,.27-1.46,6.25,6.25,0,0,1,.67-1.28,9.16,9.16,0,0,1,.93-1.13c.34-.36.68-.71,1-1l.8-.81a6.85,6.85,0,0,0,.67-.79,3.7,3.7,0,0,0,.47-.81,2.19,2.19,0,0,0,.18-.87,2.08,2.08,0,0,0-.16-.87,1.83,1.83,0,0,0-.43-.59,1.75,1.75,0,0,0-.63-.34,2.39,2.39,0,0,0-.77-.12,2.81,2.81,0,0,0-.89.14,3.3,3.3,0,0,0-.71.31,5.31,5.31,0,0,0-.53.37c-.15.12-.27.22-.34.29l-.77-1.09a4,4,0,0,1,.45-.41,4.72,4.72,0,0,1,.72-.46,5.53,5.53,0,0,1,.95-.36,4,4,0,0,1,1.12-.15,3.75,3.75,0,0,1,2.69.83A3.16,3.16,0,0,1,170.57,148.45Z"/><path d="M185.42,156a3.06,3.06,0,0,0,2.11-.59,2.09,2.09,0,0,0,.63-1.59,2,2,0,0,0-.27-1.07,2.07,2.07,0,0,0-.69-.69,3.08,3.08,0,0,0-1-.37,5.69,5.69,0,0,0-1.18-.12h-.4v-1.25h.55a4.24,4.24,0,0,0,.85-.09,2.33,2.33,0,0,0,.81-.3,1.67,1.67,0,0,0,.59-.59,1.83,1.83,0,0,0,.22-.95,1.53,1.53,0,0,0-.59-1.36,2.37,2.37,0,0,0-1.38-.41,3.53,3.53,0,0,0-1.37.24,5,5,0,0,0-.93.48l-.6-1.18a5.22,5.22,0,0,1,1.19-.59,4.77,4.77,0,0,1,1.77-.31,4.83,4.83,0,0,1,1.57.22,2.75,2.75,0,0,1,1.08.64,2.67,2.67,0,0,1,.63,1,3.42,3.42,0,0,1,.21,1.21,2.52,2.52,0,0,1-.48,1.56,3.1,3.1,0,0,1-1.23,1,3.27,3.27,0,0,1,1.56,1,3,3,0,0,1,.65,2,3.78,3.78,0,0,1-.25,1.4,3,3,0,0,1-.77,1.11,3.54,3.54,0,0,1-1.33.73,6.2,6.2,0,0,1-1.94.26,6.77,6.77,0,0,1-.89-.06,6.38,6.38,0,0,1-.85-.17l-.71-.21-.44-.15.3-1.34a7.27,7.27,0,0,0,1,.36A5.33,5.33,0,0,0,185.42,156Z"/><path d="M191.49,153.08c.22-.5.51-1.07.87-1.72s.79-1.33,1.25-2,1-1.37,1.48-2a20.79,20.79,0,0,1,1.6-1.81h1.5v7.37h1.36v1.27h-1.36v3h-1.5v-3h-5.2Zm5.2-5.75c-.34.36-.68.76-1,1.2s-.67.89-1,1.37-.63,1-.91,1.47-.53,1-.76,1.49h3.7Z"/><path d="M316.84,72.21a1.35,1.35,0,0,0,.49,1.19,2.24,2.24,0,0,0,1.33.34,7,7,0,0,0,.8,0,5.31,5.31,0,0,0,.7-.12V69.35h2.13v9.23h-2.13v-3.3l-.83.13a6.36,6.36,0,0,1-2.43-.08,2.87,2.87,0,0,1-1.17-.54,2.41,2.41,0,0,1-.76-1,4,4,0,0,1-.26-1.56V69.35h2.13Z"/><path d="M332,71.13h-3v7.45h-2.14V71.13h-3V69.35H332Z"/><path d="M341.89,74a6,6,0,0,1-.31,2,4.62,4.62,0,0,1-.9,1.53,3.92,3.92,0,0,1-1.41,1,4.43,4.43,0,0,1-1.81.36,4.37,4.37,0,0,1-1.79-.36,3.88,3.88,0,0,1-1.4-1,4.48,4.48,0,0,1-.91-1.53,6.35,6.35,0,0,1,0-4,4.55,4.55,0,0,1,.92-1.52,3.94,3.94,0,0,1,1.4-1,4.73,4.73,0,0,1,3.57,0,3.89,3.89,0,0,1,1.41,1,4.53,4.53,0,0,1,.91,1.52A6,6,0,0,1,341.89,74Zm-2.18,0a3.55,3.55,0,0,0-.6-2.18,1.92,1.92,0,0,0-1.65-.81,1.94,1.94,0,0,0-1.65.81,3.62,3.62,0,0,0-.59,2.18,3.7,3.7,0,0,0,.59,2.2,1.94,1.94,0,0,0,1.65.81,1.92,1.92,0,0,0,1.65-.81A3.63,3.63,0,0,0,339.71,74Z"/><path d="M351.88,78.75l-1,0c-.36,0-.69,0-1-.09l-.91-.11a6.14,6.14,0,0,1-.7-.14V69.47c.19,0,.42-.09.7-.13l.91-.1c.33,0,.66-.06,1-.07l1,0a5.35,5.35,0,0,1,2.91.68,2.14,2.14,0,0,1,1,1.9,2,2,0,0,1-.32,1.12,2,2,0,0,1-.83.74,2.84,2.84,0,0,1,1.1.78,2.24,2.24,0,0,1,.46,1.5,2.44,2.44,0,0,1-1.1,2.14A5.8,5.8,0,0,1,351.88,78.75Zm.05-5.69a3.36,3.36,0,0,0,1.32-.23.92.92,0,0,0,.52-.92.88.88,0,0,0-.17-.55,1.1,1.1,0,0,0-.45-.33,2.47,2.47,0,0,0-.65-.17,6.57,6.57,0,0,0-.78,0H351a4.68,4.68,0,0,0-.66.06v2.17ZM350.33,77l.69.06.91,0a4,4,0,0,0,1.58-.27,1,1,0,0,0,.63-1,1,1,0,0,0-.58-1,3.51,3.51,0,0,0-1.49-.27h-1.74Z"/><path d="M366.33,69.35v9.23h-2.12c0-.67,0-1.34,0-2s0-1.27,0-1.83,0-1.06,0-1.47,0-.73,0-.93c-.35.46-.72,1-1.09,1.52s-.75,1.1-1.12,1.66-.72,1.09-1.05,1.62-.62,1-.87,1.43h-1.88V69.35h2.1c0,.68,0,1.33,0,2s0,1.18,0,1.69,0,.94,0,1.32,0,.66,0,.86l1-1.56c.36-.53.71-1.06,1.07-1.57s.72-1,1.07-1.45.69-.87,1-1.24Z"/><path d="M367.92,76.83H369a5.79,5.79,0,0,0,.86-1.61,10.41,10.41,0,0,0,.45-1.87c.09-.66.15-1.32.18-2s0-1.34.05-2h6.61v7.48h1.42v4.36h-1.91V78.58H369.8v2.61h-1.88Zm7.07,0V71.12h-2.51c0,.48-.05,1-.08,1.47a12.24,12.24,0,0,1-.2,1.48,9.7,9.7,0,0,1-.38,1.43,6.69,6.69,0,0,1-.62,1.33Z"/><path d="M388.29,69.35v9.23h-2.12c0-.67,0-1.34,0-2s0-1.27,0-1.83,0-1.06,0-1.47,0-.73,0-.93c-.36.46-.72,1-1.1,1.52s-.75,1.1-1.12,1.66-.72,1.09-1.05,1.62-.61,1-.86,1.43h-1.89V69.35h2.1c0,.68,0,1.33,0,2s0,1.18,0,1.69,0,.94,0,1.32v.86c.32-.5.67-1,1-1.56s.71-1.06,1.07-1.57.71-1,1.06-1.45.7-.87,1-1.24Z"/><path d="M398,71.13h-3v7.45h-2.14V71.13h-3V69.35H398Z"/><path d="M405.79,73.06l.88-.91.95-1c.31-.34.61-.66.89-1s.52-.57.7-.8h2.51c-.26.31-.56.64-.89,1l-1,1.12-1.06,1.11-.94,1a15.51,15.51,0,0,1,1.13,1.07q.6.6,1.17,1.29c.38.45.74.91,1.07,1.37s.6.9.82,1.3h-2.47a12.72,12.72,0,0,0-.78-1.11c-.3-.39-.62-.77-.94-1.14s-.67-.72-1-1a10.26,10.26,0,0,0-1-.85v4.15h-2.13V69.35h2.13Z"/><path d="M421.42,74a6,6,0,0,1-.31,2,4.62,4.62,0,0,1-.9,1.53,3.92,3.92,0,0,1-1.41,1,4.68,4.68,0,0,1-3.6,0,3.88,3.88,0,0,1-1.4-1,4.48,4.48,0,0,1-.91-1.53,6.35,6.35,0,0,1,0-4,4.55,4.55,0,0,1,.92-1.52,3.94,3.94,0,0,1,1.4-1,4.54,4.54,0,0,1,1.79-.35,4.61,4.61,0,0,1,1.79.35,3.94,3.94,0,0,1,1.4,1A4.53,4.53,0,0,1,421.1,72,6,6,0,0,1,421.42,74Zm-2.18,0a3.55,3.55,0,0,0-.6-2.18A1.91,1.91,0,0,0,417,71a2,2,0,0,0-1.66.81,3.62,3.62,0,0,0-.59,2.18,3.7,3.7,0,0,0,.59,2.2A2,2,0,0,0,417,77a1.91,1.91,0,0,0,1.64-.81A3.63,3.63,0,0,0,419.24,74Z"/><path d="M425.78,72.53c0,.49-.07,1-.11,1.54s-.06,1.07-.08,1.6,0,1-.07,1.53,0,1-.06,1.38H423.4c0-.68.06-1.42.1-2.22s.11-1.6.17-2.41.13-1.62.21-2.41.14-1.52.22-2.19H426a25,25,0,0,1,1.36,2.53c.46,1,1,2.08,1.54,3.31.59-1.26,1.12-2.4,1.6-3.41a25.23,25.23,0,0,1,1.28-2.43h1.87q.13,1,.24,2.19c.08.79.15,1.59.2,2.41s.12,1.62.16,2.41.08,1.54.11,2.22H432.2c0-1-.06-2-.11-3s-.12-2-.19-3.06l-.57,1.18c-.2.43-.41.87-.61,1.32s-.39.88-.58,1.3-.35.78-.49,1.1h-1.58l-.51-1.11L427,75c-.2-.44-.41-.88-.61-1.31S426,72.88,425.78,72.53Z"/><path d="M444.48,69.35v9.23h-2.13V71.13h-3.41v7.45h-2.13V69.35Z"/><path d="M449.33,72.76a5.64,5.64,0,0,1,.78-.13c.34,0,.68,0,1,0a5.91,5.91,0,0,1,1.49.18,3.28,3.28,0,0,1,1.21.55,2.83,2.83,0,0,1,.81,1,3.07,3.07,0,0,1,.3,1.4,3.21,3.21,0,0,1-.28,1.42,2.56,2.56,0,0,1-.81,1,3.62,3.62,0,0,1-1.26.55,7.48,7.48,0,0,1-1.63.17,16.93,16.93,0,0,1-1.95-.1,17.22,17.22,0,0,1-1.81-.32v-9h2.13Zm1.57,4.34a2.43,2.43,0,0,0,1.4-.35,1.22,1.22,0,0,0,.51-1.1,1.18,1.18,0,0,0-.17-.65,1.42,1.42,0,0,0-.44-.44,1.79,1.79,0,0,0-.65-.23,3.8,3.8,0,0,0-.77-.07c-.25,0-.51,0-.78,0a3.54,3.54,0,0,0-.67.1V77l.68.06Z"/><path d="M465.23,78.83a4.22,4.22,0,0,1-2.88-1.12,4.56,4.56,0,0,1-.92-1.3,5.08,5.08,0,0,1-.47-1.7H459v3.87h-2.14V69.35H459V73h2a4.85,4.85,0,0,1,.51-1.6,4.38,4.38,0,0,1,.93-1.22,4.2,4.2,0,0,1,2.8-1,4.25,4.25,0,0,1,1.71.35,4,4,0,0,1,1.38,1,4.51,4.51,0,0,1,.9,1.52,5.73,5.73,0,0,1,.33,2,5.8,5.8,0,0,1-.33,2,4.46,4.46,0,0,1-.9,1.53,4,4,0,0,1-1.38,1A4.25,4.25,0,0,1,465.23,78.83Zm0-7.86a1.81,1.81,0,0,0-1.56.81,3.62,3.62,0,0,0-.58,2.18,3.69,3.69,0,0,0,.58,2.19,1.89,1.89,0,0,0,3.12,0,3.76,3.76,0,0,0,.57-2.19,3.69,3.69,0,0,0-.57-2.18A1.81,1.81,0,0,0,465.23,71Z"/><path d="M478.71,71.13h-3v7.45h-2.13V71.13h-3V69.35h8.08Z"/><path d="M479.78,74a5.89,5.89,0,0,1,.36-2.14,4.41,4.41,0,0,1,1-1.52,3.85,3.85,0,0,1,1.37-.92,4.21,4.21,0,0,1,1.59-.31,3.82,3.82,0,0,1,3,1.18,5.14,5.14,0,0,1,1.07,3.53c0,.12,0,.25,0,.4s0,.28,0,.4H482a2.46,2.46,0,0,0,.78,1.72,3,3,0,0,0,2,.61,6.25,6.25,0,0,0,1.42-.15,5.32,5.32,0,0,0,1-.3l.28,1.75a3.91,3.91,0,0,1-.49.19c-.2.06-.44.12-.7.17s-.55.1-.86.13a7,7,0,0,1-.93.06,5.7,5.7,0,0,1-2.12-.36,3.94,3.94,0,0,1-1.48-1,4.17,4.17,0,0,1-.87-1.52A6.43,6.43,0,0,1,479.78,74Zm6.19-1a2.84,2.84,0,0,0-.12-.84,1.89,1.89,0,0,0-.36-.69,1.74,1.74,0,0,0-.58-.46,1.9,1.9,0,0,0-.82-.17,2,2,0,0,0-.87.19,2,2,0,0,0-.62.48,2.15,2.15,0,0,0-.4.69,4.46,4.46,0,0,0-.2.8Z"/><path d="M498.68,74a6.54,6.54,0,0,1-.28,1.94,4.46,4.46,0,0,1-.78,1.52,3.59,3.59,0,0,1-1.28,1,4.53,4.53,0,0,1-2.94.19,4.34,4.34,0,0,1-.9-.35v3.58h-2.13V69.65a14.73,14.73,0,0,1,1.6-.33,11.86,11.86,0,0,1,2-.16,5.44,5.44,0,0,1,2,.33,4.3,4.3,0,0,1,1.48,1,4.41,4.41,0,0,1,.93,1.52A5.75,5.75,0,0,1,498.68,74Zm-2.19,0a3.43,3.43,0,0,0-.65-2.22,2.5,2.5,0,0,0-2.07-.8l-.62,0a3.53,3.53,0,0,0-.65.11v5.28a3.28,3.28,0,0,0,.75.36,3,3,0,0,0,1,.17,1.92,1.92,0,0,0,1.7-.8A3.73,3.73,0,0,0,496.49,74Z"/><path d="M754.84,183a5.06,5.06,0,0,1-.34,1.84,4,4,0,0,1-1,1.47,4.75,4.75,0,0,1-1.71,1,7.43,7.43,0,0,1-2.36.34,6.76,6.76,0,0,1-2.6-.43,4.88,4.88,0,0,1-1.66-1.11,3.9,3.9,0,0,1-.88-1.44,4.4,4.4,0,0,1-.27-1.46,4,4,0,0,1,.2-1.27,4.2,4.2,0,0,1,.54-1.08,5.68,5.68,0,0,1,.78-.91,7.1,7.1,0,0,1,.92-.74,5.27,5.27,0,0,1-1.57-1.6,3.94,3.94,0,0,1-.52-2.1,4.24,4.24,0,0,1,.36-1.72,4.09,4.09,0,0,1,1-1.43,4.75,4.75,0,0,1,1.61-1,5.59,5.59,0,0,1,2.09-.37,6.06,6.06,0,0,1,2.31.39,4.67,4.67,0,0,1,1.57,1,4,4,0,0,1,.88,1.38,4.21,4.21,0,0,1,.28,1.48,3.79,3.79,0,0,1-.69,2.24,5.7,5.7,0,0,1-1.59,1.55,5.49,5.49,0,0,1,2,1.7A4,4,0,0,1,754.84,183Zm-8.12.14a2.24,2.24,0,0,0,.14.73,1.88,1.88,0,0,0,.46.72,2.71,2.71,0,0,0,.83.54,3.27,3.27,0,0,0,1.26.22,3.6,3.6,0,0,0,1.2-.19,2.4,2.4,0,0,0,.83-.49,2.16,2.16,0,0,0,.48-.72,2.09,2.09,0,0,0,.16-.81,2.38,2.38,0,0,0-.25-1.13,2.52,2.52,0,0,0-.73-.84,4.87,4.87,0,0,0-1.11-.62,11.42,11.42,0,0,0-1.43-.47,4.5,4.5,0,0,0-1.33,1.27A3.11,3.11,0,0,0,746.72,183.09Zm5-7.87a2,2,0,0,0-.13-.65,1.81,1.81,0,0,0-.42-.66,2.45,2.45,0,0,0-.72-.51,2.57,2.57,0,0,0-1.06-.2,2.69,2.69,0,0,0-1.07.19,2,2,0,0,0-.72.51,2.28,2.28,0,0,0-.42.67,1.93,1.93,0,0,0-.13.7,2.51,2.51,0,0,0,.65,1.65,4.45,4.45,0,0,0,2.2,1.25,4.62,4.62,0,0,0,1.33-1.21A2.94,2.94,0,0,0,751.74,175.22Z"/><path d="M767,175.43a4,4,0,0,1-.35,1.62,8.23,8.23,0,0,1-.88,1.54,12.72,12.72,0,0,1-1.24,1.45c-.46.47-.92.92-1.37,1.37-.25.23-.53.5-.83.83s-.6.64-.88,1a10.48,10.48,0,0,0-.71.93,1.62,1.62,0,0,0-.32.75h7.08v2.35H757.37a3,3,0,0,1,0-.45v-.4a5.6,5.6,0,0,1,.35-2,8.08,8.08,0,0,1,.93-1.74,13.19,13.19,0,0,1,1.29-1.51c.48-.48,1-1,1.43-1.41l1.06-1a11.06,11.06,0,0,0,.88-1,5.13,5.13,0,0,0,.61-1,2.71,2.71,0,0,0,.23-1.07,2,2,0,0,0-.69-1.71,2.81,2.81,0,0,0-1.68-.5,3.76,3.76,0,0,0-1.19.18,4.67,4.67,0,0,0-1,.44,5.77,5.77,0,0,0-.75.52c-.21.17-.37.32-.48.42L757,173a7.66,7.66,0,0,1,2.26-1.49,7.07,7.07,0,0,1,2.8-.56,5.12,5.12,0,0,1,3.76,1.21A4.46,4.46,0,0,1,767,175.43Z"/><path d="M777.82,175.29a4.5,4.5,0,0,1-1.07,3.22,3.71,3.71,0,0,1-2.8,1.13,4.13,4.13,0,0,1-1.56-.29,3.26,3.26,0,0,1-1.22-.84,3.83,3.83,0,0,1-.79-1.37,5.32,5.32,0,0,1-.29-1.85,4.45,4.45,0,0,1,1.07-3.23,3.7,3.7,0,0,1,2.79-1.12,3.74,3.74,0,0,1,2.8,1.12A4.49,4.49,0,0,1,777.82,175.29Zm-2.19,0a3.09,3.09,0,0,0-.45-1.83,1.46,1.46,0,0,0-1.23-.61,1.43,1.43,0,0,0-1.22.61,4.11,4.11,0,0,0,0,3.66,1.41,1.41,0,0,0,1.22.61,1.44,1.44,0,0,0,1.23-.61A3.09,3.09,0,0,0,775.63,175.29Zm6.85-4h2.65l-9,15.94h-2.65Zm6.08,12a4.52,4.52,0,0,1-1.07,3.22,3.71,3.71,0,0,1-2.8,1.13,4.13,4.13,0,0,1-1.56-.29,3.26,3.26,0,0,1-1.22-.84,3.92,3.92,0,0,1-.79-1.37,5.32,5.32,0,0,1-.29-1.85A4.49,4.49,0,0,1,781.9,180a3.66,3.66,0,0,1,2.79-1.12,3.7,3.7,0,0,1,2.8,1.12A4.49,4.49,0,0,1,788.56,183.25Zm-2.19,0a3.09,3.09,0,0,0-.45-1.83,1.44,1.44,0,0,0-1.23-.61,1.41,1.41,0,0,0-1.22.61,4.11,4.11,0,0,0,0,3.66,1.43,1.43,0,0,0,1.22.61,1.46,1.46,0,0,0,1.23-.61A3.09,3.09,0,0,0,786.37,183.25Z"/><path d="M826.82,180c.35-.35.74-.75,1.15-1.19s.83-.87,1.23-1.32l1.16-1.27c.37-.41.68-.76.92-1.05h3.27c-.34.4-.72.83-1.16,1.31L832,178l-1.38,1.45c-.45.47-.86.88-1.23,1.25.48.4,1,.87,1.49,1.39s1,1.09,1.51,1.68,1,1.19,1.39,1.8.79,1.17,1.09,1.69h-3.22c-.3-.46-.64-.95-1-1.45s-.8-1-1.23-1.49-.87-.93-1.31-1.36a12.38,12.38,0,0,0-1.29-1.11v5.41H824v-12h2.78Z"/><path d="M847.2,181.2a7.92,7.92,0,0,1-.41,2.6,5.76,5.76,0,0,1-1.18,2,5.29,5.29,0,0,1-1.82,1.29,5.88,5.88,0,0,1-2.36.46,5.8,5.8,0,0,1-2.35-.46,5.48,5.48,0,0,1-1.82-1.29,5.92,5.92,0,0,1-1.18-2,8,8,0,0,1,0-5.19,5.79,5.79,0,0,1,1.2-2,5.29,5.29,0,0,1,1.82-1.27,6.26,6.26,0,0,1,4.66,0,5.15,5.15,0,0,1,1.83,1.27,6.09,6.09,0,0,1,1.19,2A7.61,7.61,0,0,1,847.2,181.2Zm-2.85,0a4.73,4.73,0,0,0-.77-2.84,2.73,2.73,0,0,0-4.3,0,4.67,4.67,0,0,0-.77,2.84,4.78,4.78,0,0,0,.77,2.88,2.73,2.73,0,0,0,4.3,0A4.85,4.85,0,0,0,844.35,181.2Z"/><path d="M850.08,175.2h2.78V185h3.77V175.2h2.78V185h3.78V175.2H866v12H850.08Z"/><path d="M872.29,180c.36-.35.74-.75,1.15-1.19s.83-.87,1.23-1.32l1.16-1.27c.37-.41.68-.76.92-1.05H880c-.34.4-.72.83-1.16,1.31L877.5,178c-.46.5-.92,1-1.38,1.45s-.86.88-1.23,1.25c.48.4,1,.87,1.49,1.39s1,1.09,1.51,1.68,1,1.19,1.4,1.8.79,1.17,1.08,1.69h-3.22c-.3-.46-.64-.95-1-1.45s-.8-1-1.23-1.49-.86-.93-1.31-1.36a12.38,12.38,0,0,0-1.29-1.11v5.41h-2.78v-12h2.78Z"/><path d="M886.39,174.9a6.76,6.76,0,0,1,2.32.34,3.72,3.72,0,0,1,1.51,1,3.56,3.56,0,0,1,.81,1.51,7.42,7.42,0,0,1,.24,1.94V187c-.43.09-1.08.21-1.95.34a21.3,21.3,0,0,1-2.93.19,8.72,8.72,0,0,1-2-.21,4.25,4.25,0,0,1-1.53-.66,3.11,3.11,0,0,1-1-1.2,4.13,4.13,0,0,1-.36-1.82,3.45,3.45,0,0,1,.4-1.74,3.31,3.31,0,0,1,1.09-1.17,4.75,4.75,0,0,1,1.6-.64,9.07,9.07,0,0,1,1.9-.2,8.27,8.27,0,0,1,1,.06,10.5,10.5,0,0,1,1.08.2v-.46a3.46,3.46,0,0,0-.12-.92,2,2,0,0,0-.4-.77,1.81,1.81,0,0,0-.76-.52,3.33,3.33,0,0,0-1.18-.18,10.86,10.86,0,0,0-1.78.13,8,8,0,0,0-1.31.33l-.34-2.26a12.59,12.59,0,0,1,1.54-.37A12.26,12.26,0,0,1,886.39,174.9Zm.23,10.37a9.77,9.77,0,0,0,2-.14v-3.08c-.16,0-.38-.09-.67-.14a7.1,7.1,0,0,0-1-.06,7.5,7.5,0,0,0-.93.06,2.91,2.91,0,0,0-.85.26,1.59,1.59,0,0,0-.61.51,1.51,1.51,0,0,0-.23.84,1.48,1.48,0,0,0,.62,1.37A3.17,3.17,0,0,0,886.62,185.27Z"/><path d="M745,214.6a16.5,16.5,0,0,0,2.68-1.36,11,11,0,0,0,2.38-2h2v15.94h-2.78V215a8.44,8.44,0,0,1-1.56,1,17.76,17.76,0,0,1-1.82.76Z"/><path d="M764.75,222.67a3,3,0,0,0-.3-1.35,2.44,2.44,0,0,0-1-1,6.56,6.56,0,0,0-2-.62,21.17,21.17,0,0,0-3.17-.2c.17-1.48.3-2.87.39-4.2s.17-2.66.23-4H767v2.34h-5.78c0,.27,0,.56-.05.89s0,.66-.07,1-.05.66-.08,1-.07.56-.1.78a8.43,8.43,0,0,1,5,1.55,4.64,4.64,0,0,1,1.62,3.74,5.23,5.23,0,0,1-.37,2,4.19,4.19,0,0,1-1.12,1.59,5.55,5.55,0,0,1-1.91,1,8.44,8.44,0,0,1-2.69.38,9.15,9.15,0,0,1-1.27-.09c-.43-.06-.84-.13-1.23-.22s-.74-.17-1-.26a4.45,4.45,0,0,1-.69-.26l.53-2.34a10,10,0,0,0,1.39.49,7.93,7.93,0,0,0,2.22.27,5.4,5.4,0,0,0,1.55-.2,2.92,2.92,0,0,0,1-.54,2,2,0,0,0,.59-.79A2.56,2.56,0,0,0,764.75,222.67Z"/><path d="M777.82,215.29a4.5,4.5,0,0,1-1.07,3.22,3.71,3.71,0,0,1-2.8,1.13,4.13,4.13,0,0,1-1.56-.29,3.26,3.26,0,0,1-1.22-.84,3.83,3.83,0,0,1-.79-1.37,5.32,5.32,0,0,1-.29-1.85,4.45,4.45,0,0,1,1.07-3.23,3.7,3.7,0,0,1,2.79-1.12,3.74,3.74,0,0,1,2.8,1.12A4.49,4.49,0,0,1,777.82,215.29Zm-2.19,0a3.09,3.09,0,0,0-.45-1.83,1.46,1.46,0,0,0-1.23-.61,1.43,1.43,0,0,0-1.22.61,4.11,4.11,0,0,0,0,3.66,1.41,1.41,0,0,0,1.22.61,1.44,1.44,0,0,0,1.23-.61A3.09,3.09,0,0,0,775.63,215.29Zm6.85-4h2.65l-9,15.94h-2.65Zm6.08,12a4.52,4.52,0,0,1-1.07,3.22,3.71,3.71,0,0,1-2.8,1.13,4.13,4.13,0,0,1-1.56-.29,3.26,3.26,0,0,1-1.22-.84,3.92,3.92,0,0,1-.79-1.37,5.32,5.32,0,0,1-.29-1.85A4.49,4.49,0,0,1,781.9,220a3.66,3.66,0,0,1,2.79-1.12,3.7,3.7,0,0,1,2.8,1.12A4.49,4.49,0,0,1,788.56,223.25Zm-2.19,0a3.09,3.09,0,0,0-.45-1.83,1.44,1.44,0,0,0-1.23-.61,1.41,1.41,0,0,0-1.22.61,4.11,4.11,0,0,0,0,3.66,1.43,1.43,0,0,0,1.22.61,1.46,1.46,0,0,0,1.23-.61A3.09,3.09,0,0,0,786.37,223.25Z"/><path d="M823.37,221.22a7.23,7.23,0,0,1,.42-2.49,5.84,5.84,0,0,1,1.18-2,5.33,5.33,0,0,1,1.88-1.34,6.13,6.13,0,0,1,2.48-.48,8.51,8.51,0,0,1,3.22.62l-.6,2.28a5.82,5.82,0,0,0-1.09-.35,6,6,0,0,0-1.3-.14,3,3,0,0,0-2.48,1,4.36,4.36,0,0,0-.86,2.88,4.55,4.55,0,0,0,.81,2.85,3.24,3.24,0,0,0,2.71,1,6.61,6.61,0,0,0,1.41-.14,6.29,6.29,0,0,0,1.19-.34l.39,2.3a5.75,5.75,0,0,1-1.39.41,10.08,10.08,0,0,1-1.92.19,6.86,6.86,0,0,1-2.68-.48,4.93,4.93,0,0,1-1.88-1.31,5.44,5.44,0,0,1-1.12-2A8.43,8.43,0,0,1,823.37,221.22Z"/><path d="M845.52,221.2a7.92,7.92,0,0,1-.41,2.6,5.76,5.76,0,0,1-1.18,2,5.29,5.29,0,0,1-1.82,1.29,5.88,5.88,0,0,1-2.36.46,5.8,5.8,0,0,1-2.35-.46,5.48,5.48,0,0,1-1.82-1.29,5.92,5.92,0,0,1-1.18-2,8,8,0,0,1,0-5.19,5.79,5.79,0,0,1,1.2-2,5.29,5.29,0,0,1,1.82-1.27,6.26,6.26,0,0,1,4.66,0,5.06,5.06,0,0,1,1.83,1.27,6.09,6.09,0,0,1,1.19,2A7.61,7.61,0,0,1,845.52,221.2Zm-2.85,0a4.73,4.73,0,0,0-.77-2.84,2.73,2.73,0,0,0-4.3,0,4.67,4.67,0,0,0-.77,2.84,4.78,4.78,0,0,0,.77,2.88,2.73,2.73,0,0,0,4.3,0A4.85,4.85,0,0,0,842.67,221.2Z"/><path d="M858.72,211.82l-.49.09-.63.09-.87.11-1.14.12a8.74,8.74,0,0,0-1.77.38,4,4,0,0,0-1.35.76,3.87,3.87,0,0,0-1,1.25,6.36,6.36,0,0,0-.52,1.84,6.25,6.25,0,0,1,1.55-.71,5.64,5.64,0,0,1,1.64-.25A4.9,4.9,0,0,1,858,217a6.25,6.25,0,0,1,1.4,4.39,7.68,7.68,0,0,1-.39,2.51,5.53,5.53,0,0,1-1.13,1.93,5.22,5.22,0,0,1-1.77,1.25,5.83,5.83,0,0,1-2.35.45A6.18,6.18,0,0,1,851,227a4.41,4.41,0,0,1-1.77-1.54,6.81,6.81,0,0,1-1-2.41,14.88,14.88,0,0,1-.3-3.12,18.9,18.9,0,0,1,.38-4,8.29,8.29,0,0,1,1.24-3,6.55,6.55,0,0,1,2.26-2,9.73,9.73,0,0,1,3.39-1.07c.69-.11,1.27-.2,1.74-.26s.94-.14,1.41-.25Zm-7.82,7.08a5.07,5.07,0,0,0,0,.73v.79a11.35,11.35,0,0,0,.14,1.91,4.43,4.43,0,0,0,.48,1.49,2.56,2.56,0,0,0,.9,1,2.51,2.51,0,0,0,1.37.34,2.74,2.74,0,0,0,1.25-.27,2.5,2.5,0,0,0,.87-.78,3.9,3.9,0,0,0,.52-1.19,6.2,6.2,0,0,0,.17-1.48,5.68,5.68,0,0,0-.15-1.32,3.39,3.39,0,0,0-.48-1.13,2.43,2.43,0,0,0-.89-.79,2.81,2.81,0,0,0-1.35-.3,4.7,4.7,0,0,0-1.56.27A3.26,3.26,0,0,0,850.9,218.9Z"/><path d="M866.29,214.9a6.8,6.8,0,0,1,2.32.34,3.79,3.79,0,0,1,1.51,1,3.54,3.54,0,0,1,.8,1.51,7.41,7.41,0,0,1,.25,1.94V227c-.43.09-1.08.21-1.95.34a21.3,21.3,0,0,1-2.93.19,8.72,8.72,0,0,1-2-.21,4.1,4.1,0,0,1-1.53-.66,3.23,3.23,0,0,1-1-1.2,4.28,4.28,0,0,1-.35-1.82,3.45,3.45,0,0,1,.4-1.74,3.31,3.31,0,0,1,1.09-1.17,4.67,4.67,0,0,1,1.6-.64,9.07,9.07,0,0,1,1.9-.2,8.11,8.11,0,0,1,1,.06,9.6,9.6,0,0,1,1.08.2v-.46a3.46,3.46,0,0,0-.11-.92,2,2,0,0,0-.4-.77,1.81,1.81,0,0,0-.76-.52,3.39,3.39,0,0,0-1.19-.18,10.82,10.82,0,0,0-1.77.13,8,8,0,0,0-1.31.33l-.34-2.26a12.13,12.13,0,0,1,1.54-.37A12.26,12.26,0,0,1,866.29,214.9Zm.23,10.37a9.59,9.59,0,0,0,2-.14v-3.08c-.15,0-.37-.09-.66-.14a7.21,7.21,0,0,0-1-.06,7.38,7.38,0,0,0-.93.06,2.82,2.82,0,0,0-.85.26,1.52,1.52,0,0,0-.61.51,1.51,1.51,0,0,0-.23.84,1.48,1.48,0,0,0,.62,1.37A3.12,3.12,0,0,0,866.52,225.27Z"/><path d="M877.35,220c.36-.35.74-.75,1.15-1.19s.83-.87,1.23-1.32l1.16-1.27c.37-.41.68-.76.92-1.05h3.27c-.34.4-.72.83-1.16,1.31L882.56,218l-1.38,1.45c-.45.47-.86.88-1.23,1.25.48.4,1,.87,1.49,1.39s1,1.09,1.51,1.68,1,1.19,1.39,1.8.79,1.17,1.09,1.69h-3.22c-.3-.46-.64-.95-1-1.45s-.8-1-1.23-1.49-.87-.93-1.31-1.36a12.38,12.38,0,0,0-1.29-1.11v5.41h-2.78v-12h2.78Z"/><path d="M891.45,214.9a6.76,6.76,0,0,1,2.32.34,3.72,3.72,0,0,1,1.51,1,3.67,3.67,0,0,1,.81,1.51,7.42,7.42,0,0,1,.24,1.94V227c-.43.09-1.08.21-2,.34a21.3,21.3,0,0,1-2.93.19,8.72,8.72,0,0,1-2-.21,4.25,4.25,0,0,1-1.53-.66,3.11,3.11,0,0,1-1-1.2,4.13,4.13,0,0,1-.36-1.82,3.45,3.45,0,0,1,.4-1.74,3.31,3.31,0,0,1,1.09-1.17,4.75,4.75,0,0,1,1.6-.64,9.07,9.07,0,0,1,1.9-.2,8.27,8.27,0,0,1,1,.06,10.5,10.5,0,0,1,1.08.2v-.46a3.46,3.46,0,0,0-.12-.92,2,2,0,0,0-.4-.77,1.81,1.81,0,0,0-.76-.52,3.33,3.33,0,0,0-1.18-.18,10.86,10.86,0,0,0-1.78.13,8,8,0,0,0-1.31.33l-.34-2.26a12.59,12.59,0,0,1,1.54-.37A12.26,12.26,0,0,1,891.45,214.9Zm.23,10.37a9.77,9.77,0,0,0,2-.14v-3.08c-.16,0-.38-.09-.67-.14a7.1,7.1,0,0,0-1-.06,7.5,7.5,0,0,0-.93.06,2.82,2.82,0,0,0-.85.26,1.52,1.52,0,0,0-.61.51,1.51,1.51,0,0,0-.23.84,1.48,1.48,0,0,0,.62,1.37A3.17,3.17,0,0,0,891.68,225.27Z"/><path d="M753.94,255.43a4,4,0,0,1-.34,1.62,8.29,8.29,0,0,1-.89,1.54,12.61,12.61,0,0,1-1.23,1.45c-.46.47-.92.92-1.38,1.37-.24.23-.52.5-.83.83s-.59.64-.87,1a8.86,8.86,0,0,0-.71.93,1.62,1.62,0,0,0-.32.75h7.08v2.35H744.31a2.81,2.81,0,0,1,0-.45v-.4a5.61,5.61,0,0,1,.36-2,8.08,8.08,0,0,1,.93-1.74,11.45,11.45,0,0,1,1.29-1.51c.47-.48.95-.95,1.43-1.41s.72-.69,1.05-1a9.86,9.86,0,0,0,.89-1,5.66,5.66,0,0,0,.61-1,2.71,2.71,0,0,0,.23-1.07,2,2,0,0,0-.69-1.71,2.81,2.81,0,0,0-1.68-.5,3.87,3.87,0,0,0-1.2.18,4.58,4.58,0,0,0-1,.44,5.16,5.16,0,0,0-.75.52c-.22.17-.38.32-.49.42L743.92,253a7.53,7.53,0,0,1,2.26-1.49,7.06,7.06,0,0,1,2.79-.56,5.13,5.13,0,0,1,3.77,1.21A4.46,4.46,0,0,1,753.94,255.43Z"/><path d="M764.75,255.29a4.46,4.46,0,0,1-1.07,3.22,3.67,3.67,0,0,1-2.79,1.13,4.22,4.22,0,0,1-1.57-.29,3.22,3.22,0,0,1-1.21-.84,3.84,3.84,0,0,1-.8-1.37,5.57,5.57,0,0,1-.29-1.85,4.49,4.49,0,0,1,1.07-3.23,3.74,3.74,0,0,1,2.8-1.12,3.7,3.7,0,0,1,2.79,1.12A4.45,4.45,0,0,1,764.75,255.29Zm-2.18,0a3.09,3.09,0,0,0-.45-1.83,1.46,1.46,0,0,0-1.23-.61,1.43,1.43,0,0,0-1.22.61,4,4,0,0,0,0,3.66,1.41,1.41,0,0,0,1.22.61,1.44,1.44,0,0,0,1.23-.61A3.09,3.09,0,0,0,762.57,255.29Zm6.85-4h2.65l-9,15.94h-2.64Zm6.07,12a4.47,4.47,0,0,1-1.07,3.22,3.67,3.67,0,0,1-2.79,1.13,4.13,4.13,0,0,1-1.56-.29,3.18,3.18,0,0,1-1.22-.84,3.93,3.93,0,0,1-.8-1.37,5.58,5.58,0,0,1-.28-1.85,4.49,4.49,0,0,1,1.06-3.23,3.7,3.7,0,0,1,2.8-1.12,3.66,3.66,0,0,1,2.79,1.12A4.45,4.45,0,0,1,775.49,263.25Zm-2.18,0a3.09,3.09,0,0,0-.45-1.83,1.44,1.44,0,0,0-1.23-.61,1.41,1.41,0,0,0-1.22.61,4,4,0,0,0,0,3.66,1.43,1.43,0,0,0,1.22.61,1.46,1.46,0,0,0,1.23-.61A3.09,3.09,0,0,0,773.31,263.25Z"/><path d="M824,255.2h2.78V265h3.77V255.2h2.79V265h3.77V255.2h2.78v12H824Z"/><path d="M847.48,254.9a6.8,6.8,0,0,1,2.32.34,3.79,3.79,0,0,1,1.51,1,3.66,3.66,0,0,1,.8,1.51,7.42,7.42,0,0,1,.24,1.94V267c-.43.09-1.08.21-1.94.34a21.52,21.52,0,0,1-2.93.19,8.65,8.65,0,0,1-2-.21,4.1,4.1,0,0,1-1.53-.66,3.23,3.23,0,0,1-1-1.2,4.13,4.13,0,0,1-.36-1.82,3.45,3.45,0,0,1,.41-1.74,3.22,3.22,0,0,1,1.09-1.17,4.67,4.67,0,0,1,1.6-.64,9,9,0,0,1,1.89-.2,8.27,8.27,0,0,1,1,.06,9.6,9.6,0,0,1,1.08.2v-.46a3.93,3.93,0,0,0-.11-.92,2,2,0,0,0-.41-.77,1.75,1.75,0,0,0-.76-.52,3.33,3.33,0,0,0-1.18-.18,10.82,10.82,0,0,0-1.77.13,7.74,7.74,0,0,0-1.31.33l-.35-2.26a13.07,13.07,0,0,1,1.54-.37A12.46,12.46,0,0,1,847.48,254.9Zm.23,10.37a9.66,9.66,0,0,0,1.95-.14v-3.08c-.15,0-.37-.09-.67-.14a7.06,7.06,0,0,0-1-.06,7.26,7.26,0,0,0-.93.06,2.73,2.73,0,0,0-.85.26,1.46,1.46,0,0,0-.61.51,1.43,1.43,0,0,0-.23.84,1.46,1.46,0,0,0,.62,1.37A3.12,3.12,0,0,0,847.71,265.27Z"/><path d="M865.76,255.2v12H863v-9.71h-4.44v9.71h-2.78v-12Z"/><path d="M872.09,260c.35-.35.73-.75,1.15-1.19l1.23-1.32,1.16-1.27c.37-.41.67-.76.92-1.05h3.26c-.33.4-.72.83-1.16,1.31s-.89,1-1.35,1.46l-1.38,1.45-1.23,1.25c.47.4,1,.87,1.48,1.39s1,1.09,1.52,1.68,1,1.19,1.39,1.8a17.87,17.87,0,0,1,1.08,1.69h-3.22c-.29-.46-.63-1-1-1.45s-.81-1-1.23-1.49-.87-.93-1.32-1.36a13.46,13.46,0,0,0-1.28-1.11v5.41H869.3v-12h2.79Z"/><path d="M886.19,254.9a6.8,6.8,0,0,1,2.32.34,3.68,3.68,0,0,1,1.5,1,3.56,3.56,0,0,1,.81,1.51,7.42,7.42,0,0,1,.24,1.94V267c-.43.09-1.08.21-1.94.34a21.52,21.52,0,0,1-2.93.19,8.59,8.59,0,0,1-2-.21,4.1,4.1,0,0,1-1.53-.66,3.23,3.23,0,0,1-1-1.2,4.13,4.13,0,0,1-.36-1.82,3.55,3.55,0,0,1,.4-1.74,3.33,3.33,0,0,1,1.1-1.17,4.67,4.67,0,0,1,1.6-.64,8.9,8.9,0,0,1,1.89-.2,8.27,8.27,0,0,1,1,.06,9.6,9.6,0,0,1,1.08.2v-.46a3.46,3.46,0,0,0-.12-.92,1.83,1.83,0,0,0-.4-.77,1.75,1.75,0,0,0-.76-.52,3.33,3.33,0,0,0-1.18-.18,10.65,10.65,0,0,0-1.77.13,7.49,7.49,0,0,0-1.31.33l-.35-2.26a12.59,12.59,0,0,1,1.54-.37A12.46,12.46,0,0,1,886.19,254.9Zm.23,10.37a9.72,9.72,0,0,0,2-.14v-3.08c-.15,0-.38-.09-.67-.14a7.06,7.06,0,0,0-1-.06,7.26,7.26,0,0,0-.93.06,2.73,2.73,0,0,0-.85.26,1.55,1.55,0,0,0-.62.51,1.5,1.5,0,0,0-.22.84,1.46,1.46,0,0,0,.62,1.37A3.12,3.12,0,0,0,886.42,265.27Z"/><path d="M745,294.6a16.5,16.5,0,0,0,2.68-1.36,11,11,0,0,0,2.38-1.95h2v15.94h-2.78V295a8.44,8.44,0,0,1-1.56.95,17.76,17.76,0,0,1-1.82.76Z"/><path d="M764.75,295.29a4.46,4.46,0,0,1-1.07,3.22,3.67,3.67,0,0,1-2.79,1.13,4.22,4.22,0,0,1-1.57-.29,3.22,3.22,0,0,1-1.21-.84,3.84,3.84,0,0,1-.8-1.37,5.57,5.57,0,0,1-.29-1.85,4.49,4.49,0,0,1,1.07-3.23,3.74,3.74,0,0,1,2.8-1.12,3.7,3.7,0,0,1,2.79,1.12A4.45,4.45,0,0,1,764.75,295.29Zm-2.18,0a3.09,3.09,0,0,0-.45-1.83,1.46,1.46,0,0,0-1.23-.61,1.43,1.43,0,0,0-1.22.61,4,4,0,0,0,0,3.66,1.41,1.41,0,0,0,1.22.61,1.44,1.44,0,0,0,1.23-.61A3.09,3.09,0,0,0,762.57,295.29Zm6.85-4h2.65l-9,15.94h-2.64Zm6.07,12a4.47,4.47,0,0,1-1.07,3.22,3.67,3.67,0,0,1-2.79,1.13,4.13,4.13,0,0,1-1.56-.29,3.18,3.18,0,0,1-1.22-.84,3.93,3.93,0,0,1-.8-1.37,5.58,5.58,0,0,1-.28-1.85,4.49,4.49,0,0,1,1.06-3.23,3.7,3.7,0,0,1,2.8-1.12,3.66,3.66,0,0,1,2.79,1.12A4.45,4.45,0,0,1,775.49,303.25Zm-2.18,0a3.09,3.09,0,0,0-.45-1.83,1.44,1.44,0,0,0-1.23-.61,1.41,1.41,0,0,0-1.22.61,4,4,0,0,0,0,3.66,1.43,1.43,0,0,0,1.22.61,1.46,1.46,0,0,0,1.23-.61A3.09,3.09,0,0,0,773.31,303.25Z"/><path d="M826.85,299.34c-.05.64-.1,1.31-.14,2s-.09,1.39-.12,2.08-.06,1.36-.09,2,0,1.25-.07,1.8h-2.69c0-.89.08-1.85.14-2.89s.13-2.08.22-3.15.17-2.11.26-3.14.19-2,.3-2.85h2.42a32.57,32.57,0,0,1,1.77,3.3q.9,1.89,2,4.31,1.14-2.46,2.09-4.45a30.63,30.63,0,0,1,1.67-3.16h2.44c.11.87.21,1.82.31,2.85s.19,2.07.26,3.14.15,2.12.21,3.15.11,2,.14,2.89h-2.76q0-1.89-.15-3.9t-.24-4c-.23.46-.48,1-.75,1.54s-.53,1.14-.79,1.72l-.75,1.69c-.25.55-.46,1-.65,1.44h-2.07l-.65-1.45c-.26-.55-.52-1.12-.78-1.7s-.52-1.15-.79-1.71Z"/><path d="M851.75,295.2v12H849c0-.88,0-1.74,0-2.6s0-1.66,0-2.39,0-1.38,0-1.92,0-.95,0-1.21c-.46.6-.93,1.26-1.42,2l-1.46,2.16c-.49.72-.94,1.42-1.37,2.11s-.81,1.32-1.13,1.87h-2.46v-12H844c0,.89,0,1.73,0,2.54s0,1.54,0,2.2,0,1.23,0,1.72,0,.87,0,1.13l1.34-2c.46-.69.92-1.38,1.39-2s.93-1.3,1.39-1.9.9-1.14,1.33-1.61Z"/><path d="M854.63,301.22a7.47,7.47,0,0,1,.41-2.49,5.86,5.86,0,0,1,1.19-2,5.39,5.39,0,0,1,1.87-1.34,6.21,6.21,0,0,1,2.49-.48,8.54,8.54,0,0,1,3.22.62l-.6,2.28a6,6,0,0,0-2.39-.49,3.07,3.07,0,0,0-2.49,1,4.36,4.36,0,0,0-.85,2.88,4.55,4.55,0,0,0,.81,2.85,3.22,3.22,0,0,0,2.71,1,6.52,6.52,0,0,0,1.4-.14,6.41,6.41,0,0,0,1.2-.34l.39,2.3a5.9,5.9,0,0,1-1.39.41,10.08,10.08,0,0,1-1.92.19,6.86,6.86,0,0,1-2.68-.48,5,5,0,0,1-1.89-1.31,5.28,5.28,0,0,1-1.11-2A8.12,8.12,0,0,1,854.63,301.22Z"/><path d="M868.93,300c.36-.35.74-.75,1.15-1.19s.83-.87,1.24-1.32l1.16-1.27.92-1.05h3.26c-.33.4-.72.83-1.16,1.31L874.14,298c-.46.5-.92,1-1.38,1.45s-.86.88-1.23,1.25c.48.4,1,.87,1.49,1.39s1,1.09,1.52,1.68,1,1.19,1.39,1.8a17.87,17.87,0,0,1,1.08,1.69h-3.22a15.84,15.84,0,0,0-1-1.45c-.39-.51-.8-1-1.23-1.49s-.86-.93-1.31-1.36a12.38,12.38,0,0,0-1.29-1.11v5.41h-2.78v-12h2.78Z"/><path d="M883,294.9a6.87,6.87,0,0,1,2.33.34,3.68,3.68,0,0,1,1.5,1,3.56,3.56,0,0,1,.81,1.51,7.42,7.42,0,0,1,.24,1.94V307c-.43.09-1.08.21-1.94.34a21.56,21.56,0,0,1-2.94.19,8.56,8.56,0,0,1-2-.21,4.1,4.1,0,0,1-1.53-.66,3.05,3.05,0,0,1-1-1.2,4.13,4.13,0,0,1-.36-1.82,3.45,3.45,0,0,1,.4-1.74,3.33,3.33,0,0,1,1.1-1.17,4.7,4.7,0,0,1,1.59-.64,9.07,9.07,0,0,1,1.9-.2,8.27,8.27,0,0,1,1,.06,10.5,10.5,0,0,1,1.08.2v-.46a3.46,3.46,0,0,0-.12-.92,1.83,1.83,0,0,0-.4-.77,1.75,1.75,0,0,0-.76-.52,3.33,3.33,0,0,0-1.18-.18,10.65,10.65,0,0,0-1.77.13,7.49,7.49,0,0,0-1.31.33l-.35-2.26a12.59,12.59,0,0,1,1.54-.37A12.42,12.42,0,0,1,883,294.9Zm.23,10.37a9.77,9.77,0,0,0,2-.14v-3.08c-.15,0-.38-.09-.67-.14a7.06,7.06,0,0,0-1-.06,7.54,7.54,0,0,0-.94.06,2.91,2.91,0,0,0-.85.26,1.59,1.59,0,0,0-.61.51,1.51,1.51,0,0,0-.23.84,1.48,1.48,0,0,0,.62,1.37A3.17,3.17,0,0,0,883.26,305.27Z"/><path d="M460.64,216.44l.88-.91.94-1c.32-.34.61-.66.89-1s.52-.57.71-.8h2.51c-.26.31-.56.64-.9,1l-1,1.12L463.58,216l-.95,1a13.75,13.75,0,0,1,1.14,1.07c.39.4.78.83,1.16,1.29s.74.91,1.07,1.37a14.37,14.37,0,0,1,.83,1.3h-2.47a12.72,12.72,0,0,0-.78-1.11c-.3-.39-.62-.77-.95-1.14s-.66-.72-1-1.05a11.63,11.63,0,0,0-1-.85V222H458.5v-9.23h2.14Z"/><path d="M472.32,214.5c0,.51,0,1.05-.06,1.61a14.87,14.87,0,0,1-.16,1.65,7.86,7.86,0,0,1-.42,1.55,4.52,4.52,0,0,1-.78,1.33,4.13,4.13,0,0,1-1.26,1,4.76,4.76,0,0,1-1.82.5l-.3-1.78a3.14,3.14,0,0,0,1.39-.57,2.61,2.61,0,0,0,.76-1,4.71,4.71,0,0,0,.33-1c.07-.38.13-.79.17-1.22s.07-.87.08-1.32,0-.88,0-1.3v-1.15h6.53V222h-2.14V214.5Z"/><path d="M482.58,212.5a5.19,5.19,0,0,1,1.79.27,2.76,2.76,0,0,1,1.15.74,2.73,2.73,0,0,1,.62,1.15,5.85,5.85,0,0,1,.18,1.49v5.6c-.32.07-.82.15-1.49.25a15.14,15.14,0,0,1-2.25.15,6.48,6.48,0,0,1-1.51-.16,3.09,3.09,0,0,1-1.18-.51,2.35,2.35,0,0,1-.75-.92,3,3,0,0,1-.28-1.39,2.49,2.49,0,0,1,1.15-2.23,3.4,3.4,0,0,1,1.22-.49,6.34,6.34,0,0,1,1.46-.16,6.42,6.42,0,0,1,.74.05,7,7,0,0,1,.83.15v-.35a2.71,2.71,0,0,0-.09-.71,1.43,1.43,0,0,0-.89-1,2.6,2.6,0,0,0-.91-.14,8.23,8.23,0,0,0-1.36.11,6.42,6.42,0,0,0-1,.24l-.27-1.73a10.25,10.25,0,0,1,1.19-.28A9.57,9.57,0,0,1,482.58,212.5Zm.18,8a7.91,7.91,0,0,0,1.5-.11V218a4.22,4.22,0,0,0-.51-.11,5.5,5.5,0,0,0-.74,0,5.81,5.81,0,0,0-.72,0,2.15,2.15,0,0,0-.65.2,1,1,0,0,0-.64,1,1.16,1.16,0,0,0,.47,1A2.51,2.51,0,0,0,482.76,220.46Z"/><path d="M488.42,217.35a5.67,5.67,0,0,1,.32-1.91,4.56,4.56,0,0,1,.91-1.54,4.08,4.08,0,0,1,1.44-1,4.63,4.63,0,0,1,1.9-.37,6.4,6.4,0,0,1,2.47.48l-.46,1.74a5.09,5.09,0,0,0-.83-.26,4.64,4.64,0,0,0-1-.11,2.36,2.36,0,0,0-1.91.79,3.39,3.39,0,0,0-.65,2.21,3.49,3.49,0,0,0,.62,2.18,2.44,2.44,0,0,0,2.08.8,5.64,5.64,0,0,0,1.08-.1,4.49,4.49,0,0,0,.91-.27l.3,1.77a4.53,4.53,0,0,1-1.06.32,8,8,0,0,1-1.48.14,5.36,5.36,0,0,1-2.05-.36,4,4,0,0,1-1.45-1,4.09,4.09,0,0,1-.85-1.53A6.36,6.36,0,0,1,488.42,217.35Z"/><path d="M496.75,217.35a5.67,5.67,0,0,1,.32-1.91,4.4,4.4,0,0,1,.91-1.54,4.13,4.13,0,0,1,1.43-1,4.68,4.68,0,0,1,1.91-.37,6.43,6.43,0,0,1,2.47.48l-.46,1.74a5.55,5.55,0,0,0-.84-.26,4.48,4.48,0,0,0-1-.11,2.36,2.36,0,0,0-1.91.79,3.39,3.39,0,0,0-.65,2.21,3.43,3.43,0,0,0,.62,2.18,2.44,2.44,0,0,0,2.08.8,5.46,5.46,0,0,0,1.07-.1,4.6,4.6,0,0,0,.92-.27l.3,1.77a4.48,4.48,0,0,1-1.07.32,7.8,7.8,0,0,1-1.47.14,5.42,5.42,0,0,1-2.06-.36,4,4,0,0,1-1.44-1,4.25,4.25,0,0,1-.86-1.53A6.36,6.36,0,0,1,496.75,217.35Z"/><path d="M513.67,212.73V222h-2.12c0-.67,0-1.34,0-2s0-1.27,0-1.83,0-1.06,0-1.47v-.93c-.35.46-.71,1-1.09,1.52s-.75,1.1-1.12,1.66-.72,1.09-1.05,1.62-.62,1-.86,1.43h-1.89v-9.23h2.1c0,.68,0,1.33,0,2s0,1.18,0,1.69,0,.94,0,1.32,0,.66,0,.86l1-1.56c.35-.53.7-1.06,1.06-1.57s.72-1,1.07-1.45.69-.87,1-1.24Z"/><path d="M522.93,225.22h-2.06V222a6.62,6.62,0,0,1-2.06-.4,4.83,4.83,0,0,1-1.58-1,4.27,4.27,0,0,1-1-1.43,4.61,4.61,0,0,1-.36-1.84,4.38,4.38,0,0,1,.35-1.8,4.13,4.13,0,0,1,1-1.41,4.83,4.83,0,0,1,1.57-1,7.22,7.22,0,0,1,2.09-.45v-4.11l2.06-.37v4.48a6.67,6.67,0,0,1,1.91.37,4.92,4.92,0,0,1,1.6.9,4.18,4.18,0,0,1,1.5,3.35,4.52,4.52,0,0,1-.4,2,4,4,0,0,1-1.08,1.42,5.08,5.08,0,0,1-1.6.89,6.74,6.74,0,0,1-1.93.37Zm-2.06-10.69a3.23,3.23,0,0,0-2,.79,3.1,3.1,0,0,0,0,4.12,3.43,3.43,0,0,0,2.06.77Zm2.06,5.68A4,4,0,0,0,524,220a2.59,2.59,0,0,0,.9-.52,2.5,2.5,0,0,0,.62-.89,3.51,3.51,0,0,0,0-2.5,2.33,2.33,0,0,0-.62-.87,2.61,2.61,0,0,0-.9-.53,4,4,0,0,0-1.09-.19Z"/><path d="M538.21,212.73V222h-2.12c0-.67,0-1.34,0-2s0-1.27,0-1.83,0-1.06,0-1.47v-.93c-.35.46-.71,1-1.09,1.52s-.75,1.1-1.12,1.66-.72,1.09-1,1.62-.62,1-.86,1.43h-1.89v-9.23h2.1c0,.68,0,1.33,0,2s0,1.18,0,1.69,0,.94,0,1.32,0,.66,0,.86l1-1.56c.35-.53.7-1.06,1.06-1.57s.72-1,1.07-1.45.69-.87,1-1.24Z"/><path d="M543.06,216.44l.88-.91.95-1c.31-.34.61-.66.89-1s.51-.57.7-.8H549c-.26.31-.56.64-.89,1l-1,1.12L546,216c-.35.36-.66.68-1,1a13.75,13.75,0,0,1,1.14,1.07c.4.4.78.83,1.17,1.29s.73.91,1.06,1.37a14.37,14.37,0,0,1,.83,1.3h-2.47a12.72,12.72,0,0,0-.78-1.11c-.3-.39-.62-.77-1-1.14s-.66-.72-1-1.05a10.26,10.26,0,0,0-1-.85V222h-2.13v-9.23h2.13Z"/><path d="M553.88,212.5a5.17,5.17,0,0,1,1.78.27,2.76,2.76,0,0,1,1.15.74,2.73,2.73,0,0,1,.62,1.15,5.84,5.84,0,0,1,.19,1.49v5.6c-.33.07-.83.15-1.5.25a15.09,15.09,0,0,1-2.24.15,6.51,6.51,0,0,1-1.52-.16,3.09,3.09,0,0,1-1.18-.51,2.35,2.35,0,0,1-.75-.92,3,3,0,0,1-.28-1.39,2.74,2.74,0,0,1,.31-1.34,2.65,2.65,0,0,1,.84-.89,3.38,3.38,0,0,1,1.23-.49,6.26,6.26,0,0,1,1.45-.16,6.42,6.42,0,0,1,.74.05,7,7,0,0,1,.83.15v-.35a2.71,2.71,0,0,0-.09-.71,1.43,1.43,0,0,0-.89-1,2.6,2.6,0,0,0-.91-.14,8,8,0,0,0-1.35.11,6.3,6.3,0,0,0-1,.24l-.26-1.73a10,10,0,0,1,1.18-.28A9.6,9.6,0,0,1,553.88,212.5Zm.17,8a7.91,7.91,0,0,0,1.5-.11V218a4.22,4.22,0,0,0-.51-.11,5.5,5.5,0,0,0-.74,0,5.94,5.94,0,0,0-.72,0,2.24,2.24,0,0,0-.65.2,1,1,0,0,0-.64,1,1.16,1.16,0,0,0,.47,1A2.51,2.51,0,0,0,554.05,220.46Z"/><path d="M569.28,220.21v4.36h-1.89V222h-7.16v-9.23h2.13v7.48h3.39v-7.48h2.13v7.48Z"/><path d="M579,212.73V222h-2.11v-2c0-.65,0-1.27,0-1.83s0-1.06,0-1.47,0-.73,0-.93c-.35.46-.72,1-1.1,1.52s-.75,1.1-1.12,1.66-.72,1.09-1,1.62-.61,1-.86,1.43H571v-9.23h2.1c0,.68,0,1.33,0,2s0,1.18,0,1.69v1.32c0,.38,0,.66,0,.86l1-1.56c.35-.53.71-1.06,1.07-1.57s.71-1,1.06-1.45.7-.87,1-1.24Z"/><path d="M585.82,218.54h-.42l-.4,0a19.12,19.12,0,0,0-1,1.74c-.31.59-.61,1.16-.88,1.7h-2.19a20.62,20.62,0,0,1,1.06-2.1c.39-.67.76-1.24,1.1-1.71a2.51,2.51,0,0,1-1.66-2.47,3.1,3.1,0,0,1,.29-1.37,2.79,2.79,0,0,1,.82-1,3.93,3.93,0,0,1,1.27-.6,6.41,6.41,0,0,1,1.64-.2,16.61,16.61,0,0,1,2,.12c.65.09,1.19.18,1.6.28v9h-2.14v-3.42Zm1.06-4.26-.6-.06c-.27,0-.54,0-.83,0q-2,0-2,1.44a1.28,1.28,0,0,0,.15.65,1.15,1.15,0,0,0,.41.41,1.69,1.69,0,0,0,.62.22,4.51,4.51,0,0,0,.76.06h1.44Z"/><path d="M603.92,212.73V222h-2.11c0-.67,0-1.34,0-2s0-1.27,0-1.83,0-1.06,0-1.47,0-.73,0-.93c-.35.46-.72,1-1.09,1.52s-.75,1.1-1.12,1.66-.72,1.09-1,1.62-.62,1-.87,1.43h-1.89v-9.23h2.1v2c0,.62,0,1.18,0,1.69s0,.94,0,1.32,0,.66,0,.86l1-1.56c.36-.53.71-1.06,1.07-1.57s.71-1,1.07-1.45.69-.87,1-1.24Z"/><path d="M606.24,213l.56-.17c.22-.06.46-.11.72-.16s.54-.09.82-.12a8.51,8.51,0,0,1,.88,0,7.4,7.4,0,0,1,1.44.14,3.58,3.58,0,0,1,1.2.46,2.36,2.36,0,0,1,.82.81,2.14,2.14,0,0,1,.31,1.18,2,2,0,0,1-.4,1.26,2.56,2.56,0,0,1-.94.75,2.58,2.58,0,0,1,1.22.89,2.45,2.45,0,0,1,.42,1.48,2.29,2.29,0,0,1-.31,1.23,2.41,2.41,0,0,1-.84.84,3.94,3.94,0,0,1-1.26.48,7.82,7.82,0,0,1-1.57.15,10.36,10.36,0,0,1-1.91-.17,5.89,5.89,0,0,1-1.39-.4l.37-1.73a6.71,6.71,0,0,0,1.07.33,7.5,7.5,0,0,0,1.75.19c1.29,0,1.94-.38,1.94-1.13a1.12,1.12,0,0,0-.18-.66,1.16,1.16,0,0,0-.44-.38,2,2,0,0,0-.6-.17,4.87,4.87,0,0,0-.65,0h-1.76v-1.58h1.74a2.41,2.41,0,0,0,1.12-.24.87.87,0,0,0,.47-.84.88.88,0,0,0-.45-.78,2.26,2.26,0,0,0-1.26-.3,5.81,5.81,0,0,0-.72.05l-.72.11-.62.15-.45.15Z"/><path d="M623.81,217.34a6,6,0,0,1-.32,2,4.31,4.31,0,0,1-.9,1.53,4,4,0,0,1-1.4,1,4.47,4.47,0,0,1-1.81.36,4.38,4.38,0,0,1-1.8-.36,3.84,3.84,0,0,1-1.39-1,4.48,4.48,0,0,1-.91-1.53,6.17,6.17,0,0,1,0-4,4.39,4.39,0,0,1,.92-1.52,3.94,3.94,0,0,1,1.4-1,4.49,4.49,0,0,1,1.78-.35,4.57,4.57,0,0,1,1.79.35,3.86,3.86,0,0,1,1.4,1,4.53,4.53,0,0,1,.91,1.52A5.73,5.73,0,0,1,623.81,217.34Zm-2.19,0a3.62,3.62,0,0,0-.59-2.18,1.94,1.94,0,0,0-1.65-.81,1.92,1.92,0,0,0-1.65.81,3.62,3.62,0,0,0-.59,2.18,3.7,3.7,0,0,0,.59,2.2,1.92,1.92,0,0,0,1.65.81,1.94,1.94,0,0,0,1.65-.81A3.7,3.7,0,0,0,621.62,217.34Z"/><path d="M633.93,210.14l-.38.07-.48.07-.66.08-.87.1a5.82,5.82,0,0,0-1.36.29,3,3,0,0,0-1,.58,2.84,2.84,0,0,0-.73,1,4.8,4.8,0,0,0-.4,1.41,4.79,4.79,0,0,1,1.19-.55,4.7,4.7,0,0,1,1.26-.19,3.8,3.8,0,0,1,2.91,1.16,4.79,4.79,0,0,1,1.08,3.37,5.88,5.88,0,0,1-.3,1.93,4.2,4.2,0,0,1-.87,1.48,4,4,0,0,1-1.36,1,4.48,4.48,0,0,1-1.8.35,4.73,4.73,0,0,1-2.1-.42,3.43,3.43,0,0,1-1.35-1.18,5.25,5.25,0,0,1-.75-1.85,11.64,11.64,0,0,1-.22-2.39,14.11,14.11,0,0,1,.29-3.07,6.35,6.35,0,0,1,1-2.28,5,5,0,0,1,1.73-1.54,7.5,7.5,0,0,1,2.6-.82c.53-.09,1-.15,1.33-.2s.72-.11,1.09-.19Zm-6,5.43a3,3,0,0,0,0,.56v.61a9.43,9.43,0,0,0,.11,1.46,3.38,3.38,0,0,0,.37,1.15,2,2,0,0,0,.68.74,2.29,2.29,0,0,0,2,0,1.83,1.83,0,0,0,.67-.6,3,3,0,0,0,.39-.91,4.45,4.45,0,0,0,.14-1.14,4.17,4.17,0,0,0-.12-1,2.67,2.67,0,0,0-.37-.86,1.82,1.82,0,0,0-.68-.61,2.08,2.08,0,0,0-1-.23,3.51,3.51,0,0,0-1.19.21A2.32,2.32,0,0,0,627.94,215.57Z"/><path d="M645,217.35a6.23,6.23,0,0,1-.28,1.94,4.46,4.46,0,0,1-.78,1.52,3.59,3.59,0,0,1-1.28,1,4.53,4.53,0,0,1-2.94.19,4.34,4.34,0,0,1-.9-.35v3.58h-2.13V213a14.73,14.73,0,0,1,1.6-.33,11.86,11.86,0,0,1,2-.16,5.44,5.44,0,0,1,2,.33,4.3,4.3,0,0,1,1.48,1,4.41,4.41,0,0,1,.93,1.52A5.75,5.75,0,0,1,645,217.35Zm-2.19,0a3.43,3.43,0,0,0-.64-2.22,2.52,2.52,0,0,0-2.08-.8l-.62,0a3.53,3.53,0,0,0-.65.11v5.28a3.28,3.28,0,0,0,.75.36,3,3,0,0,0,1,.17,1.9,1.9,0,0,0,1.7-.8A3.73,3.73,0,0,0,642.79,217.39Z"/><path d="M650.25,212.5a5.09,5.09,0,0,1,1.78.27,2.73,2.73,0,0,1,1.16.74,2.85,2.85,0,0,1,.62,1.15,5.85,5.85,0,0,1,.18,1.49v5.6c-.33.07-.82.15-1.49.25a15.14,15.14,0,0,1-2.25.15,6.42,6.42,0,0,1-1.51-.16,3.09,3.09,0,0,1-1.18-.51,2.46,2.46,0,0,1-.76-.92,3.19,3.19,0,0,1-.27-1.39,2.63,2.63,0,0,1,.31-1.34,2.47,2.47,0,0,1,.84-.89,3.4,3.4,0,0,1,1.22-.49,6.34,6.34,0,0,1,1.46-.16,6.57,6.57,0,0,1,.74.05,7.35,7.35,0,0,1,.83.15v-.35a2.71,2.71,0,0,0-.09-.71,1.46,1.46,0,0,0-.31-.59,1.54,1.54,0,0,0-.58-.4,2.6,2.6,0,0,0-.91-.14,8.14,8.14,0,0,0-1.36.11,6.42,6.42,0,0,0-1,.24l-.27-1.73a10.51,10.51,0,0,1,1.18-.28A9.69,9.69,0,0,1,650.25,212.5Zm.18,8a7.91,7.91,0,0,0,1.5-.11V218a4.22,4.22,0,0,0-.51-.11,5.62,5.62,0,0,0-.74,0,5.81,5.81,0,0,0-.72,0,2.15,2.15,0,0,0-.65.2,1.12,1.12,0,0,0-.47.39,1.11,1.11,0,0,0-.17.65,1.13,1.13,0,0,0,.47,1A2.51,2.51,0,0,0,650.43,220.46Z"/><path d="M655.42,222a21.08,21.08,0,0,1,1.85-2.62q1.05-1.26,2.1-2.34c-.67-.72-1.32-1.45-2-2.2s-1.2-1.43-1.68-2.07h2.45c.37.5.79,1,1.28,1.64l1.81,2.21v-3.85h2.06v3.85c.74-.86,1.36-1.6,1.84-2.21l1.27-1.64h2.42c-.45.64-1,1.32-1.62,2.06s-1.29,1.48-2,2.19a31.26,31.26,0,0,1,2.14,2.38,24.06,24.06,0,0,1,1.81,2.6h-2.38l-.77-1.11c-.28-.39-.57-.78-.87-1.16s-.6-.75-.92-1.1-.63-.68-.94-1V222h-2.06V217.6c-.31.32-.62.66-.94,1s-.62.74-.92,1.12l-.87,1.14L657.8,222Z"/><path d="M669.82,217.39a5.89,5.89,0,0,1,.36-2.14,4.39,4.39,0,0,1,1-1.52,4,4,0,0,1,1.38-.92,4.12,4.12,0,0,1,1.58-.31,3.83,3.83,0,0,1,3,1.18,5.14,5.14,0,0,1,1.06,3.53v.4c0,.15,0,.28,0,.4H672a2.43,2.43,0,0,0,.79,1.72,3,3,0,0,0,2,.6,6.27,6.27,0,0,0,1.42-.14,5,5,0,0,0,1-.3l.28,1.75a3.17,3.17,0,0,1-.48.19c-.21.06-.44.12-.71.17s-.55.1-.85.13a7.3,7.3,0,0,1-.94.06,5.65,5.65,0,0,1-2.11-.36,4.09,4.09,0,0,1-1.49-1,4.29,4.29,0,0,1-.86-1.52A6.12,6.12,0,0,1,669.82,217.39Zm6.19-.95a2.84,2.84,0,0,0-.12-.84,2.07,2.07,0,0,0-.37-.69,1.65,1.65,0,0,0-.58-.46,1.87,1.87,0,0,0-.82-.17,1.91,1.91,0,0,0-.86.19,1.89,1.89,0,0,0-.63.48,2.36,2.36,0,0,0-.4.69,4.43,4.43,0,0,0-.19.8Z"/><path d="M688.15,222H686v-3.87h-3.47V222H680.4v-9.23h2.14v3.6H686v-3.6h2.14Z"/><path d="M698.94,212.73V222h-2.11c0-.67,0-1.34,0-2s0-1.27,0-1.83,0-1.06,0-1.47,0-.73,0-.93c-.35.46-.72,1-1.09,1.52s-.75,1.1-1.12,1.66-.72,1.09-1,1.62-.62,1-.87,1.43h-1.89v-9.23H693v2c0,.62,0,1.18,0,1.69s0,.94,0,1.32,0,.66,0,.86l1-1.56c.35-.53.71-1.06,1.07-1.57s.71-1,1.07-1.45.69-.87,1-1.24Z"/><path d="M705.74,218.54h-.43l-.4,0a17,17,0,0,0-1,1.74c-.32.59-.62,1.16-.89,1.7H700.8a18.75,18.75,0,0,1,1.06-2.1,18.5,18.5,0,0,1,1.09-1.71,2.51,2.51,0,0,1-1.66-2.47,3.1,3.1,0,0,1,.29-1.37,2.9,2.9,0,0,1,.82-1,3.93,3.93,0,0,1,1.27-.6,6.46,6.46,0,0,1,1.64-.2,16.49,16.49,0,0,1,2,.12c.66.09,1.19.18,1.6.28v9h-2.14v-3.42Zm1-4.26-.59-.06c-.28,0-.55,0-.83,0-1.31,0-2,.48-2,1.44a1.28,1.28,0,0,0,.15.65,1.24,1.24,0,0,0,.41.41,1.69,1.69,0,0,0,.62.22,4.59,4.59,0,0,0,.76.06h1.44Z"/><line class="cls-22" x1="306.26" y1="74.62" x2="227.09" y2="74.62"/><polygon class="cls-23" points="228.27 83.46 228.27 65.78 219.44 74.62 228.27 83.46"/><line class="cls-24" x1="455.79" y1="239.89" x2="711.59" y2="239.89"/><polygon class="cls-23" points="710.51 231.88 710.51 247.91 718.53 239.89 710.51 231.88"/></svg>